SplineFontDB: 3.2
FontName: Unageo-Italic-Light
FullName: Unageo-Italic Light
FamilyName: Unageo-Italic
Weight: Light
Copyright: 
UComments: "2023-12-24: Created with FontForge (http://fontforge.org)"
Version: 1.6
ItalicAngle: -8
UnderlinePosition: -100
UnderlineWidth: 50
Ascent: 800
Descent: 200
InvalidEm: 0
LayerCount: 2
Layer: 0 0 "Back" 1
Layer: 1 0 "Fore" 0
XUID: [1021 442 -170519175 32250]
FSType: 0
OS2Version: 0
OS2_WeightWidthSlopeOnly: 0
OS2_UseTypoMetrics: 1
CreationTime: 1703449529
ModificationTime: 1703530710
PfmFamily: 33
TTFWeight: 300
TTFWidth: 5
LineGap: 0
VLineGap: 0
OS2TypoAscent: 800
OS2TypoAOffset: 0
OS2TypoDescent: -200
OS2TypoDOffset: 0
OS2TypoLinegap: 90
OS2WinAscent: 910
OS2WinAOffset: 0
OS2WinDescent: 220
OS2WinDOffset: 0
HheadAscent: 950
HheadAOffset: 0
HheadDescent: -250
HheadDOffset: 0
OS2CapHeight: 700
OS2XHeight: 500
OS2Vendor: 'PfEd'
MarkAttachClasses: 1
DEI: 91125

StartChar: A
Encoding: 65 65 0
GlifName: A_
Width: 571
Flags: W
HStem: 0 21G<10 80.7561 496.902 562> 205 60<200 446> 680 20G<346.114 416.286>
VStem: 501 61<0 61>
LayerCount: 2
Fore
SplineSet
200 265 m 1
 446 265 l 1
 373 619 l 1
 200 265 l 1
171 205 m 1
 71 0 l 1
 10 0 l 1
 356 700 l 1
 412 700 l 1
 562 0 l 1
 501 0 l 1
 459 205 l 1
 171 205 l 1
EndSplineSet
Validated: 1
EndChar

StartChar: B
Encoding: 66 66 1
GlifName: B_
Width: 593
Flags: W
HStem: 0 62<161 424.186> 326 62<207 434.754> 638 62<242 463.835>
LayerCount: 2
Fore
SplineSet
198 326 m 1
 161 62 l 1
 354 62 l 2
 388 62 419 75 447 101 c 0
 475 127 493 158 498 194 c 0
 503 230 495 261 474 287 c 0
 453 313 425 326 391 326 c 2
 198 326 l 1
242 638 m 1
 207 388 l 1
 365 388 l 2
 398 388 427 400 454 424 c 0
 481 448 496 478 501 513 c 0
 506 548 499 578 479 602 c 0
 459 626 433 638 400 638 c 2
 242 638 l 1
193 700 m 1
 409 700 l 2
 458 700 497 682 527 645 c 0
 557 608 567 564 560 513 c 0
 552 454 524 406 476 369 c 1
 505 353 527 329 542 298 c 0
 557 267 561 232 556 194 c 0
 549 141 524 95 483 57 c 0
 442 19 396 0 345 0 c 2
 95 0 l 1
 193 700 l 1
EndSplineSet
Validated: 33
EndChar

StartChar: C
Encoding: 67 67 2
GlifName: C_
Width: 644
Flags: W
HStem: -12 60<274.09 481.511> 652 60<352.899 560.716>
LayerCount: 2
Fore
SplineSet
469 712 m 0
 517 712 560 702 598 682 c 0
 636 662 666 635 690 600 c 1
 643 556 l 1
 601 620 541 652 461 652 c 0
 384 652 317 623 259 564 c 0
 201 505 166 434 154 350 c 0
 142 266 158 195 199 136 c 0
 240 77 299 48 376 48 c 0
 456 48 525 80 585 144 c 1
 620 100 l 1
 586 65 547 38 504 18 c 0
 461 -2 415 -12 367 -12 c 0
 273 -12 201 23 151 93 c 0
 101 163 83 249 97 350 c 0
 111 451 154 537 224 607 c 0
 294 677 375 712 469 712 c 0
EndSplineSet
Validated: 33
EndChar

StartChar: D
Encoding: 68 68 3
GlifName: D_
Width: 648
Flags: W
HStem: 0 60<160 384.259> 640 60<242 461.75>
LayerCount: 2
Fore
SplineSet
359 640 m 2
 242 640 l 1
 160 60 l 1
 277 60 l 2
 353 60 422 88 484 145 c 0
 546 202 583 270 594 350 c 0
 605 430 588 498 542 555 c 0
 496 612 435 640 359 640 c 2
367 700 m 2
 459 700 533 666 588 598 c 0
 643 530 665 447 651 350 c 0
 637 253 593 170 518 102 c 0
 443 34 361 0 269 0 c 2
 95 0 l 1
 193 700 l 1
 367 700 l 2
EndSplineSet
Validated: 33
EndChar

StartChar: E
Encoding: 69 69 4
GlifName: E_
Width: 563
Flags: W
HStem: 0 60<160 478> 329 60<207 463> 640 60<242 568>
LayerCount: 2
Fore
SplineSet
95 0 m 1
 193 700 l 1
 576 700 l 1
 568 640 l 1
 242 640 l 1
 207 389 l 1
 472 389 l 1
 463 329 l 1
 198 329 l 1
 160 60 l 1
 486 60 l 1
 478 0 l 1
 95 0 l 1
EndSplineSet
Validated: 1
EndChar

StartChar: G
Encoding: 71 71 5
GlifName: G_
Width: 727
Flags: W
HStem: -12 60<273.59 481.77> 320 60<506 676> 652 60<352.195 560.059>
CounterMasks: 1 e0
LayerCount: 2
Fore
SplineSet
469 712 m 0
 517 712 559 702 597 682 c 0
 635 662 666 635 690 600 c 1
 643 556 l 1
 601 620 540 652 460 652 c 0
 383 652 316 623 258 564 c 0
 200 505 166 434 154 350 c 0
 142 266 157 195 198 136 c 0
 239 77 298 48 375 48 c 0
 455 48 525 80 585 144 c 0
 631 193 661 252 676 320 c 1
 497 320 l 1
 506 380 l 1
 743 380 l 1
 739 350 l 2
 725 252 685 169 619 100 c 0
 585 65 546 38 503 18 c 0
 460 -2 414 -12 367 -12 c 0
 273 -12 201 23 151 93 c 0
 101 163 83 249 97 350 c 0
 111 451 153 537 223 607 c 0
 293 677 375 712 469 712 c 0
EndSplineSet
Validated: 33
EndChar

StartChar: H
Encoding: 72 72 6
GlifName: H_
Width: 690
Flags: W
HStem: 0 21G<95 154.84 539 598.8> 331 60<207 585> 680 20G<190.2 250 634.217 694>
VStem: 95 57<0 57> 193 57<643 700> 539 57<0 57> 637 57<643 700>
LayerCount: 2
Fore
SplineSet
95 0 m 1
 193 700 l 1
 250 700 l 1
 207 391 l 1
 594 391 l 1
 637 700 l 1
 694 700 l 1
 596 0 l 1
 539 0 l 1
 585 331 l 1
 199 331 l 1
 152 0 l 1
 95 0 l 1
EndSplineSet
Validated: 1
EndChar

StartChar: I
Encoding: 73 73 7
GlifName: I_
Width: 247
Flags: W
HStem: 0 21G<95 154.8> 680 20G<190.2 250>
VStem: 95 57<0 57> 193 57<643 700>
LayerCount: 2
Fore
SplineSet
95 0 m 1
 193 700 l 1
 250 700 l 1
 152 0 l 1
 95 0 l 1
EndSplineSet
Validated: 1
EndChar

StartChar: J
Encoding: 74 74 8
GlifName: J_
Width: 382
Flags: W
HStem: -11 60<71.786 200.433> 680 20G<336.175 396>
VStem: 339 57<643 700>
LayerCount: 2
Fore
SplineSet
339 700 m 1
 396 700 l 1
 321 169 l 2
 314 119 291 77 253 42 c 0
 215 7 172 -11 125 -11 c 0
 78 -11 40 7 12 42 c 1
 58 84 l 1
 77 61 102 49 133 49 c 0
 163 49 192 61 218 85 c 0
 244 109 259 137 264 169 c 2
 339 700 l 1
EndSplineSet
Validated: 1
EndChar

StartChar: K
Encoding: 75 75 9
GlifName: K_
Width: 558
Flags: W
HStem: 0 21G<95 154.794 467.139 554> 680 20G<190.2 250 543.71 643>
VStem: 95 57<0 57> 193 57<643 700>
LayerCount: 2
Fore
SplineSet
95 0 m 1
 193 700 l 1
 250 700 l 1
 202 359 l 1
 565 700 l 1
 643 700 l 1
 308 383 l 1
 554 0 l 1
 480 0 l 1
 262 339 l 1
 190 272 l 1
 152 0 l 1
 95 0 l 1
EndSplineSet
Validated: 1
EndChar

StartChar: L
Encoding: 76 76 10
GlifName: L_
Width: 487
Flags: W
HStem: 0 60<160 478> 680 20G<190.2 250>
VStem: 193 57<643 700>
LayerCount: 2
Fore
SplineSet
95 0 m 1
 193 700 l 1
 250 700 l 1
 160 60 l 1
 486 60 l 1
 478 0 l 1
 95 0 l 1
EndSplineSet
Validated: 1
EndChar

StartChar: M
Encoding: 77 77 11
GlifName: M_
Width: 747
Flags: W
HStem: 0 21G<12 75.172 677.46 736> 680 20G<220.857 295.076 644.248 717.543>
VStem: 12 57<0 57> 662 55<442.105 593> 678 58<0 257.895>
LayerCount: 2
Fore
SplineSet
227 700 m 1xf0
 291 700 l 1
 398 175 l 1
 654 700 l 1
 717 700 l 1xf0
 736 0 l 1
 678 0 l 1xe8
 662 593 l 1
 419 93 l 1
 355 93 l 1
 252 593 l 1
 69 0 l 1
 12 0 l 1
 227 700 l 1xf0
EndSplineSet
Validated: 1
EndChar

StartChar: N
Encoding: 78 78 12
GlifName: N_
Width: 697
Flags: W
HStem: 0 21G<95 154.795 534.562 604.829> 680 20G<190.2 260.438 641.172 701>
VStem: 95 57<0 57> 644 57<643 700>
LayerCount: 2
Fore
SplineSet
193 700 m 1
 250 700 l 1
 560 106 l 1
 644 700 l 1
 701 700 l 1
 602 0 l 1
 545 0 l 1
 235 594 l 1
 152 0 l 1
 95 0 l 1
 193 700 l 1
EndSplineSet
Validated: 1
EndChar

StartChar: O
Encoding: 79 79 13
GlifName: O_
Width: 737
Flags: W
HStem: -12 60<273.59 481.343> 652 60<352.195 561.91>
LayerCount: 2
Fore
SplineSet
460 652 m 0
 383 652 316 623 258 564 c 0
 200 505 166 434 154 350 c 0
 142 266 157 195 198 136 c 0
 239 77 298 48 375 48 c 0
 452 48 519 77 577 136 c 0
 635 195 670 266 682 350 c 0
 694 434 678 505 637 564 c 0
 596 623 537 652 460 652 c 0
469 712 m 0
 563 712 635 677 685 607 c 0
 735 537 753 451 739 350 c 0
 725 249 683 163 613 93 c 0
 543 23 461 -12 367 -12 c 0
 273 -12 201 23 151 93 c 0
 101 163 83 249 97 350 c 0
 111 451 153 537 223 607 c 0
 293 677 375 712 469 712 c 0
EndSplineSet
Validated: 33
EndChar

StartChar: P
Encoding: 80 80 14
GlifName: P_
Width: 539
Flags: W
HStem: 0 21G<95 154.782> 266 60<198 428.46> 640 60<242 466.955>
VStem: 95 57<0 57>
LayerCount: 2
Fore
SplineSet
242 640 m 1
 198 326 l 1
 351 326 l 2
 392 326 428 341 462 372 c 0
 496 403 516 440 522 483 c 0
 528 526 518 563 493 594 c 0
 468 625 436 640 395 640 c 2
 242 640 l 1
193 700 m 1
 403 700 l 2
 460 700 506 678 540 636 c 0
 574 594 587 543 579 483 c 0
 571 423 543 372 497 330 c 0
 451 288 399 266 342 266 c 2
 189 266 l 1
 152 0 l 1
 95 0 l 1
 193 700 l 1
EndSplineSet
Validated: 33
EndChar

StartChar: Q
Encoding: 81 81 15
GlifName: Q_
Width: 737
Flags: W
HStem: -12 60<273.59 481.328> 652 60<352.195 561.91>
LayerCount: 2
Fore
SplineSet
460 652 m 0
 383 652 316 623 258 564 c 0
 200 505 166 434 154 350 c 0
 142 266 157 195 198 136 c 0
 239 77 298 48 375 48 c 0
 439 48 498 69 549 110 c 1
 487 186 l 1
 534 228 l 1
 594 154 l 1
 642 209 671 274 682 350 c 0
 694 434 678 505 637 564 c 0
 596 623 537 652 460 652 c 0
469 712 m 0
 563 712 635 677 685 607 c 0
 735 537 753 451 739 350 c 0
 726 257 689 178 629 111 c 1
 694 30 l 1
 648 -12 l 1
 584 67 l 1
 521 14 448 -12 367 -12 c 0
 273 -12 201 23 151 93 c 0
 101 163 83 249 97 350 c 0
 111 451 153 537 223 607 c 0
 293 677 375 712 469 712 c 0
EndSplineSet
Validated: 33
EndChar

StartChar: R
Encoding: 82 82 16
GlifName: R_
Width: 558
Flags: W
HStem: 0 21G<95 154.8 441.933 511> 300 60<203 357> 640 60<242 478.215>
VStem: 95 57<0 57> 448 63<0 63>
LayerCount: 2
Fore
SplineSet
242 640 m 1
 203 360 l 1
 372 360 l 2
 408 360 441 374 471 402 c 0
 501 430 519 462 524 500 c 0
 529 538 521 570 499 598 c 0
 477 626 447 640 411 640 c 2
 242 640 l 1
193 700 m 1
 419 700 l 2
 472 700 514 681 546 642 c 0
 578 603 589 555 581 500 c 0
 575 456 556 415 526 380 c 0
 496 345 460 321 418 309 c 1
 511 0 l 1
 448 0 l 1
 357 300 l 1
 194 300 l 1
 152 0 l 1
 95 0 l 1
 193 700 l 1
EndSplineSet
Validated: 33
EndChar

StartChar: S
Encoding: 83 83 17
GlifName: S_
Width: 512
Flags: W
HStem: -12 60<178.786 340.424> 652 60<256.509 419.445>
VStem: 70 57<98.8 129.579> 457 57<590.421 616.971>
LayerCount: 2
Fore
SplineSet
350 712 m 0
 395 712 432 701 460 680 c 0
 488 659 506 630 514 593 c 1
 457 572 l 1
 452 597 440 617 420 631 c 0
 400 645 374 652 341 652 c 0
 300 652 267 641 239 618 c 0
 211 595 196 566 191 531 c 0
 187 502 192 479 207 460 c 0
 226 436 259 419 307 410 c 0
 367 399 414 375 448 338 c 0
 482 301 496 255 488 199 c 0
 480 140 452 91 406 50 c 0
 360 9 308 -12 248 -12 c 0
 202 -12 163 1 131 26 c 0
 99 51 79 85 70 127 c 1
 127 148 l 1
 133 118 148 93 171 75 c 0
 194 57 223 48 257 48 c 0
 301 48 339 63 372 92 c 0
 405 121 425 157 431 199 c 0
 437 239 427 272 402 298 c 0
 377 324 342 342 299 350 c 0
 243 361 200 381 169 410 c 0
 138 439 127 480 134 531 c 0
 141 582 164 625 205 660 c 0
 246 695 294 712 350 712 c 0
EndSplineSet
Validated: 33
EndChar

StartChar: T
Encoding: 84 84 18
GlifName: T_
Width: 513
Flags: W
HStem: 0 21G<228 287.812> 640 60<108 318 375 593>
VStem: 228 57<0 57>
LayerCount: 2
Fore
SplineSet
108 700 m 1
 602 700 l 1
 593 640 l 1
 375 640 l 1
 285 0 l 1
 228 0 l 1
 318 640 l 1
 99 640 l 1
 108 700 l 1
EndSplineSet
Validated: 1
EndChar

StartChar: U
Encoding: 85 85 19
GlifName: U_
Width: 673
Flags: W
HStem: -12 60<260.388 432.124> 680 20G<181.177 241 626.225 686>
VStem: 184 57<643 700> 629 57<643 700>
LayerCount: 2
Fore
SplineSet
184 700 m 1
 241 700 l 1
 182 282 l 2
 172 212 183 156 214 113 c 0
 245 70 289 48 344 48 c 0
 399 48 448 70 491 113 c 0
 534 156 561 212 571 282 c 2
 629 700 l 1
 686 700 l 1
 628 282 l 2
 616 194 581 124 526 70 c 0
 471 16 407 -12 335 -12 c 0
 263 -12 207 16 167 70 c 0
 127 124 113 194 125 282 c 2
 184 700 l 1
EndSplineSet
Validated: 33
EndChar

StartChar: V
Encoding: 86 86 20
GlifName: V_
Width: 586
Flags: W
HStem: 0 21G<257.6 332.029> 680 20G<108 173.383 601.032 673>
VStem: 108 61<639 700>
LayerCount: 2
Fore
SplineSet
108 700 m 1
 169 700 l 1
 304 84 l 1
 611 700 l 1
 673 700 l 1
 322 0 l 1
 262 0 l 1
 108 700 l 1
EndSplineSet
Validated: 1
EndChar

StartChar: W
Encoding: 87 87 21
GlifName: W_
Width: 866
Flags: W
HStem: 0 21G<204.143 275.426 597.157 668.429> 680 20G<107 171.799 492.602 564.799 885.602 955>
VStem: 107 62<638 700>
LayerCount: 2
Fore
SplineSet
894 700 m 1
 955 700 l 1
 660 0 l 1
 600 0 l 1
 516 591 l 1
 267 0 l 1
 207 0 l 1
 107 700 l 1
 169 700 l 1
 252 107 l 1
 501 700 l 1
 562 700 l 1
 645 107 l 1
 894 700 l 1
EndSplineSet
Validated: 1
EndChar

StartChar: X
Encoding: 88 88 22
GlifName: X_
Width: 515
Flags: W
HStem: 0 21G<10 93.0508 428.644 506> 680 20G<108 185.424 521.949 605>
LayerCount: 2
Fore
SplineSet
537 700 m 1
 605 700 l 1
 341 350 l 1
 506 0 l 1
 438 0 l 1
 300 295 l 1
 78 0 l 1
 10 0 l 1
 273 350 l 1
 108 700 l 1
 176 700 l 1
 315 405 l 1
 537 700 l 1
EndSplineSet
Validated: 1
EndChar

StartChar: Y
Encoding: 89 89 23
GlifName: Y_
Width: 499
Flags: W
HStem: 0 21G<221 280.804> 680 20G<108 183.387 507.065 589>
VStem: 221 57<0 57>
LayerCount: 2
Fore
SplineSet
108 700 m 1
 175 700 l 1
 305 390 l 1
 521 700 l 1
 589 700 l 1
 323 321 l 5
 278 0 l 1
 221 0 l 1
 266 321 l 1
 108 700 l 1
EndSplineSet
Validated: 1
EndChar

StartChar: Z
Encoding: 90 90 24
GlifName: Z_
Width: 572
Flags: W
HStem: 0 60<127 522> 640 60<149 544>
LayerCount: 2
Fore
SplineSet
48 0 m 1
 56 60 l 1
 544 640 l 1
 140 640 l 1
 149 700 l 1
 624 700 l 1
 615 640 l 1
 127 60 l 1
 531 60 l 1
 522 0 l 1
 48 0 l 1
EndSplineSet
Validated: 1
EndChar

StartChar: F
Encoding: 70 70 25
GlifName: F_
Width: 512
Flags: W
HStem: 0 21G<95 154.83> 318 60<205 466> 640 60<242 568>
VStem: 95 57<0 57>
LayerCount: 2
Fore
SplineSet
95 0 m 1
 193 700 l 1
 576 700 l 1
 568 640 l 1
 242 640 l 1
 205 378 l 1
 475 378 l 1
 466 318 l 1
 197 318 l 1
 152 0 l 1
 95 0 l 1
EndSplineSet
Validated: 1
EndChar

StartChar: a
Encoding: 97 97 26
GlifName: a
Width: 572
Flags: W
HStem: -12 60<201.813 366.765> 0 21G<445 504.8> 452 60<252.959 417.09> 480 20G<512.176 572>
VStem: 445 57<0 57> 515 57<443 500>
LayerCount: 2
Fore
SplineSet
515 500 m 1x1c
 572 500 l 1
 502 0 l 1
 445 0 l 1x5c
 457 85 l 1
 451 77 445 69 438 62 c 0
 394 13 339 -12 273 -12 c 0
 206 -12 154 13 117 64 c 0
 80 115 68 177 78 250 c 0
 88 323 119 385 170 436 c 0
 221 487 280 512 347 512 c 0xac
 413 512 461 487 491 438 c 0
 495 431 499 423 503 415 c 1
 515 500 l 1x1c
338 452 m 0xac
 286 452 242 432 204 393 c 0
 166 354 143 307 135 250 c 0
 127 193 136 146 163 107 c 0
 190 68 230 48 282 48 c 0
 333 48 377 68 413 106 c 0
 449 144 472 193 480 250 c 0
 488 307 479 356 454 394 c 0
 429 432 389 452 338 452 c 0xac
EndSplineSet
Validated: 33
EndChar

StartChar: b
Encoding: 98 98 27
GlifName: b
Width: 572
Flags: W
HStem: -12 60<225.91 390.479> 0 21G<71 130.824> 452 60<276.235 441.544> 680 20G<167.171 227>
VStem: 71 57<0 57> 170 57<643 700>
LayerCount: 2
Fore
SplineSet
361 452 m 0xbc
 310 452 266 432 230 394 c 0
 194 356 171 307 163 250 c 0
 155 193 164 144 189 106 c 0
 214 68 254 48 305 48 c 0
 357 48 401 68 439 107 c 0
 477 146 500 193 508 250 c 0
 516 307 507 354 480 393 c 0
 453 432 413 452 361 452 c 0xbc
370 512 m 0
 438 512 490 487 526 436 c 0
 562 385 575 324 565 250 c 0
 555 176 525 115 474 64 c 0
 423 13 364 -12 296 -12 c 0xbc
 230 -12 182 13 152 62 c 0
 148 69 144 77 140 85 c 1
 128 0 l 1
 71 0 l 1x7c
 170 700 l 1
 227 700 l 1
 187 415 l 1
 193 423 199 431 205 438 c 0
 249 487 304 512 370 512 c 0
EndSplineSet
Validated: 33
EndChar

StartChar: c
Encoding: 99 99 28
GlifName: c
Width: 474
Flags: W
HStem: -12 60<201.813 367.361> 452 60<252.709 417.803>
LayerCount: 2
Fore
SplineSet
347 512 m 0
 414 512 465 487 502 437 c 1
 457 393 l 1
 429 432 390 452 338 452 c 0
 286 452 242 432 204 393 c 0
 166 354 143 307 135 250 c 0
 127 193 136 146 163 107 c 0
 190 68 230 48 282 48 c 0
 334 48 379 68 417 107 c 1
 450 63 l 1
 399 13 340 -12 273 -12 c 0
 206 -12 154 13 117 64 c 0
 80 115 68 177 78 250 c 0
 88 323 118 385 169 436 c 0
 220 487 280 512 347 512 c 0
EndSplineSet
Validated: 33
EndChar

StartChar: d
Encoding: 100 100 29
GlifName: d
Width: 572
Flags: W
HStem: -12 60<201.456 366.765> 452 60<252.521 417.09>
VStem: 445 57<0 57> 543 57<643 700>
LayerCount: 2
Fore
SplineSet
338 452 m 0
 389 452 429 432 454 394 c 0
 479 356 488 307 480 250 c 0
 472 193 449 144 413 106 c 0
 377 68 333 48 282 48 c 0
 230 48 190 68 163 107 c 0
 136 146 127 193 135 250 c 0
 143 307 166 354 204 393 c 0
 242 432 286 452 338 452 c 0
347 512 m 0
 279 512 220 487 169 436 c 0
 118 385 88 324 78 250 c 0
 68 176 81 115 117 64 c 0
 153 13 205 -12 273 -12 c 0
 339 -12 394 13 438 62 c 0
 444 69 451 77 457 85 c 1
 445 0 l 1
 502 0 l 1
 600 700 l 1
 543 700 l 1
 503 415 l 1
 499 423 495 431 491 438 c 0
 461 487 413 512 347 512 c 0
EndSplineSet
Validated: 41
EndChar

StartChar: e
Encoding: 101 101 30
GlifName: e
Width: 521
Flags: W
HStem: -12 60<203.171 388.141> 220 60<141 469.497> 452 60<252.719 414.247>
CounterMasks: 1 e0
LayerCount: 2
Fore
SplineSet
519 220 m 1
 132 220 l 1
 131 170 144 129 171 97 c 0
 198 65 235 48 282 48 c 0
 348 48 402 68 445 107 c 1
 478 63 l 1
 424 13 355 -12 273 -12 c 0
 206 -12 154 13 117 64 c 0
 80 115 68 177 78 250 c 0
 88 323 119 385 170 436 c 0
 221 487 280 512 347 512 c 0
 413 512 462 488 493 438 c 0
 524 388 534 325 523 250 c 2
 519 220 l 1
338 452 m 0
 291 452 250 435 214 403 c 0
 178 371 154 330 141 280 c 1
 469 280 l 1
 472 331 462 372 440 404 c 0
 418 436 384 452 338 452 c 0
EndSplineSet
Validated: 33
EndChar

StartChar: f
Encoding: 102 102 31
GlifName: f
Width: 322
Flags: W
HStem: 0 21G<119 178.812> 441 59<99 181 246 379> 652 60<298.56 409>
VStem: 119 57<0 57>
LayerCount: 2
Fore
SplineSet
368 712 m 2
 417 712 l 1
 409 652 l 1
 360 652 l 2
 335 652 311 643 290 624 c 0
 269 605 258 582 254 555 c 2
 246 500 l 1
 388 500 l 1
 379 441 l 1
 238 441 l 1
 176 0 l 1
 119 0 l 1
 181 441 l 1
 90 441 l 1
 99 500 l 1
 189 500 l 1
 197 555 l 2
 203 598 223 635 256 666 c 0
 289 697 327 712 368 712 c 2
EndSplineSet
Validated: 1
EndChar

StartChar: g
Encoding: 103 103 32
GlifName: g
Width: 572
Flags: W
HStem: -212 55<143.961 339.143> -12 60<201.813 366.765> 452 60<252.959 417.09> 480 20G<512.176 572>
VStem: 515 57<443 500>
LayerCount: 2
Fore
SplineSet
347 512 m 0xe8
 413 512 461 487 491 438 c 0
 495 431 499 423 503 415 c 1
 515 500 l 1
 572 500 l 1xd8
 508 46 l 2
 498 -29 468 -92 418 -140 c 0
 368 -188 310 -212 243 -212 c 0
 181 -212 125 -195 76 -162 c 1
 107 -114 l 1
 145 -143 194 -157 251 -157 c 0
 307 -157 351 -137 386 -98 c 0
 421 -59 443 -11 451 46 c 0
 453 62 455 69 457 85 c 1
 451 77 445 69 438 62 c 0
 394 13 339 -12 273 -12 c 0
 206 -12 154 13 117 64 c 0
 80 115 68 177 78 250 c 0
 88 323 119 385 170 436 c 0
 221 487 280 512 347 512 c 0xe8
338 452 m 0xe8
 286 452 242 432 204 393 c 0
 166 354 143 307 135 250 c 0
 127 193 136 146 163 107 c 0
 190 68 230 48 282 48 c 0
 333 48 377 68 413 106 c 0
 449 144 472 193 480 250 c 0
 488 307 479 356 454 394 c 0
 429 432 389 452 338 452 c 0xe8
EndSplineSet
Validated: 33
EndChar

StartChar: h
Encoding: 104 104 33
GlifName: h
Width: 526
Flags: W
HStem: 0 21G<71 130.836 412 471.836> 452 60<260.014 401.387> 680 20G<167.171 227>
VStem: 71 57<0 57> 170 57<643 700> 412 57<0 57>
LayerCount: 2
Fore
SplineSet
469 0 m 1
 412 0 l 1
 450 268 l 2
 458 325 450 369 428 402 c 0
 406 435 375 452 334 452 c 0
 293 452 257 435 225 402 c 0
 193 369 174 325 166 268 c 2
 128 0 l 5
 71 0 l 5
 170 700 l 1
 227 700 l 1
 189 432 l 1
 193 437 196 442 200 446 c 0
 239 490 287 512 342 512 c 0
 399 512 443 490 475 445 c 0
 507 400 517 341 507 268 c 2
 469 0 l 1
EndSplineSet
Validated: 33
EndChar

StartChar: i
Encoding: 105 105 34
GlifName: i
Width: 209
Flags: W
HStem: 0 21G<75 134.8> 480 20G<142.2 202> 630 80<168.283 229.717>
VStem: 75 57<0 57> 145 57<443 500>
LayerCount: 2
Fore
SplineSet
75 0 m 1
 145 500 l 1
 202 500 l 1
 132 0 l 1
 75 0 l 1
237 670 m 0
 235 659 230 650 222 642 c 0
 214 634 204 630 193 630 c 0
 182 630 174 634 168 642 c 0
 162 650 159 659 161 670 c 0
 163 681 168 690 176 698 c 0
 184 706 193 710 204 710 c 0
 215 710 224 706 230 698 c 0
 236 690 239 681 237 670 c 0
EndSplineSet
Validated: 1
EndChar

StartChar: j
Encoding: 106 106 35
GlifName: j
Width: 226
Flags: W
HStem: -215 60<-69 6.8927> 480 20G<160.199 220> 632 80<185.283 246.717>
VStem: 163 57<443 500>
LayerCount: 2
Fore
SplineSet
163 500 m 5
 220 500 l 5
 149 -7 l 6
 141 -64 115 -113 71 -154 c 4
 27 -195 -24 -215 -78 -215 c 5
 -69 -155 l 5
 -30 -155 4 -141 36 -112 c 4
 68 -83 86 -48 92 -7 c 6
 163 500 l 5
254 672 m 4
 252 661 247 652 239 644 c 4
 231 636 221 632 210 632 c 4
 199 632 191 636 185 644 c 4
 179 652 176 661 178 672 c 4
 180 683 185 692 193 700 c 4
 201 708 211 712 222 712 c 4
 233 712 241 708 247 700 c 4
 253 692 256 683 254 672 c 4
EndSplineSet
Validated: 1
EndChar

StartChar: k
Encoding: 107 107 36
GlifName: k
Width: 441
Flags: W
HStem: 0 21G<71 130.857 361.884 442> 480 20G<395.912 495> 680 20G<167.171 227>
VStem: 71 57<0 57> 170 57<643 700>
LayerCount: 2
Fore
SplineSet
71 0 m 1
 170 700 l 1
 227 700 l 1
 165 261 l 1
 417 500 l 1
 495 500 l 1
 288 303 l 1
 442 0 l 1
 372 0 l 1
 241 259 l 1
 153 175 l 1
 128 0 l 1
 71 0 l 1
EndSplineSet
Validated: 1
EndChar

StartChar: l
Encoding: 108 108 37
GlifName: l
Width: 199
Flags: W
HStem: 0 21G<71 130.829> 680 20G<167.171 227>
VStem: 71 57<0 57> 170 57<643 700>
LayerCount: 2
Fore
SplineSet
170 700 m 5
 227 700 l 1
 128 0 l 1
 71 0 l 1
 170 700 l 5
EndSplineSet
Validated: 1
EndChar

StartChar: m
Encoding: 109 109 38
GlifName: m
Width: 829
Flags: W
HStem: 0 21G<71 130.836 393 452.836 715 774.836> 452 60<252.24 389.622 574.24 711.622> 480 20G<139.16 199>
VStem: 71 57<0 57> 142 57<443 500> 393 57<0 57> 715 57<0 57>
LayerCount: 2
Fore
SplineSet
772 0 m 1xde
 715 0 l 1
 753 268 l 2
 761 325 755 370 735 403 c 0
 715 436 685 452 646 452 c 0
 607 452 573 436 544 403 c 0
 515 370 496 325 488 268 c 2
 450 0 l 1
 393 0 l 1
 431 268 l 2
 439 325 433 370 413 403 c 0
 393 436 363 452 324 452 c 0xde
 285 452 251 436 222 403 c 0
 193 370 174 325 166 268 c 2
 128 0 l 1
 71 0 l 1
 142 500 l 1
 199 500 l 1xbe
 190 437 l 1
 192 440 194 443 197 446 c 0
 234 490 279 512 333 512 c 0
 388 512 429 490 459 446 c 0
 470 430 479 411 484 391 c 1
 494 412 505 430 519 446 c 0
 556 490 601 512 655 512 c 0
 710 512 751 490 781 446 c 0
 811 402 820 342 810 268 c 2
 772 0 l 1xde
EndSplineSet
Validated: 33
EndChar

StartChar: n
Encoding: 110 110 39
GlifName: n
Width: 526
Flags: W
HStem: 0 21G<71 130.836 412 471.836> 452 60<260.014 401.387> 480 20G<139.16 199>
VStem: 71 57<0 57> 142 57<443 500> 412 57<0 57>
LayerCount: 2
Fore
SplineSet
469 0 m 1xdc
 412 0 l 1
 450 268 l 2
 458 325 450 369 428 402 c 0
 406 435 375 452 334 452 c 0xdc
 293 452 257 435 225 402 c 0
 193 369 174 325 166 268 c 2
 128 0 l 5
 71 0 l 5
 142 500 l 1
 199 500 l 1xbc
 189 432 l 1
 193 437 196 442 200 446 c 0
 239 490 287 512 342 512 c 0
 399 512 443 490 475 445 c 0
 507 400 517 341 507 268 c 2
 469 0 l 1xdc
EndSplineSet
Validated: 33
EndChar

StartChar: o
Encoding: 111 111 40
GlifName: o
Width: 550
Flags: W
HStem: -12 60<201.813 367.611> 452 60<252.959 418.187>
LayerCount: 2
Fore
SplineSet
338 452 m 0
 286 452 242 432 204 393 c 0
 166 354 143 307 135 250 c 0
 127 193 136 146 163 107 c 0
 190 68 230 48 282 48 c 0
 334 48 379 68 417 107 c 0
 455 146 477 193 485 250 c 0
 493 307 484 354 457 393 c 0
 430 432 390 452 338 452 c 0
347 512 m 0
 414 512 466 487 503 436 c 0
 540 385 552 323 542 250 c 0
 532 177 502 115 451 64 c 0
 400 13 340 -12 273 -12 c 0
 206 -12 154 13 117 64 c 0
 80 115 68 177 78 250 c 0
 88 323 119 385 170 436 c 0
 221 487 280 512 347 512 c 0
EndSplineSet
Validated: 33
EndChar

StartChar: p
Encoding: 112 112 41
GlifName: p
Width: 577
Flags: W
HStem: -12 60<229.53 395.048> 452 60<281.235 444.918>
VStem: 48 57<-200 -143> 146 57<443 500>
LayerCount: 2
Fore
SplineSet
203 500 m 1
 146 500 l 1
 48 -200 l 1
 105 -200 l 1
 145 85 l 1
 149 77 153 69 157 62 c 0
 187 13 235 -12 301 -12 c 0
 369 -12 427 13 478 64 c 0
 529 115 560 176 570 250 c 0
 580 324 567 385 531 436 c 0
 495 487 443 512 375 512 c 0
 309 512 254 487 210 438 c 0
 204 431 197 423 191 415 c 1
 203 500 l 1
309 48 m 0
 258 48 219 68 194 106 c 0
 169 144 160 193 168 250 c 0
 176 307 199 356 235 394 c 0
 271 432 315 452 366 452 c 0
 418 452 457 432 484 393 c 0
 511 354 521 307 513 250 c 0
 505 193 482 146 444 107 c 0
 406 68 361 48 309 48 c 0
EndSplineSet
Validated: 41
EndChar

StartChar: q
Encoding: 113 113 42
GlifName: q
Width: 563
Flags: W
HStem: -200 21G<416 475.829> -12 60<201.456 366.765> 452 60<252.521 417.09> 480 20G<512.176 572>
VStem: 416 57<-200 -143> 515 57<443 500>
LayerCount: 2
Fore
SplineSet
515 500 m 1xdc
 572 500 l 1xdc
 473 -200 l 1
 416 -200 l 1
 457 85 l 1
 451 77 444 69 438 62 c 0
 394 13 339 -12 273 -12 c 0
 205 -12 153 13 117 64 c 0
 81 115 68 176 78 250 c 0
 88 324 118 385 169 436 c 0
 220 487 279 512 347 512 c 0xec
 413 512 461 487 491 438 c 0
 495 431 499 423 503 415 c 1
 515 500 l 1xdc
282 48 m 0
 333 48 377 68 413 106 c 0
 449 144 472 193 480 250 c 0
 488 307 479 356 454 394 c 0
 429 432 389 452 338 452 c 0xec
 286 452 242 432 204 393 c 0
 166 354 143 307 135 250 c 0
 127 193 136 146 163 107 c 0
 190 68 230 48 282 48 c 0
EndSplineSet
Validated: 33
EndChar

StartChar: r
Encoding: 114 114 43
GlifName: r
Width: 305
Flags: W
HStem: 0 21G<71 130.836> 452 60<276.519 360> 480 20G<139.16 199>
VStem: 71 57<0 57> 142 57<443 500>
LayerCount: 2
Fore
SplineSet
142 500 m 1xb8
 199 500 l 1xb8
 188 424 l 1
 194 431 200 437 206 443 c 0
 226 462 246 477 268 488 c 0
 299 504 332 512 368 512 c 1
 360 452 l 1xd8
 314 452 272 435 234 400 c 0
 196 365 174 324 167 275 c 2
 128 0 l 1
 71 0 l 1
 142 500 l 1xb8
EndSplineSet
Validated: 1
EndChar

StartChar: s
Encoding: 115 115 44
GlifName: s
Width: 408
Flags: W
HStem: -12 60<137.175 279.07> 452 60<202.758 329.914>
LayerCount: 2
Fore
SplineSet
402 423 m 1
 345 402 l 1
 342 417 334 429 320 438 c 0
 306 447 289 452 268 452 c 0
 242 452 220 445 202 430 c 0
 184 415 175 397 172 376 c 0
 169 352 181 332 209 316 c 0
 222 309 238 303 257 297 c 0
 306 283 342 262 363 236 c 0
 384 211 391 180 386 144 c 0
 380 101 358 64 322 34 c 0
 286 4 245 -12 197 -12 c 0
 161 -12 130 -3 106 16 c 0
 82 35 64 60 55 91 c 1
 111 111 l 1
 124 69 155 48 205 48 c 0
 237 48 264 57 288 76 c 0
 312 95 325 117 329 144 c 0
 333 172 320 196 292 214 c 0
 277 224 258 232 234 239 c 0
 196 250 165 267 142 289 c 0
 119 311 110 341 115 376 c 0
 120 414 138 446 168 472 c 0
 198 498 234 512 276 512 c 0
 309 512 338 504 360 488 c 0
 382 472 396 450 402 423 c 1
EndSplineSet
Validated: 33
EndChar

StartChar: t
Encoding: 116 116 45
GlifName: t
Width: 341
Flags: W
HStem: 0 60<232.527 312> 441 59<89 166 231 375>
VStem: 196 57<599 656>
LayerCount: 2
Fore
SplineSet
196 656 m 1
 253 656 l 1
 231 500 l 1
 383 500 l 1
 375 441 l 1
 223 441 l 1
 189 199 l 2
 184 160 191 127 213 100 c 0
 235 73 264 60 301 60 c 2
 320 60 l 1
 312 0 l 1
 293 0 l 2
 241 0 199 19 167 58 c 0
 135 97 124 144 132 199 c 2
 166 441 l 1
 81 441 l 1
 89 500 l 1
 174 500 l 1
 196 656 l 1
EndSplineSet
Validated: 33
EndChar

StartChar: u
Encoding: 117 117 46
GlifName: u
Width: 512
Flags: W
HStem: -12 60<194.907 337.032> 480 20G<124.239 184 465.239 525>
VStem: 127 57<443 500> 468 57<443 500>
LayerCount: 2
Fore
SplineSet
127 500 m 1
 184 500 l 1
 147 232 l 2
 139 175 146 131 168 98 c 0
 190 65 222 48 263 48 c 0
 304 48 339 65 371 98 c 0
 403 131 423 175 431 232 c 2
 468 500 l 1
 525 500 l 1
 488 232 l 2
 478 159 450 100 406 55 c 0
 362 10 311 -12 254 -12 c 0
 197 -12 154 10 122 55 c 0
 90 100 80 159 90 232 c 2
 127 500 l 1
EndSplineSet
Validated: 33
EndChar

StartChar: v
Encoding: 118 118 47
GlifName: v
Width: 463
Flags: W
HStem: 0 21G<196.16 272.48> 480 20G<80 146.81 452.524 524>
VStem: 80 62<438 500>
LayerCount: 2
Fore
SplineSet
80 500 m 1
 142 500 l 1
 243 80 l 1
 463 500 l 1
 524 500 l 1
 262 0 l 1
 201 0 l 1
 80 500 l 1
EndSplineSet
Validated: 1
EndChar

StartChar: w
Encoding: 119 119 48
GlifName: w
Width: 722
Flags: W
HStem: 0 21G<158.72 229.681 480.708 551.68> 480 20G<80 143.235 392.392 465.235 714.392 784>
VStem: 80 60<440 500>
LayerCount: 2
Fore
SplineSet
724 500 m 1
 784 500 l 1
 542 0 l 1
 484 0 l 1
 417 407 l 1
 220 0 l 1
 162 0 l 1
 80 500 l 1
 140 500 l 1
 206 92 l 1
 402 500 l 1
 462 500 l 1
 528 92 l 1
 724 500 l 1
EndSplineSet
Validated: 1
EndChar

StartChar: x
Encoding: 120 120 49
GlifName: x
Width: 413
Flags: W
HStem: 0 21G<9 95.7143 323.796 404> 480 20G<79 158.254 389.162 474>
LayerCount: 2
Fore
SplineSet
234 196 m 1
 80 0 l 1
 9 0 l 1
 207 250 l 1
 79 500 l 1
 148 500 l 1
 249 303 l 1
 405 500 l 1
 474 500 l 1
 276 249 l 1
 404 0 l 1
 334 0 l 1
 234 196 l 1
EndSplineSet
Validated: 1
EndChar

StartChar: y
Encoding: 121 121 50
GlifName: y
Width: 480
Flags: W
HStem: -212 59<-2 104.656> 480 20G<80 147.166 469.147 541>
VStem: 80 62<438 500>
LayerCount: 2
Fore
SplineSet
80 500 m 1
 142 500 l 1
 251 78 l 1
 480 500 l 1
 541 500 l 1
 227 -80 l 2
 205 -120 175 -152 137 -176 c 0
 99 -200 60 -212 18 -212 c 2
 -11 -212 l 1
 -2 -153 l 1
 26 -153 l 2
 57 -153 86 -144 113 -127 c 0
 140 -110 162 -87 178 -57 c 2
 209 0 l 1
 80 500 l 1
EndSplineSet
Validated: 1
EndChar

StartChar: z
Encoding: 122 122 51
GlifName: z
Width: 454
Flags: W
HStem: 0 60<129 407> 440 60<118 396>
LayerCount: 2
Fore
SplineSet
48 0 m 1
 56 60 l 1
 396 440 l 1
 109 440 l 1
 118 500 l 1
 477 500 l 1
 468 440 l 1
 129 60 l 1
 415 60 l 1
 407 0 l 1
 48 0 l 1
EndSplineSet
Validated: 1
EndChar

StartChar: bracketleft
Encoding: 91 91 52
GlifName: bracketleft
Width: 300
Flags: W
LayerCount: 2
Fore
SplineSet
269 800 m 6
 252 800 237 794 223 781 c 4
 209 768 201 753 198 735 c 6
 90 -35 l 6
 87 -53 92 -68 102 -81 c 4
 112 -94 126 -100 143 -100 c 6
 210 -100 l 5
 219 -40 l 5
 151 -40 l 6
 148 -40 147 -38 147 -35 c 6
 255 735 l 6
 255 738 258 740 261 740 c 6
 328 740 l 5
 337 800 l 5
 269 800 l 6
EndSplineSet
Validated: 41
EndChar

StartChar: backslash
Encoding: 92 92 53
GlifName: backslash
Width: 341
Flags: W
LayerCount: 2
Fore
SplineSet
173 747 m 5
 117 726 l 5
 258 -84 l 5
 315 -64 l 5
 173 747 l 5
EndSplineSet
Validated: 9
EndChar

StartChar: bracketright
Encoding: 93 93 54
GlifName: bracketright
Width: 300
Flags: W
HStem: -100 60<80 154.688> 740 60<198 260.999>
LayerCount: 2
Fore
SplineSet
265 800 m 6
 282 800 296 794 306 781 c 4
 316 768 321 753 318 735 c 6
 210 -35 l 6
 207 -53 199 -68 185 -81 c 4
 171 -94 156 -100 139 -100 c 6
 71 -100 l 5
 80 -40 l 5
 147 -40 l 6
 150 -40 153 -38 153 -35 c 6
 261 735 l 6
 261 738 260 740 257 740 c 6
 190 740 l 5
 198 800 l 5
 265 800 l 6
EndSplineSet
Validated: 33
EndChar

StartChar: asciicircum
Encoding: 94 94 55
GlifName: asciicircum
Width: 514
Flags: W
HStem: 373 327
VStem: 429 62<373 435>
LayerCount: 2
Fore
SplineSet
429 373 m 1
 323 700 l 1
 387 700 l 1
 491 373 l 1
 429 373 l 1
129 373 m 1
 323 700 l 1
 387 700 l 1
 190 373 l 1
 129 373 l 1
EndSplineSet
Validated: 5
EndChar

StartChar: underscore
Encoding: 95 95 56
GlifName: underscore
Width: 456
Flags: W
HStem: -60 60<29 419>
LayerCount: 2
Fore
SplineSet
20 -60 m 1
 29 0 l 1
 428 0 l 1
 419 -60 l 1
 20 -60 l 1
EndSplineSet
Validated: 1
EndChar

StartChar: grave
Encoding: 96 96 57
GlifName: grave
Width: 194
Flags: W
HStem: 574 127
VStem: 104 172
LayerCount: 2
Fore
SplineSet
204 574 m 1
 104 701 l 1
 189 701 l 1
 276 574 l 1
 204 574 l 1
EndSplineSet
Validated: 1
EndChar

StartChar: zero
Encoding: 48 48 58
GlifName: zero
Width: 604
Flags: W
HStem: -12 60<232.34 391.597> 652 60<310.739 469.891>
LayerCount: 2
Fore
SplineSet
394 652 m 0
 361 652 330 643 301 625 c 0
 272 607 249 584 229 555 c 0
 209 526 194 493 181 458 c 0
 168 423 159 387 154 350 c 0
 149 313 147 277 150 242 c 0
 153 207 161 174 172 145 c 0
 183 116 200 93 224 75 c 0
 248 57 276 48 309 48 c 0
 342 48 372 57 401 75 c 0
 430 93 453 116 473 145 c 0
 493 174 509 207 522 242 c 0
 535 277 544 313 549 350 c 0
 554 387 555 423 552 458 c 0
 549 493 542 526 531 555 c 0
 520 584 502 607 478 625 c 0
 454 643 427 652 394 652 c 0
402 712 m 0
 456 712 501 694 536 658 c 0
 571 622 592 577 603 524 c 0
 614 471 615 413 606 350 c 0
 597 287 580 229 554 176 c 0
 528 123 494 78 449 42 c 0
 404 6 354 -12 300 -12 c 0
 246 -12 202 6 167 42 c 0
 132 78 110 123 99 176 c 0
 88 229 88 287 97 350 c 0
 106 413 122 471 148 524 c 0
 174 577 209 622 254 658 c 0
 299 694 348 712 402 712 c 0
EndSplineSet
Validated: 33
EndChar

StartChar: one
Encoding: 49 49 59
GlifName: one
Width: 385
Flags: W
HStem: 0 21G<215 274.8> 680 20G<287.519 370>
VStem: 215 57<0 57>
LayerCount: 2
Fore
SplineSet
313 700 m 1
 370 700 l 1
 272 0 l 1
 215 0 l 1
 302 622 l 1
 171 519 l 1
 141 565 l 1
 313 700 l 1
EndSplineSet
Validated: 1
EndChar

StartChar: two
Encoding: 50 50 60
GlifName: two
Width: 494
Flags: W
HStem: 0 60<113 433> 652 60<242.618 394.665>
LayerCount: 2
Fore
SplineSet
329 712 m 0
 384 712 428 692 461 651 c 0
 494 610 506 560 498 502 c 0
 491 454 462 404 409 351 c 2
 113 60 l 1
 442 60 l 1
 433 0 l 1
 28 0 l 1
 37 60 l 1
 372 388 l 2
 413 428 436 466 441 502 c 0
 447 545 439 582 416 610 c 0
 393 638 361 652 320 652 c 0
 287 652 257 642 230 622 c 0
 203 602 182 577 168 543 c 1
 116 559 l 1
 134 604 164 641 203 669 c 0
 242 697 284 712 329 712 c 0
EndSplineSet
Validated: 33
EndChar

StartChar: three
Encoding: 51 51 61
GlifName: three
Width: 514
Flags: W
HStem: -12 60<179.785 344.729> 350 60<238 378.212> 652 60<260.285 415.478>
LayerCount: 2
Fore
SplineSet
349 712 m 0
 401 712 443 695 475 661 c 0
 507 627 519 584 512 532 c 0
 508 507 499 483 483 460 c 0
 464 433 436 407 399 383 c 1
 432 363 458 337 476 305 c 0
 494 273 501 237 495 198 c 0
 487 138 458 88 410 48 c 0
 362 8 309 -12 249 -12 c 0
 210 -12 175 -2 144 17 c 0
 113 36 90 61 77 94 c 1
 130 126 l 1
 139 102 156 84 179 70 c 0
 202 56 229 48 258 48 c 0
 302 48 341 62 376 90 c 0
 411 118 432 154 438 198 c 0
 444 242 433 278 405 307 c 0
 377 336 342 350 300 350 c 2
 230 350 l 1
 238 410 l 1
 308 410 l 2
 342 411 373 422 403 445 c 0
 433 468 450 497 455 532 c 0
 460 568 452 597 429 619 c 0
 406 641 377 652 341 652 c 0
 315 652 289 646 265 633 c 0
 241 620 222 603 210 582 c 1
 165 612 l 1
 183 642 210 666 244 684 c 0
 278 702 313 712 349 712 c 0
EndSplineSet
Validated: 33
EndChar

StartChar: four
Encoding: 52 52 62
GlifName: four
Width: 547
Flags: W
HStem: 0 21G<334 393.857> 182 60<145 360 425 544> 681 20G<338.322 388.4>
VStem: 334 57<0 57> 396 57<384 441>
LayerCount: 2
Fore
SplineSet
350 701 m 1
 398 676 l 1
 145 242 l 1
 368 242 l 1
 396 441 l 1
 453 441 l 1
 425 242 l 1
 553 242 l 1
 544 182 l 1
 417 182 l 1
 391 0 l 1
 334 0 l 1
 360 182 l 1
 73 182 l 1
 82 242 l 1
 350 701 l 1
EndSplineSet
Validated: 1
EndChar

StartChar: five
Encoding: 53 53 63
GlifName: five
Width: 507
Flags: W
HStem: -12 60<176.328 334.434> 382 60<222 374.535> 640 60<250 514>
LayerCount: 2
Fore
SplineSet
201 700 m 1
 522 700 l 1
 514 640 l 1
 250 640 l 1
 222 442 l 1
 312 442 l 2
 370 441 416 418 451 373 c 0
 486 328 499 275 490 213 c 0
 481 151 453 98 405 54 c 0
 357 10 303 -12 244 -12 c 0
 206 -12 172 -2 143 18 c 0
 114 38 92 63 75 95 c 1
 124 133 l 1
 151 76 194 48 253 48 c 0
 297 48 336 64 371 96 c 0
 406 128 426 166 433 213 c 0
 439 259 431 298 406 331 c 0
 381 364 347 381 304 382 c 2
 156 382 l 1
 201 700 l 1
EndSplineSet
Validated: 33
EndChar

StartChar: six
Encoding: 54 54 64
GlifName: six
Width: 510
Flags: W
HStem: -12 60<193.344 354.112> 387 60<259.469 394.656> 692 20G<369.194 449>
LayerCount: 2
Fore
SplineSet
318 387 m 0
 273 387 233 371 197 338 c 0
 161 305 140 265 133 218 c 0
 126 171 136 130 163 97 c 0
 190 64 225 48 270 48 c 0
 315 48 356 64 392 97 c 0
 428 130 448 171 455 218 c 0
 462 265 452 305 425 338 c 0
 398 371 363 387 318 387 c 0
383 712 m 1
 449 712 l 1
 258 435 l 1
 282 443 304 447 326 447 c 0
 386 447 435 425 471 380 c 0
 507 335 521 281 512 218 c 0
 503 155 475 100 426 55 c 0
 377 10 322 -12 262 -12 c 0
 202 -12 153 10 117 55 c 0
 81 100 67 155 76 218 c 0
 82 259 96 297 120 331 c 2
 383 712 l 1
EndSplineSet
Validated: 33
EndChar

StartChar: seven
Encoding: 55 55 65
GlifName: seven
Width: 503
Flags: W
HStem: 0 21G<75 154.25> 640 60<141 500>
LayerCount: 2
Fore
SplineSet
133 640 m 1
 141 700 l 1
 573 700 l 1
 565 640 l 1
 141 0 l 1
 75 0 l 1
 500 640 l 1
 133 640 l 1
EndSplineSet
Validated: 1
EndChar

StartChar: eight
Encoding: 56 56 66
GlifName: eight
Width: 539
Flags: W
HStem: -12 60<198.582 361.802> 349 60<259.25 395.864> 652 60<285.514 431.666>
LayerCount: 2
Fore
SplineSet
319 349 m 0
 278 349 239 335 204 306 c 0
 169 277 148 242 142 198 c 0
 136 155 146 118 173 90 c 0
 200 62 236 48 277 48 c 0
 318 48 357 62 392 90 c 0
 427 118 447 155 453 198 c 0
 459 242 449 277 422 306 c 0
 395 335 360 349 319 349 c 0
361 652 m 0
 327 652 296 641 267 618 c 0
 238 595 222 567 217 532 c 0
 212 497 220 467 243 444 c 0
 266 421 294 409 327 409 c 0
 360 409 392 421 421 444 c 0
 450 467 467 497 472 532 c 0
 477 567 468 595 446 618 c 0
 424 641 395 652 361 652 c 0
370 712 m 0
 419 712 460 695 492 660 c 0
 524 625 536 583 529 532 c 0
 522 481 498 438 456 403 c 0
 446 395 436 387 426 381 c 1
 441 372 455 361 468 347 c 0
 505 307 518 257 510 198 c 0
 502 138 473 88 425 48 c 0
 377 8 325 -12 268 -12 c 0
 211 -12 165 8 128 48 c 0
 91 88 77 138 85 198 c 0
 93 257 122 307 170 347 c 0
 187 361 203 372 221 381 c 1
 213 387 205 395 197 403 c 0
 165 438 153 481 160 532 c 0
 167 583 191 625 233 660 c 0
 275 695 321 712 370 712 c 0
EndSplineSet
Validated: 33
EndChar

StartChar: nine
Encoding: 57 57 67
GlifName: nine
Width: 510
Flags: W
HStem: 0 21G<166 245.875> 253 60<213.47 349.53> 652 60<254.762 414.975>
LayerCount: 2
Fore
SplineSet
291 313 m 0
 336 313 376 329 412 362 c 0
 448 395 468 435 475 482 c 0
 482 529 472 570 445 603 c 0
 418 636 383 652 338 652 c 0
 293 652 253 636 217 603 c 0
 181 570 160 529 153 482 c 0
 146 435 156 395 183 362 c 0
 210 329 246 313 291 313 c 0
232 0 m 1
 166 0 l 1
 351 265 l 1
 327 257 304 253 282 253 c 0
 222 253 173 275 137 320 c 0
 100 365 87 418 96 482 c 0
 105 546 134 600 183 645 c 0
 232 690 287 712 347 712 c 0
 407 712 455 690 491 645 c 0
 528 600 541 546 532 482 c 0
 526 440 511 403 488 369 c 2
 232 0 l 1
EndSplineSet
Validated: 33
EndChar

StartChar: exclam
Encoding: 33 33 68
GlifName: exclam
Width: 277
Flags: W
HStem: -14 92<109.695 177.295> 680 20G<206.16 266>
VStem: 137 57<193 250> 209 57<643 700>
LayerCount: 2
Fore
SplineSet
209 700 m 5
 266 700 l 5
 194 193 l 5
 137 193 l 5
 209 700 l 5
150 78 m 4
 162 78 172 73 179 64 c 4
 186 55 189 45 187 32 c 4
 185 19 180 9 170 -0 c 4
 160 -9 149 -14 137 -14 c 4
 125 -14 115 -9 108 -0 c 4
 101 9 97 19 99 32 c 4
 101 45 107 55 117 64 c 4
 127 73 138 78 150 78 c 4
EndSplineSet
Validated: 33
EndChar

StartChar: quotedbl
Encoding: 34 34 69
GlifName: quotedbl
Width: 298
Flags: W
HStem: 510 206<153 181 271 299>
VStem: 133 204
LayerCount: 2
Fore
SplineSet
271 716 m 1
 337 716 l 1
 299 510 l 1
 251 510 l 1
 271 716 l 1
153 716 m 1
 219 716 l 1
 181 510 l 1
 133 510 l 1
 153 716 l 1
EndSplineSet
Validated: 1
EndChar

StartChar: numbersign
Encoding: 35 35 70
GlifName: numbersign
Width: 596
Flags: W
HStem: 0 21G<91 155.154 310 373.25> 208 60<57 155 232 374 450 565> 448 60<131 229 305 448 524 639> 680 20G<300.854 365 518.854 583>
VStem: 91 58<0 58> 310 57<0 57 643 700> 525 58<642 700>
LayerCount: 2
Fore
SplineSet
525 700 m 1
 583 700 l 1
 524 508 l 1
 657 508 l 1
 639 448 l 1
 505 448 l 1
 450 268 l 1
 583 268 l 1
 565 208 l 1
 432 208 l 1
 367 0 l 1
 310 0 l 1
 374 208 l 1
 213 208 l 1
 149 0 l 1
 91 0 l 1
 155 208 l 1
 39 208 l 1
 57 268 l 1
 174 268 l 1
 229 448 l 1
 112 448 l 1
 131 508 l 1
 248 508 l 1
 307 700 l 1
 365 700 l 1
 305 508 l 1
 466 508 l 1
 525 700 l 1
448 448 m 1
 287 448 l 1
 232 268 l 1
 392 268 l 1
 448 448 l 1
EndSplineSet
Validated: 1
EndChar

StartChar: dollar
Encoding: 36 36 71
GlifName: dollar
Width: 512
Flags: W
VStem: 70 57<98.8 129.579> 209 57<-91 -34> 333 57<734 791> 457 57<590.421 616.971>
LayerCount: 2
Fore
SplineSet
333 791 m 1
 390 791 l 1
 378 710 l 1
 410 706 438 697 460 680 c 0
 488 659 506 630 514 593 c 1
 457 572 l 1
 452 597 440 617 420 631 c 0
 400 645 374 652 341 652 c 0
 300 652 267 641 239 618 c 0
 211 595 196 566 191 531 c 0
 187 501 193 477 210 457 c 0
 229 435 261 419 307 410 c 0
 367 399 414 375 448 338 c 0
 482 301 496 255 488 199 c 0
 480 140 452 91 406 50 c 0
 368 16 325 -4 277 -10 c 1
 266 -91 l 1
 209 -91 l 1
 220 -10 l 1
 186 -6 156 6 131 26 c 0
 99 51 79 85 70 127 c 1
 127 148 l 1
 133 118 148 93 171 75 c 0
 194 57 223 48 257 48 c 0
 301 48 339 63 372 92 c 0
 405 121 425 157 431 199 c 0
 437 239 427 272 402 298 c 0
 377 324 342 342 299 350 c 0
 243 361 200 381 169 410 c 0
 138 439 127 480 134 531 c 0
 141 582 164 625 205 660 c 0
 239 689 277 705 321 710 c 1
 333 791 l 1
EndSplineSet
Validated: 33
EndChar

StartChar: percent
Encoding: 37 37 72
GlifName: percent
Width: 814
Flags: W
HStem: -12 60<566.951 685.376> 0 21G<184.294 225.096> 244 60<588.624 707.049> 396 60<205.643 324.207> 652 60<226.793 345.357> 680 20G<687.874 728.118>
LayerCount: 2
Fore
SplineSet
659 304 m 4xb0
 700 304 734 289 759 258 c 4
 784 227 793 189 787 146 c 4
 781 103 761 65 727 34 c 4
 693 3 656 -12 615 -12 c 4
 574 -12 540 3 515 34 c 4
 490 65 481 103 487 146 c 4
 493 189 513 227 547 258 c 4
 581 289 618 304 659 304 c 4xb0
651 244 m 4
 625 244 602 235 581 216 c 4
 560 197 548 173 544 146 c 4
 540 119 546 95 561 76 c 4
 576 57 597 48 623 48 c 4
 649 48 672 57 693 76 c 4
 714 95 726 119 730 146 c 4
 734 173 728 197 713 216 c 4
 698 235 677 244 651 244 c 4
704 700 m 5x74
 745 666 l 5
 209 0 l 5
 167 34 l 5
 704 700 l 5x74
298 712 m 4x38
 339 712 372 697 397 666 c 4
 422 635 432 597 426 554 c 4
 420 511 400 473 366 442 c 4
 332 411 294 396 253 396 c 4
 212 396 179 411 154 442 c 4
 129 473 119 511 125 554 c 4
 131 597 151 635 185 666 c 4
 219 697 257 712 298 712 c 4x38
289 652 m 4
 263 652 240 643 219 624 c 4
 198 605 186 581 182 554 c 4
 178 527 185 503 200 484 c 4
 215 465 236 456 262 456 c 4
 288 456 311 465 332 484 c 4
 353 503 365 527 369 554 c 4
 373 581 366 605 351 624 c 4
 336 643 315 652 289 652 c 4
EndSplineSet
Validated: 33
EndChar

StartChar: ampersand
Encoding: 38 38 73
GlifName: ampersand
Width: 609
Flags: W
HStem: -12 60<180.166 365.323> 0 21G<508.798 596> 652 60<299.157 420.498>
VStem: 553 57<252 309>
LayerCount: 2
Fore
SplineSet
246 -12 m 0xb0
 193 -12 150 4 118 38 c 0
 86 72 73 115 80 167 c 0
 85 202 100 236 124 269 c 0
 150 304 186 337 233 368 c 0
 268 391 297 410 318 424 c 0
 347 443 362 454 366 457 c 0
 413 492 438 526 442 559 c 0
 445 588 440 611 423 628 c 0
 406 645 385 653 360 652 c 0
 335 651 312 642 291 624 c 0
 270 606 258 585 255 561 c 0
 252 538 257 515 272 493 c 6
 596 0 l 1
 522 0 l 1x70
 221 456 l 2
 199 489 192 524 198 561 c 0
 205 604 224 640 258 669 c 0
 292 698 329 712 368 712 c 0
 412 712 447 697 472 668 c 0
 497 639 506 603 499 559 c 0
 495 534 486 509 470 486 c 0
 455 464 435 442 410 422 c 0
 395 410 376 397 352 380 c 0
 327 362 296 342 260 319 c 0
 221 294 190 268 170 241 c 0
 152 217 140 192 137 167 c 0
 132 130 142 101 166 80 c 0
 190 59 220 48 255 48 c 0
 292 48 326 54 357 66 c 0
 388 78 415 95 439 118 c 0
 491 167 529 231 553 309 c 1
 610 309 l 1
 579 208 535 130 477 76 c 0
 446 47 409 25 367 10 c 0
 325 -5 285 -12 246 -12 c 0xb0
EndSplineSet
Validated: 37
EndChar

StartChar: quotesingle
Encoding: 39 39 74
GlifName: quotesingle
Width: 180
Flags: W
HStem: 510 206<158 186>
VStem: 138 86
LayerCount: 2
Fore
SplineSet
158 716 m 1
 224 716 l 1
 186 510 l 1
 138 510 l 1
 158 716 l 1
EndSplineSet
Validated: 1
EndChar

StartChar: parenleft
Encoding: 40 40 75
GlifName: parenleft
Width: 304
Flags: W
LayerCount: 2
Fore
SplineSet
328 799 m 1
 363 758 l 1
 310 702 266 639 231 568 c 0
 196 497 174 424 163 350 c 0
 153 276 156 204 170 134 c 0
 184 64 210 0 247 -56 c 1
 201 -99 l 1
 159 -36 129 33 113 110 c 0
 97 187 94 268 106 350 c 0
 118 432 143 513 181 590 c 0
 219 667 268 736 328 799 c 1
EndSplineSet
Validated: 33
EndChar

StartChar: parenright
Encoding: 41 41 76
GlifName: parenright
Width: 304
Flags: W
LayerCount: 2
Fore
SplineSet
201 799 m 1
 243 736 273 667 289 590 c 0
 305 513 308 432 296 350 c 0
 284 268 260 187 222 110 c 0
 184 33 135 -36 75 -99 c 1
 75 -99 75 -100 41 -56 c 1
 94 0 138 64 172 134 c 0
 206 204 228 276 239 350 c 0
 249 424 247 497 232 568 c 0
 217 639 192 702 154 758 c 5
 154 758 154 757 201 799 c 1
EndSplineSet
Validated: 37
EndChar

StartChar: asterisk
Encoding: 42 42 77
GlifName: asterisk
Width: 452
Flags: W
HStem: 394 322
VStem: 298 57<659 716>
LayerCount: 2
Fore
SplineSet
146 571 m 5
 171 628 l 5
 316 577 l 5
 290 519 l 5
 146 571 l 5
211 394 m 5
 170 430 l 5
 283 566 l 5
 324 530 l 5
 211 394 l 5
403 430 m 5
 352 394 l 5
 278 530 l 5
 329 566 l 5
 403 430 l 5
457 628 m 5
 467 571 l 5
 308 519 l 5
 298 577 l 5
 457 628 l 5
298 716 m 5
 355 716 l 5
 332 548 l 5
 275 548 l 5
 298 716 l 5
EndSplineSet
Validated: 5
EndChar

StartChar: plus
Encoding: 43 43 78
GlifName: plus
Width: 589
Flags: W
HStem: 269 60<127 304 370 546>
VStem: 277 57<73 130> 340 57<466 523>
LayerCount: 2
Fore
SplineSet
340 523 m 1
 397 523 l 1
 370 329 l 1
 554 329 l 1
 546 269 l 1
 361 269 l 1
 334 73 l 1
 277 73 l 1
 304 269 l 1
 119 269 l 1
 127 329 l 1
 313 329 l 1
 340 523 l 1
EndSplineSet
Validated: 1
EndChar

StartChar: comma
Encoding: 44 44 79
GlifName: comma
Width: 193
Flags: W
HStem: -116 202
VStem: 107 58<28 86>
LayerCount: 2
Fore
SplineSet
107 86 m 5
 165 86 l 5
 154 9 127 -59 84 -116 c 5
 26 -116 l 5
 69 -55 97 12 107 86 c 5
EndSplineSet
Validated: 1
EndChar

StartChar: hyphen
Encoding: 45 45 80
GlifName: hyphen
Width: 399
Flags: W
HStem: 268 60<103 380>
VStem: 95 293
LayerCount: 2
Fore
SplineSet
95 268 m 1
 103 328 l 1
 388 328 l 1
 380 268 l 1
 95 268 l 1
EndSplineSet
Validated: 1
EndChar

StartChar: period
Encoding: 46 46 81
GlifName: period
Width: 182
Flags: W
HStem: -14 92<61.7045 129.295>
VStem: 52 87
LayerCount: 2
Fore
SplineSet
139 32 m 0
 137 19 132 9 122 -0 c 0
 112 -9 101 -14 89 -14 c 0
 77 -14 67 -9 60 -0 c 0
 53 9 50 19 52 32 c 0
 54 45 59 55 69 64 c 0
 79 73 90 78 102 78 c 0
 114 78 124 73 131 64 c 0
 138 55 141 45 139 32 c 0
EndSplineSet
Validated: 33
EndChar

StartChar: slash
Encoding: 47 47 82
GlifName: slash
Width: 338
Flags: W
LayerCount: 2
Fore
SplineSet
375 747 m 5
 426 726 l 5
 56 -84 l 5
 6 -64 l 5
 375 747 l 5
EndSplineSet
Validated: 1
EndChar

StartChar: colon
Encoding: 58 58 83
GlifName: colon
Width: 222
Flags: W
HStem: -2 92<84.7045 152.295> 410 92<140.705 208.295>
VStem: 75 143
LayerCount: 2
Fore
SplineSet
168 410 m 256
 156 410 146 415 139 424 c 0
 132 433 129 443 131 456 c 256
 133 469 138 479 148 488 c 0
 158 497 169 502 181 502 c 256
 193 502 203 497 210 488 c 0
 217 479 220 469 218 456 c 256
 216 443 211 433 201 424 c 0
 191 415 180 410 168 410 c 256
112 -2 m 256
 100 -2 90 3 83 12 c 0
 76 21 73 31 75 44 c 256
 77 57 82 67 92 76 c 0
 102 85 113 90 125 90 c 256
 137 90 147 85 154 76 c 0
 161 67 164 57 162 44 c 256
 160 31 155 21 145 12 c 0
 135 3 124 -2 112 -2 c 256
EndSplineSet
Validated: 33
EndChar

StartChar: semicolon
Encoding: 59 59 84
GlifName: semicolon
Width: 226
Flags: W
HStem: 410 92<146.695 213.305>
VStem: 107 58<28 86>
LayerCount: 2
Fore
SplineSet
107 86 m 5
 165 86 l 5
 154 9 127 -59 84 -116 c 5
 26 -116 l 5
 69 -55 97 12 107 86 c 5
174 410 m 0
 162 410 152 415 145 424 c 0
 138 433 134 443 136 456 c 0
 138 469 144 479 154 488 c 0
 164 497 174 502 186 502 c 0
 198 502 208 497 215 488 c 0
 222 479 226 469 224 456 c 0
 222 443 216 433 206 424 c 0
 196 415 186 410 174 410 c 0
EndSplineSet
Validated: 33
EndChar

StartChar: less
Encoding: 60 60 85
GlifName: less
Width: 589
Flags: W
LayerCount: 2
Fore
SplineSet
515 489 m 1
 506 423 l 1
 240 298 l 1
 471 173 l 1
 461 107 l 1
 169 265 l 1
 179 331 l 1
 515 489 l 1
EndSplineSet
Validated: 1
EndChar

StartChar: equal
Encoding: 61 61 86
GlifName: equal
Width: 589
Flags: W
HStem: 168 60<136 508> 368 60<165 536>
LayerCount: 2
Fore
SplineSet
156 368 m 1
 165 428 l 1
 545 428 l 1
 536 368 l 1
 156 368 l 1
128 168 m 1
 136 228 l 1
 516 228 l 1
 508 168 l 1
 128 168 l 1
EndSplineSet
Validated: 1
EndChar

StartChar: greater
Encoding: 62 62 87
GlifName: greater
Width: 589
Flags: W
LayerCount: 2
Fore
SplineSet
211 489 m 1
 202 423 l 1
 433 298 l 1
 167 173 l 1
 157 107 l 5
 494 265 l 5
 503 331 l 1
 211 489 l 1
EndSplineSet
Validated: 9
EndChar

StartChar: question
Encoding: 63 63 88
GlifName: question
Width: 474
Flags: W
HStem: -14 92<178.705 246.295> 652 60<243.769 389.347>
VStem: 203 57<183 240>
LayerCount: 2
Fore
SplineSet
256 32 m 4
 254 19 249 9 239 -0 c 4
 229 -9 218 -14 206 -14 c 4
 194 -14 184 -9 177 -0 c 4
 170 9 167 19 169 32 c 4
 171 45 176 55 186 64 c 4
 196 73 207 78 219 78 c 4
 231 78 241 73 248 64 c 4
 255 55 258 45 256 32 c 4
327 712 m 4
 382 712 427 691 460 650 c 4
 493 609 505 560 497 502 c 4
 491 462 476 426 450 392 c 4
 424 358 393 333 356 315 c 4
 331 303 309 285 292 261 c 4
 275 237 264 211 260 183 c 5
 203 183 l 5
 209 223 224 259 249 293 c 4
 274 327 304 352 340 369 c 4
 366 381 389 400 407 424 c 4
 425 448 436 474 440 502 c 4
 446 543 437 578 413 608 c 4
 389 638 358 652 319 652 c 4
 287 652 256 641 227 620 c 4
 198 599 178 572 165 539 c 5
 110 549 l 5
 127 597 156 636 197 666 c 4
 238 696 281 712 327 712 c 4
EndSplineSet
Validated: 33
EndChar

StartChar: at
Encoding: 64 64 89
GlifName: at
Width: 938
Flags: W
HStem: -213 61<348.328 588.526> -83 63<721.452 786.422> 13 63<422.391 581.599> 426 63<465.171 624.609> 654 61<453.279 699.035>
LayerCount: 2
Fore
SplineSet
589 715 m 0
 647 715 702 704 753 680 c 0
 804 656 846 623 881 579 c 0
 916 535 942 486 956 429 c 0
 970 372 973 313 964 251 c 0
 956 193 940 138 914 87 c 4
 890 40 859 -5 820 -46 c 0
 797 -71 770 -83 740 -83 c 0
 713 -83 692 -73 676 -53 c 0
 660 -33 653 -9 657 19 c 2
 667 90 l 1
 615 39 556 13 490 13 c 0
 427 13 378 36 340 82 c 0
 302 128 288 185 297 251 c 0
 306 317 336 374 387 420 c 0
 438 466 494 489 557 489 c 0
 620 489 669 466 707 420 c 0
 745 374 759 317 750 251 c 2
 717 19 l 2
 715 8 718 -1 724 -9 c 0
 730 -17 739 -20 749 -20 c 0
 761 -20 771 -15 780 -6 c 0
 850 69 892 154 906 251 c 0
 914 304 912 356 899 405 c 0
 886 454 865 498 834 536 c 0
 803 574 766 603 722 623 c 0
 678 643 631 654 580 654 c 0
 511 654 445 636 381 600 c 0
 317 564 264 515 221 453 c 0
 178 391 151 324 141 251 c 0
 133 198 137 146 149 97 c 0
 161 48 182 4 213 -34 c 0
 244 -72 281 -101 325 -121 c 0
 369 -141 416 -152 467 -152 c 0
 513 -152 559 -142 606 -124 c 1
 619 -182 l 1
 565 -203 511 -213 458 -213 c 0
 400 -213 346 -202 295 -178 c 0
 244 -154 201 -121 166 -77 c 0
 131 -33 105 16 91 73 c 0
 77 130 74 189 83 251 c 0
 92 313 111 372 141 429 c 0
 171 486 211 535 258 579 c 0
 305 623 358 656 415 680 c 0
 472 704 531 715 589 715 c 0
548 426 m 0
 502 426 461 408 424 374 c 0
 387 340 364 299 357 251 c 0
 350 203 361 162 389 128 c 0
 417 94 453 76 499 76 c 0
 545 76 587 94 624 128 c 0
 661 162 683 203 690 251 c 0
 697 299 686 340 658 374 c 0
 630 408 594 426 548 426 c 0
EndSplineSet
Validated: 33
EndChar

StartChar: braceleft
Encoding: 123 123 90
GlifName: braceleft
Width: 362
Flags: W
HStem: -100 60<253.394 292> 320 60<110 159.555> 740 60<358.772 410>
VStem: 102 316
CounterMasks: 1 e0
LayerCount: 2
Fore
SplineSet
292 -100 m 1
 242 -100 207 -77 188 -32 c 0
 168 16 164 89 178 188 c 0
 184 233 181 266 168 288 c 0
 155 309 133 320 102 320 c 1
 110 380 l 1
 145 380 173 393 192 420 c 0
 208 442 218 472 224 512 c 0
 238 612 262 686 297 734 c 0
 329 778 369 800 418 800 c 1
 410 740 l 1
 381 739 355 723 335 692 c 0
 310 654 292 595 281 513 c 0
 273 459 257 416 233 386 c 0
 221 371 208 359 192 350 c 1
 200 344 207 338 213 330 c 0
 237 299 244 252 235 187 c 0
 222 98 225 35 243 -2 c 0
 255 -27 274 -39 300 -40 c 1
 292 -100 l 1
EndSplineSet
Validated: 33
EndChar

StartChar: bar
Encoding: 124 124 91
GlifName: bar
Width: 245
Flags: W
VStem: 63 57<-220 -163> 205 57<733 790>
LayerCount: 2
Fore
SplineSet
205 790 m 1
 262 790 l 1
 120 -220 l 1
 63 -220 l 1
 205 790 l 1
EndSplineSet
Validated: 1
EndChar

StartChar: braceright
Encoding: 125 125 92
GlifName: braceright
Width: 362
Flags: W
HStem: -100 60<51 103.457> 320 60<301.012 351> 740 60<169 206.748>
CounterMasks: 1 e0
LayerCount: 2
Fore
SplineSet
43 -100 m 1
 93 -100 134 -77 166 -32 c 0
 200 16 223 89 237 188 c 0
 243 233 257 266 276 288 c 0
 295 309 320 320 351 320 c 5
 359 380 l 5
 324 380 301 393 289 420 c 0
 279 442 277 472 283 512 c 0
 297 612 293 686 272 734 c 0
 253 778 218 800 169 800 c 1
 161 740 l 1
 190 739 210 723 222 692 c 0
 236 654 237 595 226 513 c 0
 218 459 222 416 238 386 c 0
 246 371 257 359 270 350 c 1
 260 344 251 338 243 330 c 0
 210 299 189 252 180 187 c 0
 167 98 147 35 119 -2 c 0
 100 -27 77 -39 51 -40 c 1
 43 -100 l 1
EndSplineSet
Validated: 41
EndChar

StartChar: asciitilde
Encoding: 126 126 93
GlifName: asciitilde
Width: 502
Flags: W
HStem: 237 60<335.789 416.654> 336 60<173.429 256.374>
VStem: 94 57<265 316.702> 440 57<315.937 368>
LayerCount: 2
Fore
SplineSet
224 396 m 0
 259 396 291 377 318 340 c 0
 325 331 331 323 337 317 c 0
 350 304 362 297 375 297 c 0
 392 297 405 302 414 311 c 0
 425 322 434 341 440 368 c 1
 497 368 l 1
 485 320 466 285 441 263 c 0
 421 246 396 237 367 237 c 0
 333 237 303 255 276 291 c 0
 264 308 252 321 240 328 c 0
 232 333 223 336 215 336 c 0
 198 336 186 331 176 321 c 0
 165 310 157 291 151 265 c 1
 94 265 l 1
 105 313 122 347 147 369 c 0
 168 387 194 396 224 396 c 0
EndSplineSet
Validated: 1
EndChar

StartChar: exclamdown
Encoding: 161 161 94
GlifName: exclamdown
Width: 277
Flags: W
HStem: 420 92<170.695 237.236>
VStem: 82 57<-202 -145> 153 57<248 305>
LayerCount: 2
Fore
SplineSet
198 420 m 0
 210 420 220 425 230 434 c 0
 240 443 246 453 248 466 c 0
 250 479 247 489 240 498 c 0
 233 507 223 512 211 512 c 0
 199 512 188 507 178 498 c 0
 168 489 162 479 160 466 c 0
 158 453 162 443 169 434 c 0
 176 425 186 420 198 420 c 0
82 -202 m 1
 139 -202 l 1
 210 305 l 1
 153 305 l 1
 82 -202 l 1
EndSplineSet
Validated: 41
EndChar

StartChar: cent
Encoding: 162 162 95
GlifName: cent
Width: 469
Flags: W
HStem: 0 21G<232 291.955> 92 61<209.022 245 310 389.463> 551 61<375 432.267> 680 20G<328.174 388>
VStem: 232 57<0 57> 331 57<643 700>
LayerCount: 2
Fore
SplineSet
375 612 m 1
 435 609 482 583 516 537 c 1
 471 493 l 1
 446 528 412 548 367 551 c 1
 310 149 l 1
 356 152 396 172 431 207 c 1
 464 163 l 1
 417 117 363 91 302 88 c 1
 289 0 l 1
 232 0 l 1
 245 92 l 1
 197 101 160 125 131 164 c 0
 95 215 82 276 92 350 c 0
 102 424 132 485 183 536 c 0
 223 575 268 599 318 608 c 1
 331 700 l 1
 388 700 l 1
 375 612 l 1
309 547 m 1
 275 539 245 520 218 493 c 0
 180 454 157 407 149 350 c 0
 141 293 151 246 178 207 c 0
 197 180 222 161 254 153 c 1
 309 547 l 1
EndSplineSet
Validated: 33
EndChar

StartChar: sterling
Encoding: 163 163 96
GlifName: sterling
Width: 541
Flags: W
HStem: 0 63<56 111.4 169 493> 287 63<97 164 233 413> 648 64<328.903 465.657>
VStem: 506 61<517 578>
LayerCount: 2
Fore
SplineSet
502 63 m 1
 493 0 l 1
 48 0 l 1
 56 63 l 1
 77 63 96 70 113 86 c 0
 130 102 141 121 144 143 c 2
 164 287 l 1
 88 287 l 1
 97 350 l 1
 173 350 l 1
 196 517 l 2
 204 571 229 617 270 655 c 0
 311 693 358 712 409 712 c 0
 460 712 501 693 532 655 c 0
 563 617 575 571 567 517 c 1
 506 517 l 1
 511 553 503 584 482 610 c 0
 461 636 434 648 400 648 c 0
 366 648 335 636 307 610 c 0
 279 584 262 553 257 517 c 2
 233 350 l 1
 422 350 l 1
 413 287 l 1
 225 287 l 1
 204 143 l 2
 200 115 189 88 169 63 c 1
 502 63 l 1
EndSplineSet
Validated: 33
EndChar

StartChar: currency
Encoding: 164 164 97
GlifName: currency
Width: 512
Flags: W
HStem: 192 60<236.704 351.846> 448 60<258.154 374.043>
VStem: 155 57<281.894 402.02> 398 57<297.98 418.106>
LayerCount: 2
Fore
SplineSet
381 419 m 0
 366 438 345 448 319 448 c 0
 293 448 270 438 249 419 c 0
 228 400 216 377 212 350 c 0
 208 323 215 300 230 281 c 0
 245 262 265 252 291 252 c 0
 317 252 340 262 361 281 c 0
 382 300 394 323 398 350 c 0
 402 377 396 400 381 419 c 0
472 540 m 1
 506 497 l 1
 442 439 l 1
 455 413 460 383 455 350 c 0
 450 317 438 287 417 261 c 1
 465 203 l 1
 418 160 l 1
 371 219 l 1
 344 201 315 192 283 192 c 0
 251 192 225 201 203 219 c 1
 139 160 l 1
 105 203 l 1
 168 261 l 1
 155 287 150 317 155 350 c 0
 160 383 172 413 193 439 c 1
 146 497 l 1
 192 540 l 1
 239 481 l 1
 266 499 295 508 327 508 c 0
 359 508 386 499 408 481 c 1
 472 540 l 1
EndSplineSet
Validated: 33
EndChar

StartChar: yen
Encoding: 165 165 98
GlifName: yen
Width: 490
Flags: W
HStem: 0 21G<217 276.759> 145 60<112 237 302 427> 282 60<132 241 346 446> 692 20G<110 181.032 503.32 581>
VStem: 217 57<0 57>
LayerCount: 2
Fore
SplineSet
123 282 m 1
 132 342 l 1
 241 342 l 1
 110 712 l 1
 174 712 l 1
 296 365 l 1
 516 712 l 1
 581 712 l 1
 346 342 l 1
 455 342 l 1
 446 282 l 1
 313 282 l 1
 302 205 l 1
 435 205 l 1
 427 145 l 1
 294 145 l 1
 274 0 l 1
 217 0 l 1
 237 145 l 1
 104 145 l 1
 112 205 l 1
 245 205 l 1
 256 282 l 1
 123 282 l 1
EndSplineSet
Validated: 1
EndChar

StartChar: brokenbar
Encoding: 166 166 99
GlifName: brokenbar
Width: 247
Flags: W
VStem: 64 57<-220 -163> 126 57<163 220> 144 57<350 407> 206 57<733 790>
LayerCount: 2
Fore
SplineSet
64 -220 m 1xd0
 126 220 l 1
 183 220 l 1
 121 -220 l 1
 64 -220 l 1xd0
144 350 m 1xb0
 206 790 l 1
 263 790 l 1
 201 350 l 1
 144 350 l 1xb0
EndSplineSet
Validated: 1
EndChar

StartChar: section
Encoding: 167 167 100
GlifName: section
Width: 499
Flags: W
HStem: -90 57<184.528 311.999> 158 57<219.611 332.348> 407 57<254.652 367.389> 655 57<275.343 402.472>
VStem: 104 54<-4.10717 62> 429 54<560 626.107>
LayerCount: 2
Fore
SplineSet
350 712 m 0
 392 712 427 697 453 667 c 0
 479 637 489 602 483 560 c 1
 429 560 l 1
 433 586 426 608 409 627 c 0
 392 646 369 655 342 655 c 0
 315 655 289 646 267 627 c 0
 245 608 232 586 228 560 c 0
 224 534 231 511 248 492 c 0
 265 473 288 464 315 464 c 0
 357 464 392 449 418 419 c 0
 444 389 454 353 448 311 c 0
 442 269 423 233 388 203 c 0
 381 197 373 192 366 187 c 1
 372 182 378 176 383 170 c 0
 409 140 419 104 413 62 c 0
 407 20 387 -15 353 -45 c 0
 319 -75 279 -90 237 -90 c 0
 195 -90 160 -75 134 -45 c 0
 108 -15 98 20 104 62 c 1
 158 62 l 1
 154 36 161 14 178 -5 c 0
 195 -24 218 -33 245 -33 c 0
 272 -33 298 -24 320 -5 c 0
 342 14 355 36 359 62 c 0
 363 88 356 111 339 130 c 0
 322 149 299 158 272 158 c 0
 230 158 195 173 169 203 c 0
 143 233 133 269 139 311 c 0
 145 353 164 389 199 419 c 0
 206 425 214 430 221 435 c 1
 215 440 209 446 204 452 c 0
 178 482 168 518 174 560 c 0
 180 602 201 637 235 667 c 0
 269 697 308 712 350 712 c 0
307 407 m 0
 279 407 254 398 232 379 c 0
 210 360 197 338 193 311 c 0
 189 284 196 262 213 243 c 0
 230 224 252 215 280 215 c 0
 308 215 333 224 355 243 c 0
 377 262 390 284 394 311 c 0
 398 338 391 360 374 379 c 0
 357 398 335 407 307 407 c 0
EndSplineSet
Validated: 33
EndChar

StartChar: dieresis
Encoding: 168 168 101
GlifName: dieresis
Width: 400
Flags: W
HStem: 630 80<149.283 210.717 378.337 440.717>
VStem: 142 306
LayerCount: 2
Fore
SplineSet
185 710 m 4
 196 710 205 706 211 698 c 4
 217 690 220 681 218 670 c 4
 216 659 211 650 203 642 c 4
 195 634 185 630 174 630 c 4
 163 630 155 634 149 642 c 4
 143 650 140 659 142 670 c 4
 144 681 149 690 157 698 c 4
 165 706 174 710 185 710 c 4
415 710 m 4
 426 710 435 706 441 698 c 4
 447 690 450 681 448 670 c 4
 446 659 441 650 433 642 c 4
 425 634 415 630 404 630 c 4
 393 630 384 634 378 642 c 4
 372 650 370 659 372 670 c 4
 374 681 378 690 386 698 c 4
 394 706 404 710 415 710 c 4
EndSplineSet
Validated: 1
EndChar

StartChar: copyright
Encoding: 169 169 102
GlifName: copyright
Width: 781
Flags: W
HStem: -11 60<292.468 510.024> 152 60<361.362 493.812> 488 60<393.73 526.164> 652 60<370.84 589.599>
LayerCount: 2
Fore
SplineSet
491 712 m 0
 553 712 609 696 657 664 c 0
 705 632 740 588 763 532 c 0
 786 476 793 415 784 350 c 0
 775 285 750 225 712 169 c 0
 674 113 626 69 569 37 c 0
 512 5 451 -11 389 -11 c 0
 327 -11 272 5 224 37 c 0
 176 69 140 113 117 169 c 0
 94 225 88 285 97 350 c 0
 106 415 130 476 168 532 c 0
 206 588 255 632 312 664 c 0
 369 696 429 712 491 712 c 0
483 652 m 0
 404 652 332 623 268 564 c 0
 204 505 166 433 154 350 c 0
 142 267 160 196 208 137 c 0
 256 78 319 49 398 49 c 0
 477 49 549 78 613 137 c 0
 677 196 715 267 727 350 c 0
 739 433 721 505 673 564 c 0
 625 623 562 652 483 652 c 0
472 548 m 0
 522 548 561 529 589 491 c 1
 543 448 l 1
 525 475 498 488 463 488 c 0
 428 488 398 475 372 448 c 0
 346 421 331 389 326 350 c 0
 321 311 327 279 345 252 c 0
 363 225 389 212 424 212 c 0
 459 212 490 225 516 252 c 1
 550 209 l 1
 511 171 466 152 416 152 c 0
 365 152 326 171 298 209 c 0
 270 247 261 294 269 350 c 0
 277 406 300 453 338 491 c 0
 376 529 421 548 472 548 c 0
EndSplineSet
Validated: 33
EndChar

StartChar: ordfeminine
Encoding: 170 170 103
GlifName: ordfeminine
Width: 353
Flags: W
HStem: 393 55<183.241 294.86> 651 56<204.26 317.851> 680 20G<360.073 412>
VStem: 107 305
LayerCount: 2
Fore
SplineSet
363 700 m 1xb0
 412 700 l 1xb0
 370 400 l 1
 320 400 l 1
 326 439 l 1
 300 408 266 393 225 393 c 0
 185 393 153 408 131 438 c 0
 109 469 101 506 107 550 c 0
 113 594 131 632 162 662 c 0
 193 692 229 707 270 707 c 0xd0
 310 707 339 691 357 659 c 5
 363 700 l 1xb0
265 651 m 0xd0
 239 651 216 642 196 622 c 0
 176 602 165 579 161 550 c 0
 157 521 162 498 176 478 c 0
 190 458 210 448 236 448 c 0
 262 448 284 458 303 477 c 0
 322 496 334 521 338 550 c 0
 342 579 337 603 324 622 c 0
 311 641 291 651 265 651 c 0xd0
EndSplineSet
Validated: 33
EndChar

StartChar: guillemotleft
Encoding: 171 171 104
GlifName: guillemotleft
Width: 522
Flags: W
LayerCount: 2
Fore
SplineSet
331 515 m 5
 365 473 l 5
 175 298 l 5
 316 123 l 5
 270 81 l 5
 94 298 l 5
 331 515 l 5
499 515 m 5
 534 473 l 5
 343 298 l 5
 485 123 l 5
 438 81 l 5
 262 298 l 5
 499 515 l 5
EndSplineSet
Validated: 1
EndChar

StartChar: logicalnot
Encoding: 172 172 105
GlifName: logicalnot
Width: 589
Flags: W
HStem: 296 60<174 450>
VStem: 437 57<201 258>
LayerCount: 2
Fore
SplineSet
165 296 m 1
 174 356 l 1
 516 356 l 5
 494 201 l 5
 437 201 l 1
 450 296 l 1
 165 296 l 1
EndSplineSet
Validated: 1
EndChar

StartChar: uni00AD
Encoding: 173 173 106
GlifName: uni00A_D_
Width: 399
Flags: W
HStem: 268 60<103 380>
VStem: 95 293
LayerCount: 2
Fore
SplineSet
95 268 m 1
 103 328 l 1
 388 328 l 1
 380 268 l 1
 95 268 l 1
EndSplineSet
Validated: 1
EndChar

StartChar: registered
Encoding: 174 174 107
GlifName: registered
Width: 594
Flags: W
HStem: 176 60<245.499 422.457> 531 59<345 406.764> 652 60<297.043 473.682>
VStem: 255 57<298 355> 381 61<298 359> 413 57<473.446 521.719>
LayerCount: 2
Fore
SplineSet
397 712 m 0xf0
 467 712 524 686 566 634 c 0
 608 582 624 518 614 444 c 0
 604 370 570 306 513 254 c 0
 456 202 392 176 322 176 c 0
 252 176 195 202 153 254 c 0
 111 306 95 370 105 444 c 0
 115 518 149 582 206 634 c 0
 263 686 327 712 397 712 c 0xf0
389 652 m 0
 335 652 285 632 241 591 c 0
 197 550 170 501 162 444 c 0
 154 387 166 338 199 297 c 0
 232 256 277 236 331 236 c 0
 385 236 435 256 479 297 c 0
 523 338 549 387 557 444 c 0
 565 501 553 550 520 591 c 0
 487 632 443 652 389 652 c 0
297 590 m 1
 400 590 l 2
 422 590 440 581 454 563 c 0
 468 545 473 524 470 501 c 0xf4
 467 480 460 462 448 447 c 0
 436 432 423 421 410 415 c 1
 442 298 l 1
 381 298 l 1xf8
 350 411 l 1
 328 411 l 1
 312 298 l 1
 255 298 l 1
 297 590 l 1
345 531 m 1
 337 471 l 1
 379 471 l 2
 387 471 394 474 401 479 c 0
 408 484 412 492 413 501 c 0
 414 510 412 516 407 522 c 0
 402 528 395 531 387 531 c 2
 345 531 l 1
EndSplineSet
Validated: 33
EndChar

StartChar: macron
Encoding: 175 175 108
GlifName: macron
Width: 285
Flags: W
HStem: 580 60<90 367>
VStem: 82 293
LayerCount: 2
Fore
SplineSet
82 580 m 1
 90 640 l 1
 375 640 l 1
 367 580 l 1
 82 580 l 1
EndSplineSet
Validated: 1
EndChar

StartChar: degree
Encoding: 176 176 109
GlifName: degree
Width: 346
Flags: W
HStem: 452 60<200.548 296.875> 658 60<214.125 310.452>
VStem: 130 251
LayerCount: 2
Fore
SplineSet
274 718 m 0
 309 718 337 705 358 679 c 0
 379 653 386 622 381 585 c 0
 376 548 359 517 331 491 c 0
 303 465 272 452 237 452 c 0
 202 452 174 465 153 491 c 0
 132 517 125 548 130 585 c 0
 135 622 152 653 180 679 c 0
 208 705 239 718 274 718 c 0
266 658 m 0
 247 658 229 650 214 636 c 0
 199 622 190 605 187 585 c 0
 184 565 189 548 200 534 c 0
 211 520 226 512 245 512 c 0
 264 512 282 520 297 534 c 0
 312 548 321 565 324 585 c 0
 327 605 322 622 311 636 c 0
 300 650 285 658 266 658 c 0
EndSplineSet
Validated: 33
EndChar

StartChar: plusminus
Encoding: 177 177 110
GlifName: plusminus
Width: 589
Flags: W
HStem: 0 60<89 508> 312 60<162 310 376 524>
VStem: 286 57<139 196> 343 57<490 547>
LayerCount: 2
Fore
SplineSet
81 0 m 1xc0
 89 60 l 1
 517 60 l 1
 508 0 l 1
 81 0 l 1xc0
153 312 m 1
 162 372 l 1
 319 372 l 1
 343 547 l 1
 400 547 l 1xd0
 376 372 l 1
 532 372 l 1
 524 312 l 1
 367 312 l 1
 343 139 l 1
 286 139 l 1xe0
 310 312 l 1
 153 312 l 1
EndSplineSet
Validated: 1
EndChar

StartChar: uni00B2
Encoding: 178 178 111
GlifName: uni00B_2
Width: 341
Flags: W
HStem: 380 60<173 339> 747 60<210.365 308.493>
VStem: 85 294
LayerCount: 2
Fore
SplineSet
270 807 m 0
 305 807 334 795 355 769 c 0
 376 743 384 712 379 676 c 0
 374 644 355 612 323 581 c 2
 173 440 l 1
 347 440 l 1
 339 380 l 1
 85 380 l 1
 94 440 l 1
 287 622 l 2
 308 643 320 660 322 676 c 0
 325 698 320 715 308 728 c 0
 296 741 281 747 263 747 c 0
 247 747 232 742 218 732 c 0
 204 722 195 708 189 692 c 1
 135 705 l 1
 144 734 161 758 187 778 c 0
 213 798 241 807 270 807 c 0
EndSplineSet
Validated: 33
EndChar

StartChar: uni00B3
Encoding: 179 179 112
GlifName: uni00B_3
Width: 336
Flags: W
HStem: 373 60<179.996 288.823> 570 60<225 299.435> 711 21G<158 212> 747 60<219.649 319.971>
VStem: 315 56<458.566 551.388>
LayerCount: 2
Fore
SplineSet
283 807 m 0
 316 807 342 795 363 773 c 0
 384 751 392 723 387 690 c 0
 385 675 378 660 368 645 c 0
 358 630 344 617 326 603 c 1
 341 591 353 577 361 561 c 0
 371 542 374 522 371 501 c 0
 366 465 349 435 320 410 c 0
 291 385 258 373 222 373 c 0
 196 373 172 380 152 395 c 0
 132 410 119 428 113 452 c 1
 170 472 l 1
 174 460 182 450 193 443 c 0
 204 436 217 433 232 433 c 0
 252 433 270 439 286 452 c 0
 302 465 312 482 315 502 c 0
 318 522 313 539 300 552 c 0
 288 564 272 570 251 570 c 2
 217 570 l 1
 225 630 l 1
 260 630 l 2
 276 630 292 636 306 647 c 0
 320 658 328 673 330 690 c 0
 332 707 329 721 318 731 c 0
 307 741 292 747 275 747 c 0
 260 747 247 744 235 737 c 0
 224 731 215 722 209 711 c 1
 158 731 l 1
 169 753 186 772 209 786 c 0
 232 800 258 807 283 807 c 0
EndSplineSet
Validated: 33
EndChar

StartChar: acute
Encoding: 180 180 113
GlifName: acute
Width: 194
Flags: W
HStem: 574 126
VStem: 82 205
LayerCount: 2
Fore
SplineSet
82 574 m 1
 203 700 l 1
 287 700 l 1
 154 574 l 1
 82 574 l 1
EndSplineSet
Validated: 1
EndChar

StartChar: mu
Encoding: 181 181 114
GlifName: mu
Width: 526
Flags: W
HStem: -200 21G<29 88.8137> -12 60<194.099 336.845> 0 21G<398 457.8> 480 20G<124.2 184 465.239 525>
VStem: 29 57<-200 -143> 127 57<443 500> 398 57<0 57> 468 57<443 500>
LayerCount: 2
Fore
SplineSet
525 500 m 1xdf
 455 0 l 1
 398 0 l 1xbf
 407 63 l 1
 365 13 313 -12 254 -12 c 0
 195 -12 151 13 123 63 c 1
 86 -200 l 1
 29 -200 l 1
 127 500 l 5
 184 500 l 5
 147 232 l 2
 139 175 146 131 168 98 c 0
 190 65 222 48 263 48 c 0
 304 48 339 65 371 98 c 0
 403 131 423 175 431 232 c 2
 468 500 l 1
 525 500 l 1xdf
EndSplineSet
Validated: 33
EndChar

StartChar: paragraph
Encoding: 182 182 115
GlifName: paragraph
Width: 504
Flags: W
HStem: 640 60<391 442>
VStem: 232 57<-84 -27> 341 57<-84 -27>
LayerCount: 2
Fore
SplineSet
333 700 m 2
 343 700 l 1
 508 700 l 1
 398 -84 l 1
 341 -84 l 1
 442 640 l 1
 391 640 l 1
 289 -84 l 1
 232 -84 l 1
 282 266 l 1
 272 266 l 2
 215 266 169 288 135 330 c 0
 101 372 88 423 96 483 c 0
 104 543 132 594 178 636 c 0
 224 678 276 700 333 700 c 2
EndSplineSet
Validated: 33
EndChar

StartChar: periodcentered
Encoding: 183 183 116
GlifName: periodcentered
Width: 239
Flags: W
HStem: 275 92<131.151 198.849>
VStem: 121 88
LayerCount: 2
Fore
SplineSet
209 321 m 0
 207 308 201 297 191 288 c 0
 181 279 170 275 158 275 c 0
 146 275 136 279 129 288 c 0
 122 297 119 308 121 321 c 0
 123 334 129 345 139 354 c 0
 149 363 159 367 171 367 c 0
 183 367 193 363 200 354 c 0
 207 345 211 334 209 321 c 0
EndSplineSet
Validated: 33
EndChar

StartChar: cedilla
Encoding: 184 184 117
GlifName: cedilla
Width: 195
Flags: W
HStem: -210 57<3.35896 118.086>
VStem: -22 230
LayerCount: 2
Fore
SplineSet
179 33 m 1
 204 5 214 -29 208 -70 c 0
 203 -109 185 -142 155 -169 c 0
 125 -196 92 -210 55 -210 c 0
 25 -210 -1 -200 -22 -181 c 1
 5 -152 19 -137 19 -137 c 5
 31 -147 46 -153 63 -153 c 0
 85 -153 104 -144 122 -128 c 0
 140 -112 151 -93 154 -70 c 0
 156 -54 154 -39 148 -26 c 0
 142 -13 133 -3 121 4 c 1
 179 33 l 1
EndSplineSet
Validated: 33
EndChar

StartChar: uni00B9
Encoding: 185 185 118
GlifName: uni00B_9
Width: 267
Flags: W
VStem: 179 57<380 437>
LayerCount: 2
Fore
SplineSet
238 800 m 1
 295 800 l 1
 236 380 l 1
 179 380 l 1
 227 722 l 1
 155 665 l 1
 125 711 l 1
 238 800 l 1
EndSplineSet
Validated: 1
EndChar

StartChar: ordmasculine
Encoding: 186 186 119
GlifName: ordmasculine
Width: 346
Flags: W
HStem: 393 60<183.894 295.898> 647 60<205.294 317.606>
VStem: 107 288
LayerCount: 2
Fore
SplineSet
273 707 m 0
 315 707 347 691 370 661 c 0
 393 631 401 594 395 550 c 0
 389 506 369 468 338 438 c 0
 307 408 271 393 229 393 c 0
 187 393 155 408 132 438 c 0
 109 468 101 506 107 550 c 0
 113 594 132 631 163 661 c 0
 194 691 231 707 273 707 c 0
264 647 m 0
 238 647 217 638 198 619 c 0
 179 600 168 577 164 550 c 0
 160 523 164 500 178 481 c 0
 192 462 211 453 237 453 c 0
 263 453 284 462 303 481 c 0
 322 500 333 523 337 550 c 0
 341 577 337 600 323 619 c 0
 309 638 290 647 264 647 c 0
EndSplineSet
Validated: 33
EndChar

StartChar: guillemotright
Encoding: 187 187 120
GlifName: guillemotright
Width: 522
Flags: W
LayerCount: 2
Fore
SplineSet
165 515 m 5
 119 473 l 5
 260 298 l 5
 70 123 l 5
 104 81 l 5
 341 298 l 5
 165 515 l 5
333 515 m 5
 287 473 l 5
 428 298 l 5
 238 123 l 5
 272 81 l 5
 509 298 l 5
 333 515 l 5
EndSplineSet
Validated: 9
EndChar

StartChar: onequarter
Encoding: 188 188 121
GlifName: onequarter
Width: 782
Flags: W
HStem: 0 21G<153.294 194.096 639 698.857> 91 60<548 652 718 775> 680 20G<198.607 281 655.904 696.706>
VStem: 165 57<280 337> 639 57<0 57> 677 57<213 270>
LayerCount: 2
Fore
SplineSet
642 420 m 1xf8
 690 394 l 1
 548 151 l 1
 661 151 l 1
 677 270 l 1
 734 270 l 1xf4
 718 151 l 1
 783 151 l 1
 775 91 l 1
 709 91 l 1
 696 0 l 1
 639 0 l 1
 652 91 l 1
 477 91 l 1
 485 151 l 1
 642 420 l 1xf8
672 700 m 5
 714 666 l 5
 178 0 l 5
 136 34 l 5
 672 700 l 5
224 700 m 1
 281 700 l 1
 222 280 l 1
 165 280 l 1
 213 622 l 1
 141 565 l 1
 111 611 l 1
 224 700 l 1
EndSplineSet
Validated: 1
EndChar

StartChar: onehalf
Encoding: 189 189 122
GlifName: onehalf
Width: 814
Flags: W
HStem: -0 60<593 758> 367 60<630.311 728.997> 680 20G<198.607 281 655.904 696.706>
VStem: 165 57<280 337>
LayerCount: 2
Fore
SplineSet
690 427 m 0
 725 427 753 415 774 389 c 0
 795 363 803 332 798 296 c 0
 793 264 775 232 743 201 c 2
 593 60 l 1
 767 60 l 1
 758 -0 l 1
 505 -0 l 1
 514 60 l 1
 707 242 l 2
 728 263 739 280 741 296 c 0
 744 318 740 335 728 348 c 0
 716 361 701 367 683 367 c 0
 667 367 652 362 638 352 c 0
 624 342 614 328 608 312 c 1
 555 325 l 1
 564 354 581 378 607 398 c 0
 633 418 661 427 690 427 c 0
672 700 m 5
 714 666 l 5
 178 0 l 5
 136 34 l 5
 672 700 l 5
224 700 m 1
 281 700 l 1
 222 280 l 1
 165 280 l 1
 213 622 l 1
 141 565 l 1
 111 611 l 1
 224 700 l 1
EndSplineSet
Validated: 33
EndChar

StartChar: threequarters
Encoding: 190 190 123
GlifName: threequarters
Width: 851
Flags: W
HStem: 0 21G<221.294 262.096 708 767.857> 91 60<616 721 786 843> 273 60<165.996 274.823> 470 60<211 285.435> 647 60<205.616 305.175> 680 20G<723.904 764.706>
VStem: 301 56<358.566 451.388> 708 57<0 57> 746 57<213 270>
LayerCount: 2
Fore
SplineSet
711 420 m 1xf3
 758 394 l 1
 616 151 l 1
 729 151 l 1
 746 270 l 1
 803 270 l 1xf280
 786 151 l 1
 852 151 l 1
 843 91 l 1
 778 91 l 1
 765 0 l 1
 708 0 l 1
 721 91 l 1
 545 91 l 1
 553 151 l 1
 711 420 l 1xf3
740 700 m 5xf6
 782 666 l 5
 246 0 l 5
 204 34 l 5
 740 700 l 5xf6
268 707 m 0xfa
 301 707 328 695 349 673 c 0
 370 651 378 623 373 590 c 0
 371 575 364 560 354 545 c 0
 344 530 330 517 312 503 c 1
 327 491 339 477 347 461 c 0
 357 442 360 422 357 401 c 0
 352 365 335 335 306 310 c 0
 277 285 244 273 208 273 c 0
 182 273 158 280 138 295 c 0
 118 310 105 328 99 352 c 1
 156 372 l 1
 160 360 168 350 179 343 c 0
 190 336 203 333 218 333 c 0
 238 333 256 339 272 352 c 0
 288 365 298 382 301 402 c 0
 304 422 299 439 286 452 c 0
 274 464 258 470 237 470 c 2
 203 470 l 1
 211 530 l 1
 246 530 l 2
 262 530 278 536 292 547 c 0
 306 558 314 573 316 590 c 0
 318 607 314 621 303 631 c 0
 292 641 278 647 261 647 c 0
 246 647 233 644 221 637 c 0
 210 631 201 622 195 611 c 1
 144 631 l 1
 155 653 172 672 195 686 c 0
 218 700 243 707 268 707 c 0xfa
EndSplineSet
Validated: 33
EndChar

StartChar: questiondown
Encoding: 191 191 124
GlifName: questiondown
Width: 436
Flags: W
HStem: -213 60<127.318 271.777> 421 92<269.151 336.849>
VStem: 255 57<259 316>
LayerCount: 2
Fore
SplineSet
259 467 m 0
 261 480 267 491 277 500 c 0
 287 509 298 513 310 513 c 0
 322 513 332 509 339 500 c 0
 346 491 349 480 347 467 c 0
 345 454 339 443 329 434 c 0
 319 425 309 421 297 421 c 0
 285 421 275 425 268 434 c 0
 261 443 257 454 259 467 c 0
189 -213 m 0
 134 -213 89 -193 56 -152 c 0
 23 -111 11 -61 19 -3 c 0
 25 37 39 73 65 107 c 0
 91 141 123 166 160 184 c 0
 185 196 206 214 223 238 c 0
 240 262 251 288 255 316 c 1
 312 316 l 1
 306 276 292 240 267 206 c 0
 242 172 211 147 175 130 c 0
 149 118 127 99 109 75 c 0
 91 51 80 25 76 -3 c 0
 70 -44 79 -78 103 -108 c 0
 127 -138 158 -153 197 -153 c 0
 229 -153 259 -142 288 -121 c 0
 317 -100 338 -73 351 -40 c 1
 405 -50 l 1
 388 -98 360 -137 319 -167 c 0
 278 -197 235 -213 189 -213 c 0
EndSplineSet
Validated: 33
EndChar

StartChar: Agrave
Encoding: 192 192 125
GlifName: A_grave
Width: 571
Flags: W
HStem: 0 21G<10 80.7561 496.902 562> 205 60<200 446> 680 20G<346.114 416.286>
VStem: 501 61<0 61>
LayerCount: 2
Fore
SplineSet
355 744 m 1
 255 871 l 1
 340 871 l 1
 428 744 l 1
 355 744 l 1
200 265 m 1
 446 265 l 1
 373 619 l 1
 200 265 l 1
171 205 m 1
 71 0 l 1
 10 0 l 1
 356 700 l 1
 412 700 l 1
 562 0 l 1
 501 0 l 1
 459 205 l 1
 171 205 l 1
EndSplineSet
Validated: 1
EndChar

StartChar: Aacute
Encoding: 193 193 126
GlifName: A_acute
Width: 571
Flags: W
HStem: 0 21G<10 80.7561 496.902 562> 205 60<200 446> 680 20G<346.114 416.286>
VStem: 501 61<0 61>
LayerCount: 2
Fore
SplineSet
200 265 m 1
 446 265 l 1
 373 619 l 1
 200 265 l 1
171 205 m 1
 71 0 l 1
 10 0 l 1
 356 700 l 1
 412 700 l 1
 562 0 l 1
 501 0 l 1
 459 205 l 1
 171 205 l 1
354 744 m 1
 476 870 l 1
 560 870 l 1
 427 744 l 1
 354 744 l 1
EndSplineSet
Validated: 1
EndChar

StartChar: Acircumflex
Encoding: 194 194 127
GlifName: A_circumflex
Width: 571
Flags: W
HStem: 0 21G<10 80.7561 496.902 562> 205 60<200 446> 680 20G<346.114 416.286>
VStem: 501 61<0 61>
LayerCount: 2
Fore
SplineSet
233 744 m 1
 364 870 l 1
 443 870 l 1
 539 744 l 1
 461 744 l 1
 397 824 l 5
 311 744 l 1
 233 744 l 1
200 265 m 1
 446 265 l 1
 373 619 l 1
 200 265 l 1
171 205 m 1
 71 0 l 1
 10 0 l 1
 356 700 l 1
 412 700 l 1
 562 0 l 1
 501 0 l 1
 459 205 l 1
 171 205 l 1
EndSplineSet
Validated: 1
EndChar

StartChar: Atilde
Encoding: 195 195 128
GlifName: A_tilde
Width: 571
Flags: W
HStem: 0 21G<10 80.7561 496.902 562> 205 60<200 446> 680 20G<346.114 416.286> 742 56<419.788 485.348> 814 56<305.314 368.541>
VStem: 492 56<804.039 836> 501 61<0 61>
LayerCount: 2
Fore
SplineSet
442 742 m 0xfc
 414 742 393 754 378 778 c 0
 372 787 366 796 361 803 c 0
 356 810 349 814 341 814 c 0
 322 814 307 802 298 777 c 1
 242 777 l 1
 249 803 263 824 283 842 c 0
 303 860 325 869 349 870 c 0
 373 870 394 858 410 834 c 0
 416 825 422 816 428 809 c 0
 434 802 441 798 450 798 c 0
 470 798 485 811 492 836 c 1
 548 836 l 1
 540 809 526 786 507 768 c 0
 488 750 466 742 442 742 c 0xfc
200 265 m 1
 446 265 l 1
 373 619 l 1
 200 265 l 1
171 205 m 1
 71 0 l 1
 10 0 l 1
 356 700 l 1
 412 700 l 1
 562 0 l 1
 501 0 l 1xfa
 459 205 l 1
 171 205 l 1
EndSplineSet
Validated: 1
EndChar

StartChar: Adieresis
Encoding: 196 196 129
GlifName: A_dieresis
Width: 571
Flags: W
HStem: 0 21G<10 80.7561 496.902 562> 205 60<200 446> 680 20G<346.114 416.286> 800 80<249.337 311.717 479.283 540.717>
VStem: 501 61<0 61>
LayerCount: 2
Fore
SplineSet
286 880 m 4
 297 880 306 876 312 868 c 4
 318 860 321 851 319 840 c 4
 317 829 312 820 304 812 c 4
 296 804 286 800 275 800 c 4
 264 800 255 804 249 812 c 4
 243 820 241 829 243 840 c 4
 245 851 249 860 257 868 c 4
 265 876 275 880 286 880 c 4
516 880 m 4
 527 880 535 876 541 868 c 4
 547 860 550 851 548 840 c 4
 546 829 541 820 533 812 c 4
 525 804 516 800 505 800 c 4
 494 800 485 804 479 812 c 4
 473 820 470 829 472 840 c 4
 474 851 479 860 487 868 c 4
 495 876 505 880 516 880 c 4
200 265 m 1
 446 265 l 1
 373 619 l 1
 200 265 l 1
171 205 m 1
 71 0 l 1
 10 0 l 1
 356 700 l 1
 412 700 l 1
 562 0 l 1
 501 0 l 1
 459 205 l 1
 171 205 l 1
EndSplineSet
Validated: 1
EndChar

StartChar: Aring
Encoding: 197 197 130
GlifName: A_ring
Width: 571
Flags: W
HStem: 0 21G<10 80.7561 496.902 562> 205 60<200 446> 680 20G<346.114 416.286> 734 45<367.667 431.579> 859 45<369.628 433.664>
VStem: 319 44<791.376 851.625> 439 43<787.303 846.624> 501 61<0 61>
LayerCount: 2
Fore
SplineSet
413 904 m 0
 435 904 452 896 466 879 c 0
 480 862 485 843 482 819 c 0
 479 795 468 776 450 759 c 0
 432 742 411 734 389 734 c 0
 367 734 349 742 335 759 c 0
 321 776 316 795 319 819 c 0
 322 843 334 862 352 879 c 0
 370 896 391 904 413 904 c 0
406 859 m 0
 396 859 387 855 378 847 c 0
 369 839 365 830 363 819 c 0
 361 808 364 799 370 791 c 0
 376 783 385 779 395 779 c 0
 405 779 414 783 423 791 c 0
 432 799 437 808 439 819 c 0
 441 830 437 839 431 847 c 0
 425 855 416 859 406 859 c 0
200 265 m 1
 446 265 l 1
 373 619 l 1
 200 265 l 1
171 205 m 1
 71 0 l 1
 10 0 l 1
 356 700 l 1
 412 700 l 1
 562 0 l 1
 501 0 l 1
 459 205 l 1
 171 205 l 1
EndSplineSet
Validated: 33
EndChar

StartChar: AE
Encoding: 198 198 131
GlifName: A_E_
Width: 945
Flags: W
HStem: 0 60<540 858> 205 60<291 504> 331 60<587 844> 640 60<622 948>
LayerCount: 2
Fore
SplineSet
573 700 m 1
 956 700 l 1
 948 640 l 1
 622 640 l 1
 587 391 l 1
 852 391 l 1
 844 331 l 1
 579 331 l 1
 540 60 l 1
 866 60 l 1
 858 0 l 1
 475 0 l 1
 504 205 l 1
 243 205 l 1
 77 0 l 1
 8 0 l 1
 573 700 l 1
559 596 m 1
 291 265 l 1
 512 265 l 1
 559 596 l 1
EndSplineSet
Validated: 1
EndChar

StartChar: Ccedilla
Encoding: 199 199 132
GlifName: C_cedilla
Width: 644
Flags: W
HStem: -210 57<250.359 365.086> -12 60<274.09 378.977> 652 60<352.899 560.716>
LayerCount: 2
Fore
SplineSet
426 33 m 1
 451 5 461 -29 455 -70 c 0
 450 -109 432 -142 402 -169 c 0
 372 -196 339 -210 302 -210 c 0
 272 -210 246 -200 225 -181 c 1
 252 -152 266 -137 266 -137 c 5
 278 -147 293 -153 310 -153 c 0
 332 -153 351 -144 369 -128 c 0
 387 -112 397 -93 400 -70 c 0
 402 -54 401 -39 395 -26 c 0
 389 -13 380 -3 368 4 c 1
 426 33 l 1
469 712 m 0
 517 712 560 702 598 682 c 0
 636 662 666 635 690 600 c 1
 643 556 l 1
 601 620 541 652 461 652 c 0
 384 652 317 623 259 564 c 0
 201 505 166 434 154 350 c 0
 142 266 158 195 199 136 c 0
 240 77 299 48 376 48 c 0
 456 48 525 80 585 144 c 1
 620 100 l 1
 586 65 547 38 504 18 c 0
 461 -2 415 -12 367 -12 c 0
 273 -12 201 23 151 93 c 0
 101 163 83 249 97 350 c 0
 111 451 154 537 224 607 c 0
 294 677 375 712 469 712 c 0
EndSplineSet
Validated: 37
EndChar

StartChar: Egrave
Encoding: 200 200 133
GlifName: E_grave
Width: 563
Flags: W
HStem: 0 60<160 478> 329 60<207 463> 640 60<242 568>
LayerCount: 2
Fore
SplineSet
363 744 m 1
 263 871 l 1
 348 871 l 1
 435 744 l 1
 363 744 l 1
95 0 m 1
 193 700 l 1
 576 700 l 1
 568 640 l 1
 242 640 l 1
 207 389 l 1
 472 389 l 1
 463 329 l 1
 198 329 l 1
 160 60 l 1
 486 60 l 1
 478 0 l 1
 95 0 l 1
EndSplineSet
Validated: 1
EndChar

StartChar: Eacute
Encoding: 201 201 134
GlifName: E_acute
Width: 563
Flags: W
HStem: 0 60<160 478> 329 60<207 463> 640 60<242 568>
LayerCount: 2
Fore
SplineSet
95 0 m 1
 193 700 l 1
 576 700 l 1
 568 640 l 1
 242 640 l 1
 207 389 l 1
 472 389 l 1
 463 329 l 1
 198 329 l 1
 160 60 l 1
 486 60 l 1
 478 0 l 1
 95 0 l 1
349 744 m 1
 470 870 l 1
 555 870 l 1
 421 744 l 1
 349 744 l 1
EndSplineSet
Validated: 1
EndChar

StartChar: Ecircumflex
Encoding: 202 202 135
GlifName: E_circumflex
Width: 563
Flags: W
HStem: 0 60<160 478> 329 60<207 463> 640 60<242 568>
LayerCount: 2
Fore
SplineSet
243 744 m 1
 375 870 l 1
 453 870 l 1
 549 744 l 1
 471 744 l 1
 408 824 l 5
 321 744 l 1
 243 744 l 1
95 0 m 1
 193 700 l 1
 576 700 l 1
 568 640 l 1
 242 640 l 1
 207 389 l 1
 472 389 l 1
 463 329 l 1
 198 329 l 1
 160 60 l 1
 486 60 l 1
 478 0 l 1
 95 0 l 1
EndSplineSet
Validated: 1
EndChar

StartChar: Edieresis
Encoding: 203 203 136
GlifName: E_dieresis
Width: 563
Flags: W
HStem: 0 60<160 478> 329 60<207 463> 640 60<242 568> 800 80<265.283 326.717 495.283 556.717>
LayerCount: 2
Fore
SplineSet
301 880 m 4
 312 880 321 876 327 868 c 4
 333 860 336 851 334 840 c 4
 332 829 327 820 319 812 c 4
 311 804 301 800 290 800 c 4
 279 800 271 804 265 812 c 4
 259 820 256 829 258 840 c 4
 260 851 265 860 273 868 c 4
 281 876 290 880 301 880 c 4
531 880 m 4
 542 880 551 876 557 868 c 4
 563 860 566 851 564 840 c 4
 562 829 557 820 549 812 c 4
 541 804 531 800 520 800 c 4
 509 800 501 804 495 812 c 4
 489 820 486 829 488 840 c 4
 490 851 495 860 503 868 c 4
 511 876 520 880 531 880 c 4
95 0 m 1
 193 700 l 1
 576 700 l 1
 568 640 l 1
 242 640 l 1
 207 389 l 1
 472 389 l 1
 463 329 l 1
 198 329 l 1
 160 60 l 1
 486 60 l 1
 478 0 l 1
 95 0 l 1
EndSplineSet
Validated: 1
EndChar

StartChar: Igrave
Encoding: 204 204 137
GlifName: I_grave
Width: 247
Flags: W
HStem: 0 21G<95 154.8> 680 20G<190.2 250>
VStem: 95 57<0 57> 193 57<643 700>
LayerCount: 2
Fore
SplineSet
197 744 m 1
 97 871 l 1
 181 871 l 1
 269 744 l 1
 197 744 l 1
95 0 m 1
 193 700 l 1
 250 700 l 1
 152 0 l 1
 95 0 l 1
EndSplineSet
Validated: 1
EndChar

StartChar: Iacute
Encoding: 205 205 138
GlifName: I_acute
Width: 246
Flags: W
HStem: 0 21G<95 154.8> 680 20G<190.2 250>
VStem: 95 57<0 57> 193 57<643 700>
LayerCount: 2
Fore
SplineSet
95 0 m 1
 193 700 l 1
 250 700 l 1
 152 0 l 1
 95 0 l 1
190 740 m 1
 312 866 l 1
 396 866 l 1
 263 740 l 1
 190 740 l 1
EndSplineSet
Validated: 1
EndChar

StartChar: Icircumflex
Encoding: 206 206 139
GlifName: I_circumflex
Width: 246
Flags: W
HStem: 0 21G<95 154.8> 680 20G<190.2 250>
VStem: 95 57<0 57> 193 57<643 700>
LayerCount: 2
Fore
SplineSet
74 744 m 1
 206 870 l 1
 284 870 l 1
 380 744 l 1
 302 744 l 1
 238 824 l 5
 152 744 l 1
 74 744 l 1
95 0 m 1
 193 700 l 1
 250 700 l 1
 152 0 l 1
 95 0 l 1
EndSplineSet
Validated: 1
EndChar

StartChar: Idieresis
Encoding: 207 207 140
GlifName: I_dieresis
Width: 247
Flags: W
HStem: 0 21G<95 154.8> 680 20G<190.2 250> 800 80<142.283 203.717 275.283 336.717>
VStem: 95 57<0 57> 193 57<643 700>
LayerCount: 2
Fore
SplineSet
95 0 m 1
 193 700 l 1
 250 700 l 1
 152 0 l 1
 95 0 l 1
179 880 m 0
 190 880 198 876 204 868 c 0
 210 860 213 851 211 840 c 0
 209 829 204 820 196 812 c 0
 188 804 179 800 168 800 c 0
 157 800 148 804 142 812 c 0
 136 820 133 829 135 840 c 0
 137 851 142 860 150 868 c 0
 158 876 168 880 179 880 c 0
312 880 m 0
 323 880 331 876 337 868 c 0
 343 860 346 851 344 840 c 0
 342 829 337 820 329 812 c 0
 321 804 312 800 301 800 c 0
 290 800 281 804 275 812 c 0
 269 820 266 829 268 840 c 0
 270 851 275 860 283 868 c 0
 291 876 301 880 312 880 c 0
EndSplineSet
Validated: 1
EndChar

StartChar: Eth
Encoding: 208 208 141
GlifName: E_th
Width: 648
Flags: W
HStem: 0 60<160 384.259> 319 60<101 328> 640 60<242 461.75>
LayerCount: 2
Fore
SplineSet
359 640 m 2
 242 640 l 1
 160 60 l 1
 277 60 l 2
 353 60 422 88 484 145 c 0
 546 202 583 270 594 350 c 0
 605 430 588 498 542 555 c 0
 496 612 435 640 359 640 c 2
367 700 m 2
 459 700 533 666 588 598 c 0
 643 530 665 447 651 350 c 0
 637 253 593 170 518 102 c 0
 443 34 361 0 269 0 c 2
 95 0 l 1
 193 700 l 1
 367 700 l 2
92 319 m 1
 101 379 l 1
 336 379 l 1
 328 319 l 1
 92 319 l 1
EndSplineSet
Validated: 37
EndChar

StartChar: Ntilde
Encoding: 209 209 142
GlifName: N_tilde
Width: 697
Flags: W
HStem: 0 21G<95 154.795 534.562 604.829> 680 20G<190.2 260.438 641.172 701> 742 56<482.692 547.433> 814 56<368.476 430.793>
VStem: 95 57<0 57> 644 57<643 700>
LayerCount: 2
Fore
SplineSet
505 742 m 0
 477 742 455 754 440 778 c 0
 434 787 429 796 424 803 c 0
 419 810 412 814 404 814 c 0
 385 814 370 802 361 777 c 1
 305 777 l 1
 312 803 325 824 345 842 c 0
 365 860 388 869 412 870 c 0
 436 870 457 858 473 834 c 0
 479 825 485 816 491 809 c 0
 497 802 504 798 513 798 c 0
 533 798 547 811 554 836 c 1
 611 836 l 1
 603 809 589 786 570 768 c 0
 551 750 529 742 505 742 c 0
193 700 m 1
 250 700 l 1
 560 106 l 1
 644 700 l 1
 701 700 l 1
 602 0 l 1
 545 0 l 1
 235 594 l 1
 152 0 l 1
 95 0 l 1
 193 700 l 1
EndSplineSet
Validated: 1
EndChar

StartChar: Ograve
Encoding: 210 210 143
GlifName: O_grave
Width: 737
Flags: W
HStem: -12 60<273.59 481.343> 652 60<352.195 561.91>
LayerCount: 2
Fore
SplineSet
444 744 m 1
 344 871 l 1
 428 871 l 1
 516 744 l 1
 444 744 l 1
460 652 m 0
 383 652 316 623 258 564 c 0
 200 505 166 434 154 350 c 0
 142 266 157 195 198 136 c 0
 239 77 298 48 375 48 c 0
 452 48 519 77 577 136 c 0
 635 195 670 266 682 350 c 0
 694 434 678 505 637 564 c 0
 596 623 537 652 460 652 c 0
469 712 m 0
 563 712 635 677 685 607 c 0
 735 537 753 451 739 350 c 0
 725 249 683 163 613 93 c 0
 543 23 461 -12 367 -12 c 0
 273 -12 201 23 151 93 c 0
 101 163 83 249 97 350 c 0
 111 451 153 537 223 607 c 0
 293 677 375 712 469 712 c 0
EndSplineSet
Validated: 33
EndChar

StartChar: Oacute
Encoding: 211 211 144
GlifName: O_acute
Width: 737
Flags: W
HStem: -12 60<273.59 481.343> 652 60<352.195 561.91>
LayerCount: 2
Fore
SplineSet
460 652 m 0
 383 652 316 623 258 564 c 0
 200 505 166 434 154 350 c 0
 142 266 157 195 198 136 c 0
 239 77 298 48 375 48 c 0
 452 48 519 77 577 136 c 0
 635 195 670 266 682 350 c 0
 694 434 678 505 637 564 c 0
 596 623 537 652 460 652 c 0
469 712 m 0
 563 712 635 677 685 607 c 0
 735 537 753 451 739 350 c 0
 725 249 683 163 613 93 c 0
 543 23 461 -12 367 -12 c 0
 273 -12 201 23 151 93 c 0
 101 163 83 249 97 350 c 0
 111 451 153 537 223 607 c 0
 293 677 375 712 469 712 c 0
438 740 m 1
 560 866 l 1
 644 866 l 1
 511 740 l 1
 438 740 l 1
EndSplineSet
Validated: 33
EndChar

StartChar: Ocircumflex
Encoding: 212 212 145
GlifName: O_circumflex
Width: 737
Flags: W
HStem: -12 60<273.59 481.343> 652 60<352.195 561.91>
LayerCount: 2
Fore
SplineSet
321 744 m 1
 453 870 l 1
 531 870 l 1
 627 744 l 1
 549 744 l 1
 485 824 l 5
 399 744 l 1
 321 744 l 1
460 652 m 0
 383 652 316 623 258 564 c 0
 200 505 166 434 154 350 c 0
 142 266 157 195 198 136 c 0
 239 77 298 48 375 48 c 0
 452 48 519 77 577 136 c 0
 635 195 670 266 682 350 c 0
 694 434 678 505 637 564 c 0
 596 623 537 652 460 652 c 0
469 712 m 0
 563 712 635 677 685 607 c 0
 735 537 753 451 739 350 c 0
 725 249 683 163 613 93 c 0
 543 23 461 -12 367 -12 c 0
 273 -12 201 23 151 93 c 0
 101 163 83 249 97 350 c 0
 111 451 153 537 223 607 c 0
 293 677 375 712 469 712 c 0
EndSplineSet
Validated: 33
EndChar

StartChar: Otilde
Encoding: 213 213 146
GlifName: O_tilde
Width: 737
Flags: W
HStem: -12 60<273.59 481.343> 652 60<352.195 561.91> 742 56<510.619 576.433> 814 56<396.531 459.433>
LayerCount: 2
Fore
SplineSet
534 742 m 0
 506 742 484 754 469 778 c 0
 463 787 457 796 452 803 c 0
 447 810 441 814 433 814 c 0
 414 814 398 802 389 777 c 1
 333 777 l 1
 340 803 354 824 374 842 c 0
 394 860 417 869 441 870 c 0
 465 870 485 858 501 834 c 0
 507 825 513 816 519 809 c 0
 525 802 533 798 542 798 c 0
 562 798 576 811 583 836 c 1
 639 836 l 1
 631 809 618 786 599 768 c 0
 580 750 558 742 534 742 c 0
460 652 m 0
 383 652 316 623 258 564 c 0
 200 505 166 434 154 350 c 0
 142 266 157 195 198 136 c 0
 239 77 298 48 375 48 c 0
 452 48 519 77 577 136 c 0
 635 195 670 266 682 350 c 0
 694 434 678 505 637 564 c 0
 596 623 537 652 460 652 c 0
469 712 m 0
 563 712 635 677 685 607 c 0
 735 537 753 451 739 350 c 0
 725 249 683 163 613 93 c 0
 543 23 461 -12 367 -12 c 0
 273 -12 201 23 151 93 c 0
 101 163 83 249 97 350 c 0
 111 451 153 537 223 607 c 0
 293 677 375 712 469 712 c 0
EndSplineSet
Validated: 33
EndChar

StartChar: Odieresis
Encoding: 214 214 147
GlifName: O_dieresis
Width: 737
Flags: W
HStem: -12 60<273.59 481.343> 652 60<352.195 561.91> 800 80<343.283 404.717 572.337 634.717>
LayerCount: 2
Fore
SplineSet
379 880 m 4
 390 880 399 876 405 868 c 4
 411 860 414 851 412 840 c 4
 410 829 405 820 397 812 c 4
 389 804 379 800 368 800 c 4
 357 800 349 804 343 812 c 4
 337 820 334 829 336 840 c 4
 338 851 343 860 351 868 c 4
 359 876 368 880 379 880 c 4
609 880 m 4
 620 880 629 876 635 868 c 4
 641 860 644 851 642 840 c 4
 640 829 635 820 627 812 c 4
 619 804 609 800 598 800 c 4
 587 800 578 804 572 812 c 4
 566 820 564 829 566 840 c 4
 568 851 572 860 580 868 c 4
 588 876 598 880 609 880 c 4
460 652 m 0
 383 652 316 623 258 564 c 0
 200 505 166 434 154 350 c 0
 142 266 157 195 198 136 c 0
 239 77 298 48 375 48 c 0
 452 48 519 77 577 136 c 0
 635 195 670 266 682 350 c 0
 694 434 678 505 637 564 c 0
 596 623 537 652 460 652 c 0
469 712 m 0
 563 712 635 677 685 607 c 0
 735 537 753 451 739 350 c 0
 725 249 683 163 613 93 c 0
 543 23 461 -12 367 -12 c 0
 273 -12 201 23 151 93 c 0
 101 163 83 249 97 350 c 0
 111 451 153 537 223 607 c 0
 293 677 375 712 469 712 c 0
EndSplineSet
Validated: 33
EndChar

StartChar: multiply
Encoding: 215 215 148
GlifName: multiply
Width: 589
Flags: W
LayerCount: 2
Fore
SplineSet
170 106 m 1
 136 148 l 1
 297 296 l 1
 177 444 l 1
 223 487 l 1
 343 339 l 1
 504 487 l 1
 539 444 l 1
 378 296 l 1
 498 148 l 1
 451 106 l 1
 331 254 l 1
 170 106 l 1
EndSplineSet
Validated: 1
EndChar

StartChar: Oslash
Encoding: 216 216 149
GlifName: O_slash
Width: 737
Flags: W
HStem: -12 60<276.59 486.101> 652 60<355.195 564.91>
LayerCount: 2
Fore
SplineSet
463 652 m 0
 386 652 319 623 261 564 c 0
 203 505 169 434 157 350 c 0
 145 266 160 195 201 136 c 0
 242 77 301 48 378 48 c 0
 455 48 522 77 580 136 c 0
 638 195 673 266 685 350 c 0
 697 434 681 505 640 564 c 0
 599 623 540 652 463 652 c 0
472 712 m 0
 566 712 638 677 688 607 c 0
 738 537 756 451 742 350 c 0
 728 249 685 163 615 93 c 0
 545 23 464 -12 370 -12 c 0
 276 -12 204 23 154 93 c 0
 104 163 86 249 100 350 c 0
 114 451 156 537 226 607 c 0
 296 677 378 712 472 712 c 0
120 -11 m 5
 81 28 l 1
 722 711 l 1
 760 672 l 1
 120 -11 l 5
EndSplineSet
Validated: 37
EndChar

StartChar: Ugrave
Encoding: 217 217 150
GlifName: U_grave
Width: 673
Flags: W
HStem: -12 60<260.388 432.124> 680 20G<181.177 241 626.225 686>
VStem: 184 57<643 700> 629 57<643 700>
LayerCount: 2
Fore
SplineSet
407 744 m 1
 307 871 l 1
 391 871 l 1
 479 744 l 1
 407 744 l 1
184 700 m 1
 241 700 l 1
 182 282 l 2
 172 212 183 156 214 113 c 0
 245 70 289 48 344 48 c 0
 399 48 448 70 491 113 c 0
 534 156 561 212 571 282 c 2
 629 700 l 1
 686 700 l 1
 628 282 l 2
 616 194 581 124 526 70 c 0
 471 16 407 -12 335 -12 c 0
 263 -12 207 16 167 70 c 0
 127 124 113 194 125 282 c 2
 184 700 l 1
EndSplineSet
Validated: 33
EndChar

StartChar: Uacute
Encoding: 218 218 151
GlifName: U_acute
Width: 673
Flags: W
HStem: -12 60<260.388 432.124> 680 20G<181.177 241 626.225 686>
VStem: 184 57<643 700> 629 57<643 700>
LayerCount: 2
Fore
SplineSet
400 744 m 1
 521 870 l 1
 606 870 l 1
 472 744 l 1
 400 744 l 1
184 700 m 1
 241 700 l 1
 182 282 l 2
 172 212 183 156 214 113 c 0
 245 70 289 48 344 48 c 0
 399 48 448 70 491 113 c 0
 534 156 561 212 571 282 c 2
 629 700 l 1
 686 700 l 1
 628 282 l 2
 616 194 581 124 526 70 c 0
 471 16 407 -12 335 -12 c 0
 263 -12 207 16 167 70 c 0
 127 124 113 194 125 282 c 2
 184 700 l 1
EndSplineSet
Validated: 33
EndChar

StartChar: Ucircumflex
Encoding: 219 219 152
GlifName: U_circumflex
Width: 673
Flags: W
HStem: -12 60<260.388 432.124> 680 20G<181.177 241 626.225 686>
VStem: 184 57<643 700> 629 57<643 700>
LayerCount: 2
Fore
SplineSet
289 744 m 1
 420 870 l 1
 499 870 l 1
 595 744 l 1
 517 744 l 1
 453 824 l 5
 367 744 l 1
 289 744 l 1
184 700 m 1
 241 700 l 1
 182 282 l 2
 172 212 183 156 214 113 c 0
 245 70 289 48 344 48 c 0
 399 48 448 70 491 113 c 0
 534 156 561 212 571 282 c 2
 629 700 l 1
 686 700 l 1
 628 282 l 2
 616 194 581 124 526 70 c 0
 471 16 407 -12 335 -12 c 0
 263 -12 207 16 167 70 c 0
 127 124 113 194 125 282 c 2
 184 700 l 1
EndSplineSet
Validated: 33
EndChar

StartChar: Udieresis
Encoding: 220 220 153
GlifName: U_dieresis
Width: 673
Flags: W
HStem: -12 60<260.388 432.124> 680 20G<181.177 241 626.225 686> 800 80<301.283 362.717 531.283 592.717>
VStem: 184 57<643 700> 629 57<643 700>
LayerCount: 2
Fore
SplineSet
337 880 m 4
 348 880 357 876 363 868 c 4
 369 860 372 851 370 840 c 4
 368 829 363 820 355 812 c 4
 347 804 337 800 326 800 c 4
 315 800 307 804 301 812 c 4
 295 820 292 829 294 840 c 4
 296 851 301 860 309 868 c 4
 317 876 326 880 337 880 c 4
567 880 m 4
 578 880 587 876 593 868 c 4
 599 860 602 851 600 840 c 4
 598 829 593 820 585 812 c 4
 577 804 567 800 556 800 c 4
 545 800 537 804 531 812 c 4
 525 820 522 829 524 840 c 4
 526 851 531 860 539 868 c 4
 547 876 556 880 567 880 c 4
184 700 m 1
 241 700 l 1
 182 282 l 2
 172 212 183 156 214 113 c 0
 245 70 289 48 344 48 c 0
 399 48 448 70 491 113 c 0
 534 156 561 212 571 282 c 2
 629 700 l 1
 686 700 l 1
 628 282 l 2
 616 194 581 124 526 70 c 0
 471 16 407 -12 335 -12 c 0
 263 -12 207 16 167 70 c 0
 127 124 113 194 125 282 c 2
 184 700 l 1
EndSplineSet
Validated: 33
EndChar

StartChar: Yacute
Encoding: 221 221 154
GlifName: Y_acute
Width: 499
Flags: W
HStem: 0 21G<221 280.804> 680 20G<108 183.387 507.065 589>
VStem: 221 57<0 57>
LayerCount: 2
Fore
SplineSet
304 744 m 1
 425 870 l 1
 509 870 l 1
 376 744 l 1
 304 744 l 1
108 700 m 1
 175 700 l 1
 305 390 l 1
 521 700 l 1
 589 700 l 1
 323 321 l 5
 278 0 l 1
 221 0 l 1
 266 321 l 1
 108 700 l 1
EndSplineSet
Validated: 1
EndChar

StartChar: Thorn
Encoding: 222 222 155
GlifName: T_horn
Width: 541
Flags: W
HStem: 1 21G<95 154.797> 144 60<181 413.46> 518 60<233 451.955> 681 20G<191.171 251>
VStem: 95 57<1 58> 194 57<644 701>
LayerCount: 2
Fore
SplineSet
194 701 m 1
 251 701 l 1
 233 578 l 1
 388 578 l 2
 445 578 491 556 525 514 c 0
 559 472 572 421 564 361 c 0
 556 301 528 250 482 208 c 0
 436 166 384 144 327 144 c 2
 172 144 l 1
 152 1 l 1
 95 1 l 1
 194 701 l 1
225 518 m 1
 181 204 l 1
 336 204 l 2
 377 204 414 219 447 250 c 0
 480 281 501 318 507 361 c 0
 513 404 504 441 479 472 c 0
 454 503 421 518 380 518 c 2
 225 518 l 1
EndSplineSet
Validated: 33
EndChar

StartChar: germandbls
Encoding: 223 223 156
GlifName: germandbls
Width: 523
Flags: W
HStem: 0 60<235 365.25> 327 60<286 395.609> 652 60<278.35 426.742>
VStem: 71 57<0 57>
LayerCount: 2
Fore
SplineSet
364 712 m 0
 417 712 461 694 493 656 c 0
 525 618 537 572 530 519 c 0
 525 486 514 456 496 428 c 0
 478 400 455 378 428 360 c 1
 456 343 476 319 490 290 c 0
 504 261 509 229 504 194 c 0
 497 141 470 95 425 57 c 0
 380 19 330 0 274 0 c 2
 227 0 l 1
 235 60 l 1
 282 60 l 2
 322 60 358 73 390 99 c 0
 422 125 442 157 447 194 c 0
 452 231 442 262 417 288 c 0
 392 314 360 327 320 327 c 2
 278 327 l 1
 286 387 l 1
 328 387 l 2
 363 387 395 400 423 426 c 0
 451 452 468 482 473 519 c 0
 478 556 469 587 446 613 c 0
 423 639 393 652 356 652 c 0
 319 652 284 639 254 613 c 0
 224 587 206 556 201 519 c 2
 128 0 l 1
 71 0 l 1
 144 519 l 2
 151 572 177 618 220 656 c 0
 263 694 311 712 364 712 c 0
EndSplineSet
Validated: 33
EndChar

StartChar: agrave
Encoding: 224 224 157
GlifName: agrave
Width: 572
Flags: W
HStem: -12 60<201.813 366.765> 0 21G<445 504.8> 452 60<252.959 417.09> 480 20G<512.176 572> 681 20G<247 344.858>
VStem: 445 57<0 57> 515 57<443 500>
LayerCount: 2
Fore
SplineSet
347 574 m 1x0e
 247 701 l 1
 331 701 l 1
 419 574 l 1
 347 574 l 1x0e
515 500 m 1x1e
 572 500 l 1
 502 0 l 1
 445 0 l 1x5e
 457 85 l 1
 451 77 445 69 438 62 c 0
 394 13 339 -12 273 -12 c 0
 206 -12 154 13 117 64 c 0
 80 115 68 177 78 250 c 0
 88 323 119 385 170 436 c 0
 221 487 280 512 347 512 c 0xae
 413 512 461 487 491 438 c 0
 495 431 499 423 503 415 c 1
 515 500 l 1x1e
338 452 m 0xae
 286 452 242 432 204 393 c 0
 166 354 143 307 135 250 c 0
 127 193 136 146 163 107 c 0
 190 68 230 48 282 48 c 0
 333 48 377 68 413 106 c 0
 449 144 472 193 480 250 c 0
 488 307 479 356 454 394 c 0
 429 432 389 452 338 452 c 0xae
EndSplineSet
Validated: 33
EndChar

StartChar: aacute
Encoding: 225 225 158
GlifName: aacute
Width: 572
Flags: W
HStem: -12 60<201.813 366.765> 0 21G<445 504.8> 452 60<252.959 417.09> 480 20G<512.176 572> 680 20G<439.794 544>
VStem: 445 57<0 57> 515 57<443 500>
LayerCount: 2
Fore
SplineSet
338 574 m 1x0e
 459 700 l 1
 544 700 l 1
 410 574 l 1
 338 574 l 1x0e
515 500 m 1x1e
 572 500 l 1
 502 0 l 1
 445 0 l 1x5e
 457 85 l 1
 451 77 445 69 438 62 c 0
 394 13 339 -12 273 -12 c 0
 206 -12 154 13 117 64 c 0
 80 115 68 177 78 250 c 0
 88 323 119 385 170 436 c 0
 221 487 280 512 347 512 c 0xae
 413 512 461 487 491 438 c 0
 495 431 499 423 503 415 c 1
 515 500 l 1x1e
338 452 m 0xae
 286 452 242 432 204 393 c 0
 166 354 143 307 135 250 c 0
 127 193 136 146 163 107 c 0
 190 68 230 48 282 48 c 0
 333 48 377 68 413 106 c 0
 449 144 472 193 480 250 c 0
 488 307 479 356 454 394 c 0
 429 432 389 452 338 452 c 0xae
EndSplineSet
Validated: 33
EndChar

StartChar: acircumflex
Encoding: 226 226 159
GlifName: acircumflex
Width: 572
Flags: W
HStem: -12 60<201.813 366.765> 0 21G<445 504.8> 452 60<252.959 417.09> 480 20G<512.176 572> 680 20G<325.206 439.238>
VStem: 445 57<0 57> 515 57<443 500>
LayerCount: 2
Fore
SplineSet
215 574 m 1x0e
 346 700 l 1
 424 700 l 1
 520 574 l 1
 442 574 l 1
 379 654 l 5
 293 574 l 1
 215 574 l 1x0e
515 500 m 1x1e
 572 500 l 1
 502 0 l 1
 445 0 l 1x5e
 457 85 l 1
 451 77 445 69 438 62 c 0
 394 13 339 -12 273 -12 c 0
 206 -12 154 13 117 64 c 0
 80 115 68 177 78 250 c 0
 88 323 119 385 170 436 c 0
 221 487 280 512 347 512 c 0xae
 413 512 461 487 491 438 c 0
 495 431 499 423 503 415 c 1
 515 500 l 1x1e
338 452 m 0xae
 286 452 242 432 204 393 c 0
 166 354 143 307 135 250 c 0
 127 193 136 146 163 107 c 0
 190 68 230 48 282 48 c 0
 333 48 377 68 413 106 c 0
 449 144 472 193 480 250 c 0
 488 307 479 356 454 394 c 0
 429 432 389 452 338 452 c 0xae
EndSplineSet
Validated: 33
EndChar

StartChar: atilde
Encoding: 227 227 160
GlifName: atilde
Width: 572
Flags: W
HStem: -12 60<201.813 366.765> 0 21G<445 504.8> 452 60<252.959 417.09> 480 20G<512.176 572> 572 56<396.619 462.354> 644 56<282.384 345.541>
VStem: 445 57<0 57> 469 56<634.039 666> 515 57<443 500>
LayerCount: 2
Fore
SplineSet
420 572 m 0x0d
 392 572 370 584 355 608 c 0
 349 617 343 626 338 633 c 0
 333 640 327 644 319 644 c 0
 300 644 284 632 275 607 c 1
 219 607 l 1
 226 633 240 654 260 672 c 0
 280 690 302 699 326 700 c 0
 350 700 371 688 387 664 c 0
 393 655 399 646 405 639 c 0
 411 632 418 628 427 628 c 0
 447 628 462 641 469 666 c 1
 525 666 l 1
 517 639 504 616 485 598 c 0
 466 580 444 572 420 572 c 0x0d
515 500 m 1x1e80
 572 500 l 1
 502 0 l 1
 445 0 l 1x5e80
 457 85 l 1
 451 77 445 69 438 62 c 0
 394 13 339 -12 273 -12 c 0
 206 -12 154 13 117 64 c 0
 80 115 68 177 78 250 c 0
 88 323 119 385 170 436 c 0
 221 487 280 512 347 512 c 0xae80
 413 512 461 487 491 438 c 0
 495 431 499 423 503 415 c 1
 515 500 l 1x1e80
338 452 m 0xac
 286 452 242 432 204 393 c 0
 166 354 143 307 135 250 c 0
 127 193 136 146 163 107 c 0
 190 68 230 48 282 48 c 0
 333 48 377 68 413 106 c 0
 449 144 472 193 480 250 c 0
 488 307 479 356 454 394 c 0
 429 432 389 452 338 452 c 0xac
EndSplineSet
Validated: 33
EndChar

StartChar: adieresis
Encoding: 228 228 161
GlifName: adieresis
Width: 572
Flags: W
HStem: -12 60<201.813 366.765> 0 21G<445 504.8> 452 60<252.959 417.09> 480 20G<512.176 572> 630 80<236.283 297.717 466.283 527.717>
VStem: 445 57<0 57> 515 57<443 500>
LayerCount: 2
Fore
SplineSet
273 710 m 4x0e
 284 710 292 706 298 698 c 4
 304 690 307 681 305 670 c 4
 303 659 298 650 290 642 c 4
 282 634 272 630 261 630 c 4
 250 630 242 634 236 642 c 4
 230 650 227 659 229 670 c 4
 231 681 236 690 244 698 c 4
 252 706 262 710 273 710 c 4x0e
503 710 m 4
 514 710 522 706 528 698 c 4
 534 690 537 681 535 670 c 4
 533 659 528 650 520 642 c 4
 512 634 502 630 491 630 c 4
 480 630 472 634 466 642 c 4
 460 650 457 659 459 670 c 4
 461 681 466 690 474 698 c 4
 482 706 492 710 503 710 c 4
515 500 m 1x1e
 572 500 l 1
 502 0 l 1
 445 0 l 1x5e
 457 85 l 1
 451 77 445 69 438 62 c 0
 394 13 339 -12 273 -12 c 0
 206 -12 154 13 117 64 c 0
 80 115 68 177 78 250 c 0
 88 323 119 385 170 436 c 0
 221 487 280 512 347 512 c 0xae
 413 512 461 487 491 438 c 0
 495 431 499 423 503 415 c 1
 515 500 l 1x1e
338 452 m 0xae
 286 452 242 432 204 393 c 0
 166 354 143 307 135 250 c 0
 127 193 136 146 163 107 c 0
 190 68 230 48 282 48 c 0
 333 48 377 68 413 106 c 0
 449 144 472 193 480 250 c 0
 488 307 479 356 454 394 c 0
 429 432 389 452 338 452 c 0xae
EndSplineSet
Validated: 33
EndChar

StartChar: aring
Encoding: 229 229 162
GlifName: aring
Width: 572
Flags: W
HStem: -12 60<201.813 366.765> 0 21G<445 504.8> 452 60<252.959 417.09> 480 20G<512.176 572> 564 45<345.667 409.579> 689 45<347.628 411.39>
VStem: 297 44<621.376 681.625> 417 43<617.303 676.624> 445 57<0 57> 515 57<443 500>
LayerCount: 2
Fore
SplineSet
391 734 m 0x0f40
 413 734 431 726 445 709 c 0x0ec0
 459 692 463 673 460 649 c 0
 457 625 446 606 428 589 c 0
 410 572 389 564 367 564 c 0
 345 564 327 572 313 589 c 0
 299 606 294 625 297 649 c 0
 300 673 312 692 330 709 c 0
 348 726 369 734 391 734 c 0x0f40
384 689 m 0
 374 689 365 685 356 677 c 0
 347 669 343 660 341 649 c 0
 339 638 342 629 348 621 c 0
 354 613 363 609 373 609 c 0
 383 609 392 613 401 621 c 0
 410 629 415 638 417 649 c 0x0f40
 419 660 415 669 409 677 c 0
 403 685 394 689 384 689 c 0
515 500 m 1x1ec0
 572 500 l 1
 502 0 l 1
 445 0 l 1x5ec0
 457 85 l 1
 451 77 445 69 438 62 c 0
 394 13 339 -12 273 -12 c 0
 206 -12 154 13 117 64 c 0
 80 115 68 177 78 250 c 0
 88 323 119 385 170 436 c 0
 221 487 280 512 347 512 c 0xaec0
 413 512 461 487 491 438 c 0
 495 431 499 423 503 415 c 1
 515 500 l 1x1ec0
338 452 m 0xae40
 286 452 242 432 204 393 c 0
 166 354 143 307 135 250 c 0
 127 193 136 146 163 107 c 0
 190 68 230 48 282 48 c 0
 333 48 377 68 413 106 c 0
 449 144 472 193 480 250 c 0
 488 307 479 356 454 394 c 0
 429 432 389 452 338 452 c 0xae40
EndSplineSet
Validated: 33
EndChar

StartChar: ae
Encoding: 230 230 163
GlifName: ae
Width: 994
Flags: W
HStem: -12 60<201.813 366.765 672.37 857.36> 0 21G<445 504.8> 220 60<611 940.497> 452 60<252.959 417.09 722.856 884.747> 480 20G<512.176 572>
VStem: 445 57<0 57> 515 57<443 500>
LayerCount: 2
Fore
SplineSet
515 500 m 1x2e
 572 500 l 1
 502 0 l 1
 445 0 l 1x6e
 457 85 l 1
 451 77 445 69 438 62 c 0
 394 13 339 -12 273 -12 c 0
 206 -12 154 13 117 64 c 0
 80 115 68 177 78 250 c 0
 88 323 119 385 170 436 c 0
 221 487 280 512 347 512 c 0xb6
 413 512 461 487 491 438 c 0
 495 431 499 423 503 415 c 1
 515 500 l 1x2e
338 452 m 0xb6
 286 452 242 432 204 393 c 0
 166 354 143 307 135 250 c 0
 127 193 136 146 163 107 c 0
 190 68 230 48 282 48 c 0
 333 48 377 68 413 106 c 0
 449 144 472 193 480 250 c 0
 488 307 479 356 454 394 c 0
 429 432 389 452 338 452 c 0xb6
989 220 m 1
 603 220 l 1
 602 170 614 129 641 97 c 0
 668 65 705 48 752 48 c 0
 818 48 873 68 916 107 c 1
 949 63 l 1
 895 13 826 -12 744 -12 c 0
 677 -12 625 13 588 64 c 0
 551 115 538 177 548 250 c 0
 558 323 589 385 640 436 c 0
 691 487 750 512 817 512 c 0
 883 512 932 488 963 438 c 0
 994 388 1005 325 994 250 c 2
 989 220 l 1
809 452 m 0
 762 452 720 435 684 403 c 0
 648 371 624 330 611 280 c 1
 940 280 l 1
 943 331 933 372 911 404 c 0
 889 436 855 452 809 452 c 0
EndSplineSet
Validated: 33
EndChar

StartChar: ccedilla
Encoding: 231 231 164
GlifName: ccedilla
Width: 474
Flags: W
HStem: -210 57<154.359 269.086> -12 60<201.813 367.361> 452 60<252.709 417.803>
LayerCount: 2
Fore
SplineSet
330 33 m 1
 355 5 365 -29 359 -70 c 0
 354 -109 336 -142 306 -169 c 0
 276 -196 243 -210 206 -210 c 0
 176 -210 150 -200 129 -181 c 1
 156 -152 170 -137 170 -137 c 5
 182 -147 197 -153 214 -153 c 0
 236 -153 255 -144 273 -128 c 0
 291 -112 301 -93 304 -70 c 0
 306 -54 305 -39 299 -26 c 0
 293 -13 284 -3 272 4 c 1
 330 33 l 1
347 512 m 0
 414 512 465 487 502 437 c 1
 457 393 l 1
 429 432 390 452 338 452 c 0
 286 452 242 432 204 393 c 0
 166 354 143 307 135 250 c 0
 127 193 136 146 163 107 c 0
 190 68 230 48 282 48 c 0
 334 48 379 68 417 107 c 1
 450 63 l 1
 399 13 340 -12 273 -12 c 0
 206 -12 154 13 117 64 c 0
 80 115 68 177 78 250 c 0
 88 323 118 385 169 436 c 0
 220 487 280 512 347 512 c 0
EndSplineSet
Validated: 37
EndChar

StartChar: egrave
Encoding: 232 232 165
GlifName: egrave
Width: 521
Flags: W
HStem: -12 60<203.171 388.141> 220 60<141 469.497> 452 60<252.719 414.247> 681 20G<231 328.858>
LayerCount: 2
Fore
SplineSet
331 574 m 1
 231 701 l 1
 315 701 l 1
 403 574 l 1
 331 574 l 1
519 220 m 1
 132 220 l 1
 131 170 144 129 171 97 c 0
 198 65 235 48 282 48 c 0
 348 48 402 68 445 107 c 1
 478 63 l 1
 424 13 355 -12 273 -12 c 0
 206 -12 154 13 117 64 c 0
 80 115 68 177 78 250 c 0
 88 323 119 385 170 436 c 0
 221 487 280 512 347 512 c 0
 413 512 462 488 493 438 c 0
 524 388 534 325 523 250 c 2
 519 220 l 1
338 452 m 0
 291 452 250 435 214 403 c 0
 178 371 154 330 141 280 c 1
 469 280 l 1
 472 331 462 372 440 404 c 0
 418 436 384 452 338 452 c 0
EndSplineSet
Validated: 33
EndChar

StartChar: eacute
Encoding: 233 233 166
GlifName: eacute
Width: 521
Flags: W
HStem: -12 60<203.171 388.141> 220 60<141 469.497> 452 60<252.719 414.247> 680 20G<414.635 518>
LayerCount: 2
Fore
SplineSet
312 574 m 1
 434 700 l 1
 518 700 l 1
 385 574 l 1
 312 574 l 1
519 220 m 1
 132 220 l 1
 131 170 144 129 171 97 c 0
 198 65 235 48 282 48 c 0
 348 48 402 68 445 107 c 1
 478 63 l 1
 424 13 355 -12 273 -12 c 0
 206 -12 154 13 117 64 c 0
 80 115 68 177 78 250 c 0
 88 323 119 385 170 436 c 0
 221 487 280 512 347 512 c 0
 413 512 462 488 493 438 c 0
 524 388 534 325 523 250 c 2
 519 220 l 1
338 452 m 0
 291 452 250 435 214 403 c 0
 178 371 154 330 141 280 c 1
 469 280 l 1
 472 331 462 372 440 404 c 0
 418 436 384 452 338 452 c 0
EndSplineSet
Validated: 33
EndChar

StartChar: ecircumflex
Encoding: 234 234 167
GlifName: ecircumflex
Width: 521
Flags: W
HStem: -12 60<203.171 388.141> 220 60<141 469.497> 452 60<252.719 414.247> 680 20G<309.206 423.238>
LayerCount: 2
Fore
SplineSet
199 574 m 1
 330 700 l 1
 408 700 l 1
 504 574 l 1
 426 574 l 1
 363 654 l 5
 277 574 l 1
 199 574 l 1
519 220 m 1
 132 220 l 1
 131 170 144 129 171 97 c 0
 198 65 235 48 282 48 c 0
 348 48 402 68 445 107 c 1
 478 63 l 1
 424 13 355 -12 273 -12 c 0
 206 -12 154 13 117 64 c 0
 80 115 68 177 78 250 c 0
 88 323 119 385 170 436 c 0
 221 487 280 512 347 512 c 0
 413 512 462 488 493 438 c 0
 524 388 534 325 523 250 c 2
 519 220 l 1
338 452 m 0
 291 452 250 435 214 403 c 0
 178 371 154 330 141 280 c 1
 469 280 l 1
 472 331 462 372 440 404 c 0
 418 436 384 452 338 452 c 0
EndSplineSet
Validated: 33
EndChar

StartChar: edieresis
Encoding: 235 235 168
GlifName: edieresis
Width: 521
Flags: W
HStem: -12 60<203.171 388.141> 220 60<141 469.497> 452 60<252.719 414.247> 630 80<220.283 281.717 450.283 511.717>
LayerCount: 2
Fore
SplineSet
257 710 m 4
 268 710 276 706 282 698 c 4
 288 690 291 681 289 670 c 4
 287 659 282 650 274 642 c 4
 266 634 256 630 245 630 c 4
 234 630 226 634 220 642 c 4
 214 650 211 659 213 670 c 4
 215 681 220 690 228 698 c 4
 236 706 246 710 257 710 c 4
486 710 m 4
 497 710 506 706 512 698 c 4
 518 690 521 681 519 670 c 4
 517 659 512 650 504 642 c 4
 496 634 486 630 475 630 c 4
 464 630 456 634 450 642 c 4
 444 650 441 659 443 670 c 4
 445 681 450 690 458 698 c 4
 466 706 475 710 486 710 c 4
519 220 m 1
 132 220 l 1
 131 170 144 129 171 97 c 0
 198 65 235 48 282 48 c 0
 348 48 402 68 445 107 c 1
 478 63 l 1
 424 13 355 -12 273 -12 c 0
 206 -12 154 13 117 64 c 0
 80 115 68 177 78 250 c 0
 88 323 119 385 170 436 c 0
 221 487 280 512 347 512 c 0
 413 512 462 488 493 438 c 0
 524 388 534 325 523 250 c 2
 519 220 l 1
338 452 m 0
 291 452 250 435 214 403 c 0
 178 371 154 330 141 280 c 1
 469 280 l 1
 472 331 462 372 440 404 c 0
 418 436 384 452 338 452 c 0
EndSplineSet
Validated: 33
EndChar

StartChar: igrave
Encoding: 236 236 169
GlifName: igrave
Width: 209
Flags: W
HStem: 0 21G<75 134.8> 480 20G<142.2 202> 681 20G<47 145.701>
VStem: 75 57<0 57> 145 57<443 500>
LayerCount: 2
Fore
SplineSet
147 574 m 1
 47 701 l 1
 132 701 l 1
 219 574 l 1
 147 574 l 1
75 0 m 1
 145 500 l 1
 202 500 l 1
 132 0 l 1
 75 0 l 1
EndSplineSet
Validated: 1
EndChar

StartChar: iacute
Encoding: 237 237 170
GlifName: iacute
Width: 209
Flags: W
HStem: 0 21G<75 134.8> 480 20G<142.2 202> 680 20G<247.635 351>
VStem: 75 57<0 57> 145 57<443 500>
LayerCount: 2
Fore
SplineSet
145 574 m 1
 267 700 l 1
 351 700 l 1
 217 574 l 1
 145 574 l 1
75 0 m 1
 145 500 l 1
 202 500 l 1
 132 0 l 1
 75 0 l 1
EndSplineSet
Validated: 1
EndChar

StartChar: icircumflex
Encoding: 238 238 171
GlifName: icircumflex
Width: 208
Flags: W
HStem: 0 21G<75 134.8> 480 20G<142.2 202> 680 20G<142.048 256.238>
VStem: 75 57<0 57> 145 57<443 500>
LayerCount: 2
Fore
SplineSet
31 574 m 1
 163 700 l 1
 241 700 l 1
 337 574 l 1
 259 574 l 1
 196 654 l 5
 109 574 l 1
 31 574 l 1
75 0 m 1
 145 500 l 1
 202 500 l 1
 132 0 l 1
 75 0 l 1
EndSplineSet
Validated: 1
EndChar

StartChar: idieresis
Encoding: 239 239 172
GlifName: idieresis
Width: 209
Flags: W
HStem: 0 21G<75 134.8> 480 20G<142.2 202> 630 80<101.283 162.717 234.283 295.717>
VStem: 75 57<0 57> 145 57<443 500>
LayerCount: 2
Fore
SplineSet
75 0 m 1
 145 500 l 1
 202 500 l 1
 132 0 l 1
 75 0 l 1
138 710 m 4
 149 710 157 706 163 698 c 4
 169 690 172 681 170 670 c 4
 168 659 163 650 155 642 c 4
 147 634 138 630 127 630 c 4
 116 630 107 634 101 642 c 4
 95 650 92 659 94 670 c 4
 96 681 101 690 109 698 c 4
 117 706 127 710 138 710 c 4
271 710 m 4
 282 710 290 706 296 698 c 4
 302 690 305 681 303 670 c 4
 301 659 296 650 288 642 c 4
 280 634 271 630 260 630 c 4
 249 630 240 634 234 642 c 4
 228 650 225 659 227 670 c 4
 229 681 234 690 242 698 c 4
 250 706 260 710 271 710 c 4
EndSplineSet
Validated: 1
EndChar

StartChar: eth
Encoding: 240 240 173
GlifName: eth
Width: 559
Flags: W
HStem: -12 60<203.276 369.048> 452 60<253.952 419.894> 654 58<265 344.883> 683 20G<462 502.612>
LayerCount: 2
Fore
SplineSet
348 512 m 0xc0
 416 512 469 487 505 436 c 0
 541 385 554 324 544 250 c 0
 534 176 503 115 452 64 c 0
 401 13 343 -12 275 -12 c 0
 207 -12 155 13 119 64 c 0
 83 115 69 176 79 250 c 0
 89 324 120 385 171 436 c 0
 222 487 280 512 348 512 c 0xc0
340 452 m 0
 288 452 243 432 205 393 c 0
 167 354 144 307 136 250 c 0
 128 193 138 146 165 107 c 0
 192 68 231 48 283 48 c 0
 335 48 380 68 418 107 c 0
 456 146 479 193 487 250 c 0
 495 307 485 354 458 393 c 0
 431 432 392 452 340 452 c 0
242 654 m 1xe0
 265 712 l 1
 281 712 303 709 331 702 c 0
 354 696 376 688 396 678 c 0
 416 668 438 651 461 628 c 0
 484 605 503 577 518 546 c 0
 533 515 543 473 549 422 c 0
 555 371 553 314 544 250 c 1
 487 250 l 1
 500 339 496 412 479 469 c 4
 462 524 439 564 409 590 c 0
 377 617 346 635 318 642 c 0
 288 650 263 654 242 654 c 1xe0
315 585 m 1
 492 703 l 1xd0
 518 654 l 1
 341 536 l 1
 315 585 l 1
EndSplineSet
Validated: 37
EndChar

StartChar: ntilde
Encoding: 241 241 174
GlifName: ntilde
Width: 526
Flags: W
HStem: 0 21G<71 130.836 412 471.836> 452 60<260.014 401.387> 480 20G<139.16 199> 572 56<379.788 445.348> 644 56<265.314 328.541>
VStem: 71 57<0 57> 142 57<443 500> 412 57<0 57> 452 56<634.039 666>
LayerCount: 2
Fore
SplineSet
402 572 m 0x9e80
 374 572 353 584 338 608 c 0
 332 617 326 626 321 633 c 0
 316 640 309 644 301 644 c 0
 282 644 267 632 258 607 c 1
 202 607 l 1
 209 633 223 654 243 672 c 0
 263 690 285 699 309 700 c 0
 333 700 354 688 370 664 c 0
 376 655 382 646 388 639 c 0
 394 632 401 628 410 628 c 0
 430 628 445 641 452 666 c 1
 508 666 l 1
 500 639 486 616 467 598 c 0
 448 580 426 572 402 572 c 0x9e80
469 0 m 1xdf
 412 0 l 1
 450 268 l 2
 458 325 450 369 428 402 c 0
 406 435 375 452 334 452 c 0xdf
 293 452 257 435 225 402 c 0
 193 369 174 325 166 268 c 2
 128 0 l 5
 71 0 l 5
 142 500 l 1
 199 500 l 1xbf
 189 432 l 1
 193 437 196 442 200 446 c 0
 239 490 287 512 342 512 c 0
 399 512 443 490 475 445 c 0
 507 400 517 341 507 268 c 2
 469 0 l 1xdf
EndSplineSet
Validated: 33
EndChar

StartChar: ograve
Encoding: 242 242 175
GlifName: ograve
Width: 550
Flags: W
HStem: -12 60<201.813 367.611> 452 60<252.959 418.187> 681 20G<229 326.858>
LayerCount: 2
Fore
SplineSet
329 574 m 1
 229 701 l 1
 313 701 l 1
 401 574 l 1
 329 574 l 1
338 452 m 0
 286 452 242 432 204 393 c 0
 166 354 143 307 135 250 c 0
 127 193 136 146 163 107 c 0
 190 68 230 48 282 48 c 0
 334 48 379 68 417 107 c 0
 455 146 477 193 485 250 c 0
 493 307 484 354 457 393 c 0
 430 432 390 452 338 452 c 0
347 512 m 0
 414 512 466 487 503 436 c 0
 540 385 552 323 542 250 c 0
 532 177 502 115 451 64 c 0
 400 13 340 -12 273 -12 c 0
 206 -12 154 13 117 64 c 0
 80 115 68 177 78 250 c 0
 88 323 119 385 170 436 c 0
 221 487 280 512 347 512 c 0
EndSplineSet
Validated: 33
EndChar

StartChar: oacute
Encoding: 243 243 176
GlifName: oacute
Width: 550
Flags: W
HStem: -12 60<201.813 367.611> 452 60<252.959 418.187> 680 20G<420.794 525>
LayerCount: 2
Fore
SplineSet
319 574 m 1
 440 700 l 1
 525 700 l 1
 391 574 l 1
 319 574 l 1
338 452 m 0
 286 452 242 432 204 393 c 0
 166 354 143 307 135 250 c 0
 127 193 136 146 163 107 c 0
 190 68 230 48 282 48 c 0
 334 48 379 68 417 107 c 0
 455 146 477 193 485 250 c 0
 493 307 484 354 457 393 c 0
 430 432 390 452 338 452 c 0
347 512 m 0
 414 512 466 487 503 436 c 0
 540 385 552 323 542 250 c 0
 532 177 502 115 451 64 c 0
 400 13 340 -12 273 -12 c 0
 206 -12 154 13 117 64 c 0
 80 115 68 177 78 250 c 0
 88 323 119 385 170 436 c 0
 221 487 280 512 347 512 c 0
EndSplineSet
Validated: 33
EndChar

StartChar: ocircumflex
Encoding: 244 244 177
GlifName: ocircumflex
Width: 550
Flags: W
HStem: -12 60<201.813 367.611> 452 60<252.959 418.187> 680 20G<324.206 438.238>
LayerCount: 2
Fore
SplineSet
214 574 m 1
 345 700 l 1
 423 700 l 1
 519 574 l 1
 441 574 l 1
 378 654 l 5
 292 574 l 1
 214 574 l 1
338 452 m 0
 286 452 242 432 204 393 c 0
 166 354 143 307 135 250 c 0
 127 193 136 146 163 107 c 0
 190 68 230 48 282 48 c 0
 334 48 379 68 417 107 c 0
 455 146 477 193 485 250 c 0
 493 307 484 354 457 393 c 0
 430 432 390 452 338 452 c 0
347 512 m 0
 414 512 466 487 503 436 c 0
 540 385 552 323 542 250 c 0
 532 177 502 115 451 64 c 0
 400 13 340 -12 273 -12 c 0
 206 -12 154 13 117 64 c 0
 80 115 68 177 78 250 c 0
 88 323 119 385 170 436 c 0
 221 487 280 512 347 512 c 0
EndSplineSet
Validated: 33
EndChar

StartChar: otilde
Encoding: 245 245 178
GlifName: otilde
Width: 550
Flags: W
HStem: -12 60<201.813 367.611> 452 60<252.959 418.187> 572 56<396.619 462.354> 644 56<282.384 345.541>
VStem: 469 56<634.039 666>
LayerCount: 2
Fore
SplineSet
420 572 m 0
 392 572 370 584 355 608 c 0
 349 617 343 626 338 633 c 0
 333 640 327 644 319 644 c 0
 300 644 284 632 275 607 c 1
 219 607 l 1
 226 633 240 654 260 672 c 0
 280 690 302 699 326 700 c 0
 350 700 371 688 387 664 c 0
 393 655 399 646 405 639 c 0
 411 632 418 628 427 628 c 0
 447 628 462 641 469 666 c 1
 525 666 l 1
 517 639 504 616 485 598 c 0
 466 580 444 572 420 572 c 0
338 452 m 0
 286 452 242 432 204 393 c 0
 166 354 143 307 135 250 c 0
 127 193 136 146 163 107 c 0
 190 68 230 48 282 48 c 0
 334 48 379 68 417 107 c 0
 455 146 477 193 485 250 c 0
 493 307 484 354 457 393 c 0
 430 432 390 452 338 452 c 0
347 512 m 0
 414 512 466 487 503 436 c 0
 540 385 552 323 542 250 c 0
 532 177 502 115 451 64 c 0
 400 13 340 -12 273 -12 c 0
 206 -12 154 13 117 64 c 0
 80 115 68 177 78 250 c 0
 88 323 119 385 170 436 c 0
 221 487 280 512 347 512 c 0
EndSplineSet
Validated: 33
EndChar

StartChar: odieresis
Encoding: 246 246 179
GlifName: odieresis
Width: 550
Flags: W
HStem: -12 60<201.813 367.611> 452 60<252.959 418.187> 630 80<230.283 291.717 460.283 521.717>
LayerCount: 2
Fore
SplineSet
267 710 m 4
 278 710 286 706 292 698 c 4
 298 690 301 681 299 670 c 4
 297 659 292 650 284 642 c 4
 276 634 267 630 256 630 c 4
 245 630 236 634 230 642 c 4
 224 650 221 659 223 670 c 4
 225 681 230 690 238 698 c 4
 246 706 256 710 267 710 c 4
497 710 m 4
 508 710 516 706 522 698 c 4
 528 690 531 681 529 670 c 4
 527 659 522 650 514 642 c 4
 506 634 497 630 486 630 c 4
 475 630 466 634 460 642 c 4
 454 650 451 659 453 670 c 4
 455 681 460 690 468 698 c 4
 476 706 486 710 497 710 c 4
338 452 m 0
 286 452 242 432 204 393 c 0
 166 354 143 307 135 250 c 0
 127 193 136 146 163 107 c 0
 190 68 230 48 282 48 c 0
 334 48 379 68 417 107 c 0
 455 146 477 193 485 250 c 0
 493 307 484 354 457 393 c 0
 430 432 390 452 338 452 c 0
347 512 m 0
 414 512 466 487 503 436 c 0
 540 385 552 323 542 250 c 0
 532 177 502 115 451 64 c 0
 400 13 340 -12 273 -12 c 0
 206 -12 154 13 117 64 c 0
 80 115 68 177 78 250 c 0
 88 323 119 385 170 436 c 0
 221 487 280 512 347 512 c 0
EndSplineSet
Validated: 33
EndChar

StartChar: divide
Encoding: 247 247 180
GlifName: divide
Width: 589
Flags: W
HStem: 109 80<292.376 338.624> 267 61<160 513> 406 80<326.283 387.717>
CounterMasks: 1 e0
LayerCount: 2
Fore
SplineSet
363 486 m 0
 374 486 382 482 388 474 c 0
 394 466 397 457 395 446 c 0
 393 435 388 426 380 418 c 0
 372 410 363 406 352 406 c 0
 341 406 332 410 326 418 c 0
 320 426 317 435 319 446 c 0
 321 457 326 466 334 474 c 0
 342 482 352 486 363 486 c 0
160 328 m 1
 521 328 l 1
 513 267 l 1
 152 267 l 1
 160 328 l 1
321 189 m 0
 332 189 341 186 347 178 c 0
 353 170 355 160 353 149 c 0
 351 138 347 128 339 120 c 0
 331 112 321 109 310 109 c 0
 299 109 290 112 284 120 c 0
 278 128 275 138 277 149 c 0
 279 160 284 170 292 178 c 0
 300 186 310 189 321 189 c 0
EndSplineSet
Validated: 1
EndChar

StartChar: oslash
Encoding: 248 248 181
GlifName: oslash
Width: 550
Flags: W
HStem: -12 60<201.813 367.611> 452 60<252.959 418.187>
LayerCount: 2
Fore
SplineSet
338 452 m 0
 286 452 242 432 204 393 c 0
 166 354 143 307 135 250 c 0
 127 193 136 146 163 107 c 0
 190 68 230 48 282 48 c 0
 334 48 379 68 417 107 c 0
 455 146 477 193 485 250 c 0
 493 307 484 354 457 393 c 0
 430 432 390 452 338 452 c 0
347 512 m 0
 414 512 466 487 503 436 c 0
 540 385 552 323 542 250 c 0
 532 177 502 115 451 64 c 0
 400 13 340 -12 273 -12 c 0
 206 -12 154 13 117 64 c 0
 80 115 68 177 78 250 c 0
 88 323 119 385 170 436 c 0
 221 487 280 512 347 512 c 0
519 512 m 1
 557 473 l 1
 102 -12 l 1
 64 27 l 1
 519 512 l 1
EndSplineSet
Validated: 37
EndChar

StartChar: ugrave
Encoding: 249 249 182
GlifName: ugrave
Width: 512
Flags: W
HStem: -12 60<194.907 337.032> 480 20G<124.239 184 465.239 525> 681 20G<213 311.858>
VStem: 127 57<443 500> 468 57<443 500>
LayerCount: 2
Fore
SplineSet
313 574 m 1
 213 701 l 1
 298 701 l 1
 386 574 l 1
 313 574 l 1
127 500 m 1
 184 500 l 1
 147 232 l 2
 139 175 146 131 168 98 c 0
 190 65 222 48 263 48 c 0
 304 48 339 65 371 98 c 0
 403 131 423 175 431 232 c 2
 468 500 l 1
 525 500 l 1
 488 232 l 2
 478 159 450 100 406 55 c 0
 362 10 311 -12 254 -12 c 0
 197 -12 154 10 122 55 c 0
 90 100 80 159 90 232 c 2
 127 500 l 1
EndSplineSet
Validated: 33
EndChar

StartChar: uacute
Encoding: 250 250 183
GlifName: uacute
Width: 512
Flags: W
HStem: -12 60<194.907 337.032> 480 20G<124.239 184 465.239 525> 680 20G<409.794 514>
VStem: 127 57<443 500> 468 57<443 500>
LayerCount: 2
Fore
SplineSet
308 574 m 1
 429 700 l 1
 514 700 l 1
 380 574 l 1
 308 574 l 1
127 500 m 1
 184 500 l 1
 147 232 l 2
 139 175 146 131 168 98 c 0
 190 65 222 48 263 48 c 0
 304 48 339 65 371 98 c 0
 403 131 423 175 431 232 c 2
 468 500 l 1
 525 500 l 1
 488 232 l 2
 478 159 450 100 406 55 c 0
 362 10 311 -12 254 -12 c 0
 197 -12 154 10 122 55 c 0
 90 100 80 159 90 232 c 2
 127 500 l 1
EndSplineSet
Validated: 33
EndChar

StartChar: ucircumflex
Encoding: 251 251 184
GlifName: ucircumflex
Width: 512
Flags: W
HStem: -12 60<194.907 337.032> 480 20G<124.239 184 465.239 525> 680 20G<295.048 409.238>
VStem: 127 57<443 500> 468 57<443 500>
LayerCount: 2
Fore
SplineSet
184 574 m 1
 316 700 l 1
 394 700 l 1
 490 574 l 1
 412 574 l 1
 348 654 l 5
 262 574 l 1
 184 574 l 1
127 500 m 1
 184 500 l 1
 147 232 l 2
 139 175 146 131 168 98 c 0
 190 65 222 48 263 48 c 0
 304 48 339 65 371 98 c 0
 403 131 423 175 431 232 c 2
 468 500 l 1
 525 500 l 1
 488 232 l 2
 478 159 450 100 406 55 c 0
 362 10 311 -12 254 -12 c 0
 197 -12 154 10 122 55 c 0
 90 100 80 159 90 232 c 2
 127 500 l 1
EndSplineSet
Validated: 33
EndChar

StartChar: udieresis
Encoding: 252 252 185
GlifName: udieresis
Width: 512
Flags: W
HStem: -12 60<194.907 337.032> 480 20G<124.239 184 465.239 525> 630 80<207.337 269.717 437.283 499.663>
VStem: 127 57<443 500> 468 57<443 500>
LayerCount: 2
Fore
SplineSet
244 710 m 4
 255 710 264 706 270 698 c 4
 276 690 279 681 277 670 c 4
 275 659 270 650 262 642 c 4
 254 634 244 630 233 630 c 4
 222 630 213 634 207 642 c 4
 201 650 199 659 201 670 c 4
 203 681 207 690 215 698 c 4
 223 706 233 710 244 710 c 4
474 710 m 4
 485 710 494 706 500 698 c 4
 506 690 508 681 506 670 c 4
 504 659 500 650 492 642 c 4
 484 634 474 630 463 630 c 4
 452 630 443 634 437 642 c 4
 431 650 428 659 430 670 c 4
 432 681 437 690 445 698 c 4
 453 706 463 710 474 710 c 4
127 500 m 1
 184 500 l 1
 147 232 l 2
 139 175 146 131 168 98 c 0
 190 65 222 48 263 48 c 0
 304 48 339 65 371 98 c 0
 403 131 423 175 431 232 c 2
 468 500 l 1
 525 500 l 1
 488 232 l 2
 478 159 450 100 406 55 c 0
 362 10 311 -12 254 -12 c 0
 197 -12 154 10 122 55 c 0
 90 100 80 159 90 232 c 2
 127 500 l 1
EndSplineSet
Validated: 33
EndChar

StartChar: yacute
Encoding: 253 253 186
GlifName: yacute
Width: 480
Flags: W
HStem: -212 59<-2 104.656> 480 20G<80 147.166 469.147 541> 680 20G<368.794 473>
VStem: 80 62<438 500>
LayerCount: 2
Fore
SplineSet
267 574 m 1
 388 700 l 1
 473 700 l 1
 339 574 l 1
 267 574 l 1
80 500 m 1
 142 500 l 1
 251 78 l 1
 480 500 l 1
 541 500 l 1
 227 -80 l 2
 205 -120 175 -152 137 -176 c 0
 99 -200 60 -212 18 -212 c 2
 -11 -212 l 1
 -2 -153 l 1
 26 -153 l 2
 57 -153 86 -144 113 -127 c 0
 140 -110 162 -87 178 -57 c 2
 209 0 l 1
 80 500 l 1
EndSplineSet
Validated: 1
EndChar

StartChar: thorn
Encoding: 254 254 187
GlifName: thorn
Width: 578
Flags: W
HStem: -200 21G<42 101.807> -12 60<223.53 389.048> 452 60<274.666 439.894> 680 20G<165.2 225>
VStem: 42 57<-200 -143> 168 57<643 700>
LayerCount: 2
Fore
SplineSet
99 -200 m 1
 42 -200 l 1
 168 700 l 1
 225 700 l 1
 185 415 l 1
 191 423 198 431 204 438 c 0
 248 487 302 512 368 512 c 0
 436 512 489 487 525 436 c 0
 561 385 574 324 564 250 c 0
 554 176 523 115 472 64 c 0
 421 13 363 -12 295 -12 c 0
 229 -12 181 13 151 62 c 0
 147 69 143 77 139 85 c 1
 99 -200 l 1
360 452 m 0
 309 452 264 432 228 394 c 0
 192 356 170 307 162 250 c 0
 154 193 163 144 188 106 c 0
 213 68 252 48 303 48 c 0
 355 48 400 68 438 107 c 0
 476 146 499 193 507 250 c 0
 515 307 505 354 478 393 c 0
 451 432 412 452 360 452 c 0
EndSplineSet
Validated: 33
EndChar

StartChar: ydieresis
Encoding: 255 255 188
GlifName: ydieresis
Width: 480
Flags: W
HStem: -212 59<-2 104.656> 480 20G<80 147.166 469.147 541> 630 80<187.283 248.717 416.337 478.717>
VStem: 80 62<438 500>
LayerCount: 2
Fore
SplineSet
223 710 m 4
 234 710 243 706 249 698 c 4
 255 690 258 681 256 670 c 4
 254 659 249 650 241 642 c 4
 233 634 223 630 212 630 c 4
 201 630 193 634 187 642 c 4
 181 650 178 659 180 670 c 4
 182 681 187 690 195 698 c 4
 203 706 212 710 223 710 c 4
453 710 m 4
 464 710 473 706 479 698 c 4
 485 690 488 681 486 670 c 4
 484 659 479 650 471 642 c 4
 463 634 453 630 442 630 c 4
 431 630 422 634 416 642 c 4
 410 650 408 659 410 670 c 4
 412 681 416 690 424 698 c 4
 432 706 442 710 453 710 c 4
80 500 m 1
 142 500 l 1
 251 78 l 1
 480 500 l 1
 541 500 l 1
 227 -80 l 2
 205 -120 175 -152 137 -176 c 0
 99 -200 60 -212 18 -212 c 2
 -11 -212 l 1
 -2 -153 l 1
 26 -153 l 2
 57 -153 86 -144 113 -127 c 0
 140 -110 162 -87 178 -57 c 2
 209 0 l 1
 80 500 l 1
EndSplineSet
Validated: 1
EndChar

StartChar: Amacron
Encoding: 256 256 189
GlifName: A_macron
Width: 571
Flags: W
HStem: 0 21G<10 80.7561 496.902 562> 205 60<200 446> 680 20G<346.114 416.286> 750 60<259 536>
VStem: 501 61<0 61>
LayerCount: 2
Fore
SplineSet
251 750 m 1
 259 810 l 1
 544 810 l 1
 536 750 l 1
 251 750 l 1
200 265 m 1
 446 265 l 1
 373 619 l 1
 200 265 l 1
171 205 m 1
 71 0 l 1
 10 0 l 1
 356 700 l 1
 412 700 l 1
 562 0 l 1
 501 0 l 1
 459 205 l 1
 171 205 l 1
EndSplineSet
Validated: 1
EndChar

StartChar: amacron
Encoding: 257 257 190
GlifName: amacron
Width: 572
Flags: W
HStem: -12 60<201.813 366.765> 0 21G<445 504.8> 452 60<252.959 417.09> 480 20G<512.176 572> 580 60<229 505>
VStem: 445 57<0 57> 515 57<443 500>
LayerCount: 2
Fore
SplineSet
220 580 m 1x0e
 229 640 l 1
 514 640 l 1
 505 580 l 1
 220 580 l 1x0e
515 500 m 1x1e
 572 500 l 1
 502 0 l 1
 445 0 l 1x5e
 457 85 l 1
 451 77 445 69 438 62 c 0
 394 13 339 -12 273 -12 c 0
 206 -12 154 13 117 64 c 0
 80 115 68 177 78 250 c 0
 88 323 119 385 170 436 c 0
 221 487 280 512 347 512 c 0xae
 413 512 461 487 491 438 c 0
 495 431 499 423 503 415 c 1
 515 500 l 1x1e
338 452 m 0xae
 286 452 242 432 204 393 c 0
 166 354 143 307 135 250 c 0
 127 193 136 146 163 107 c 0
 190 68 230 48 282 48 c 0
 333 48 377 68 413 106 c 0
 449 144 472 193 480 250 c 0
 488 307 479 356 454 394 c 0
 429 432 389 452 338 452 c 0xae
EndSplineSet
Validated: 33
EndChar

StartChar: Abreve
Encoding: 258 258 191
GlifName: A_breve
Width: 571
Flags: W
HStem: 0 21G<10 80.7561 496.902 562> 205 60<200 446> 680 20G<346.114 416.286> 739 60<342.318 463.462>
VStem: 270 57<819.612 870> 492 57<827.491 870> 501 61<0 61>
LayerCount: 2
Fore
SplineSet
270 870 m 1xfc
 327 870 l 1
 324 849 329 832 343 819 c 0
 357 806 376 799 399 799 c 0
 422 799 443 806 461 819 c 0
 479 832 489 849 492 870 c 1
 549 870 l 1
 544 834 526 804 495 778 c 0
 464 752 430 739 391 739 c 0
 352 739 320 752 297 778 c 0
 274 804 265 834 270 870 c 1xfc
200 265 m 1
 446 265 l 1
 373 619 l 1
 200 265 l 1
171 205 m 1
 71 0 l 1
 10 0 l 1
 356 700 l 1
 412 700 l 1
 562 0 l 1
 501 0 l 1xfa
 459 205 l 1
 171 205 l 1
EndSplineSet
Validated: 33
EndChar

StartChar: abreve
Encoding: 259 259 192
GlifName: abreve
Width: 572
Flags: W
HStem: -12 60<201.813 366.765> 0 21G<445 504.8> 452 60<252.959 417.09> 480 20G<512.176 572> 569 60<315.318 436.046> 680 20G<240.5 300 463.5 522>
VStem: 243 57<649.612 700> 445 57<0 57> 465 57<657.491 700> 515 57<443 500>
LayerCount: 2
Fore
SplineSet
243 700 m 1x0e80
 300 700 l 1
 297 679 302 662 316 649 c 0
 330 636 349 629 372 629 c 0
 395 629 416 636 434 649 c 0
 452 662 462 679 465 700 c 1
 522 700 l 1
 517 664 500 634 469 608 c 0
 438 582 403 569 364 569 c 0
 325 569 293 582 270 608 c 0
 247 634 238 664 243 700 c 1x0e80
515 500 m 1x1f40
 572 500 l 1
 502 0 l 1
 445 0 l 1x5f40
 457 85 l 1
 451 77 445 69 438 62 c 0
 394 13 339 -12 273 -12 c 0
 206 -12 154 13 117 64 c 0
 80 115 68 177 78 250 c 0
 88 323 119 385 170 436 c 0
 221 487 280 512 347 512 c 0xaf40
 413 512 461 487 491 438 c 0
 495 431 499 423 503 415 c 1
 515 500 l 1x1f40
338 452 m 0xae
 286 452 242 432 204 393 c 0
 166 354 143 307 135 250 c 0
 127 193 136 146 163 107 c 0
 190 68 230 48 282 48 c 0
 333 48 377 68 413 106 c 0
 449 144 472 193 480 250 c 0
 488 307 479 356 454 394 c 0
 429 432 389 452 338 452 c 0xae
EndSplineSet
Validated: 33
EndChar

StartChar: Aogonek
Encoding: 260 260 193
GlifName: A_ogonek
Width: 571
Flags: W
HStem: -212 55<446.618 523.436> 0 21G<10 80.7561 496.902 562> 205 60<200 446> 680 20G<346.114 416.286>
VStem: 389 53<-143.577 -76.6406>
LayerCount: 2
Fore
SplineSet
553 -170 m 5
 549 -175 546 -179 541 -183 c 0
 520 -202 496 -212 470 -212 c 0
 444 -212 423 -202 407 -182 c 0
 391 -163 385 -140 389 -114 c 0
 393 -85 408 -59 434 -35 c 0
 452 -19 475 -3 504 12 c 1
 559 12 l 1
 458 -81 l 2
 448 -90 444 -100 442 -112 c 0
 440 -124 442 -135 449 -144 c 0
 456 -153 466 -157 478 -157 c 0
 490 -157 500 -153 509 -144 c 0
 511 -142 513 -140 515 -138 c 9
 553 -170 l 5
200 265 m 1
 446 265 l 1
 373 619 l 1
 200 265 l 1
171 205 m 1
 71 0 l 1
 10 0 l 1
 356 700 l 1
 412 700 l 1
 562 0 l 1
 501 0 l 1
 459 205 l 1
 171 205 l 1
EndSplineSet
Validated: 37
EndChar

StartChar: aogonek
Encoding: 261 261 194
GlifName: aogonek
Width: 572
Flags: W
HStem: -212 55<389.618 466.436> -12 60<201.813 366.765> 0 12<445.645 447> 452 60<252.959 417.09> 480 20G<512.176 572>
VStem: 332 53<-143.577 -76.6406> 515 57<443 500>
LayerCount: 2
Fore
SplineSet
496 -170 m 5xa6
 492 -175 489 -179 484 -183 c 0
 463 -202 439 -212 413 -212 c 0
 387 -212 366 -202 350 -182 c 0
 334 -163 328 -140 332 -114 c 0
 336 -85 351 -59 377 -35 c 0
 395 -19 418 -3 447 12 c 1
 502 12 l 1
 401 -81 l 2
 391 -90 387 -100 385 -112 c 0
 383 -124 385 -135 392 -144 c 0
 399 -153 409 -157 421 -157 c 0
 433 -157 443 -153 452 -144 c 0
 454 -142 456 -140 458 -138 c 9
 496 -170 l 5xa6
515 500 m 1x8e
 572 500 l 1
 502 0 l 1
 445 0 l 1xae
 457 85 l 1
 451 77 445 69 438 62 c 0
 394 13 339 -12 273 -12 c 0
 206 -12 154 13 117 64 c 0
 80 115 68 177 78 250 c 0
 88 323 119 385 170 436 c 0
 221 487 280 512 347 512 c 0xd6
 413 512 461 487 491 438 c 0
 495 431 499 423 503 415 c 1
 515 500 l 1x8e
338 452 m 0xd6
 286 452 242 432 204 393 c 0
 166 354 143 307 135 250 c 0
 127 193 136 146 163 107 c 0
 190 68 230 48 282 48 c 0
 333 48 377 68 413 106 c 0
 449 144 472 193 480 250 c 0
 488 307 479 356 454 394 c 0
 429 432 389 452 338 452 c 0xd6
EndSplineSet
Validated: 37
EndChar

StartChar: Cacute
Encoding: 262 262 195
GlifName: C_acute
Width: 644
Flags: W
HStem: -12 60<274.09 481.511> 652 60<352.899 560.716>
LayerCount: 2
Fore
SplineSet
425 744 m 1
 546 870 l 1
 630 870 l 1
 497 744 l 1
 425 744 l 1
469 712 m 0
 517 712 560 702 598 682 c 0
 636 662 666 635 690 600 c 1
 643 556 l 1
 601 620 541 652 461 652 c 0
 384 652 317 623 259 564 c 0
 201 505 166 434 154 350 c 0
 142 266 158 195 199 136 c 0
 240 77 299 48 376 48 c 0
 456 48 525 80 585 144 c 1
 620 100 l 1
 586 65 547 38 504 18 c 0
 461 -2 415 -12 367 -12 c 0
 273 -12 201 23 151 93 c 0
 101 163 83 249 97 350 c 0
 111 451 154 537 224 607 c 0
 294 677 375 712 469 712 c 0
EndSplineSet
Validated: 33
EndChar

StartChar: cacute
Encoding: 263 263 196
GlifName: cacute
Width: 474
Flags: W
HStem: -12 60<201.813 367.361> 452 60<252.709 417.803> 680 20G<416.794 521>
LayerCount: 2
Fore
SplineSet
315 574 m 1
 436 700 l 1
 521 700 l 1
 387 574 l 1
 315 574 l 1
347 512 m 0
 414 512 465 487 502 437 c 1
 457 393 l 1
 429 432 390 452 338 452 c 0
 286 452 242 432 204 393 c 0
 166 354 143 307 135 250 c 0
 127 193 136 146 163 107 c 0
 190 68 230 48 282 48 c 0
 334 48 379 68 417 107 c 1
 450 63 l 1
 399 13 340 -12 273 -12 c 0
 206 -12 154 13 117 64 c 0
 80 115 68 177 78 250 c 0
 88 323 118 385 169 436 c 0
 220 487 280 512 347 512 c 0
EndSplineSet
Validated: 33
EndChar

StartChar: Ccircumflex
Encoding: 264 264 197
GlifName: C_circumflex
Width: 644
Flags: W
HStem: -12 60<274.09 481.511> 652 60<352.899 560.716>
LayerCount: 2
Fore
SplineSet
320 744 m 1
 452 870 l 1
 530 870 l 1
 626 744 l 1
 548 744 l 1
 484 824 l 5
 398 744 l 1
 320 744 l 1
469 712 m 0
 517 712 560 702 598 682 c 0
 636 662 666 635 690 600 c 1
 643 556 l 1
 601 620 541 652 461 652 c 0
 384 652 317 623 259 564 c 0
 201 505 166 434 154 350 c 0
 142 266 158 195 199 136 c 0
 240 77 299 48 376 48 c 0
 456 48 525 80 585 144 c 1
 620 100 l 1
 586 65 547 38 504 18 c 0
 461 -2 415 -12 367 -12 c 0
 273 -12 201 23 151 93 c 0
 101 163 83 249 97 350 c 0
 111 451 154 537 224 607 c 0
 294 677 375 712 469 712 c 0
EndSplineSet
Validated: 33
EndChar

StartChar: ccircumflex
Encoding: 265 265 198
GlifName: ccircumflex
Width: 474
Flags: W
HStem: -12 60<201.813 367.361> 452 60<252.709 417.803> 680 20G<312.048 426.238>
LayerCount: 2
Fore
SplineSet
201 574 m 1
 333 700 l 1
 411 700 l 1
 507 574 l 1
 429 574 l 1
 365 654 l 5
 279 574 l 1
 201 574 l 1
347 512 m 0
 414 512 465 487 502 437 c 1
 457 393 l 1
 429 432 390 452 338 452 c 0
 286 452 242 432 204 393 c 0
 166 354 143 307 135 250 c 0
 127 193 136 146 163 107 c 0
 190 68 230 48 282 48 c 0
 334 48 379 68 417 107 c 1
 450 63 l 1
 399 13 340 -12 273 -12 c 0
 206 -12 154 13 117 64 c 0
 80 115 68 177 78 250 c 0
 88 323 118 385 169 436 c 0
 220 487 280 512 347 512 c 0
EndSplineSet
Validated: 33
EndChar

StartChar: Cdotaccent
Encoding: 266 266 199
GlifName: C_dotaccent
Width: 644
Flags: W
HStem: -12 60<274.09 481.511> 652 60<352.899 560.716> 800 80<456.337 518.717>
LayerCount: 2
Fore
SplineSet
526 840 m 0
 524 829 519 820 511 812 c 0
 503 804 493 800 482 800 c 0
 471 800 462 804 456 812 c 0
 450 820 448 829 450 840 c 0
 452 851 456 860 464 868 c 0
 472 876 482 880 493 880 c 0
 504 880 513 876 519 868 c 0
 525 860 528 851 526 840 c 0
469 712 m 0
 517 712 560 702 598 682 c 0
 636 662 666 635 690 600 c 1
 643 556 l 1
 601 620 541 652 461 652 c 0
 384 652 317 623 259 564 c 0
 201 505 166 434 154 350 c 0
 142 266 158 195 199 136 c 0
 240 77 299 48 376 48 c 0
 456 48 525 80 585 144 c 1
 620 100 l 1
 586 65 547 38 504 18 c 0
 461 -2 415 -12 367 -12 c 0
 273 -12 201 23 151 93 c 0
 101 163 83 249 97 350 c 0
 111 451 154 537 224 607 c 0
 294 677 375 712 469 712 c 0
EndSplineSet
Validated: 33
EndChar

StartChar: cdotaccent
Encoding: 267 267 200
GlifName: cdotaccent
Width: 474
Flags: W
HStem: -12 60<201.813 367.361> 452 60<252.709 417.803> 630 80<337.337 399.717>
LayerCount: 2
Fore
SplineSet
407 670 m 0
 405 659 400 650 392 642 c 0
 384 634 374 630 363 630 c 0
 352 630 343 634 337 642 c 0
 331 650 329 659 331 670 c 0
 333 681 337 690 345 698 c 0
 353 706 363 710 374 710 c 0
 385 710 394 706 400 698 c 0
 406 690 409 681 407 670 c 0
347 512 m 0
 414 512 465 487 502 437 c 1
 457 393 l 1
 429 432 390 452 338 452 c 0
 286 452 242 432 204 393 c 0
 166 354 143 307 135 250 c 0
 127 193 136 146 163 107 c 0
 190 68 230 48 282 48 c 0
 334 48 379 68 417 107 c 1
 450 63 l 1
 399 13 340 -12 273 -12 c 0
 206 -12 154 13 117 64 c 0
 80 115 68 177 78 250 c 0
 88 323 118 385 169 436 c 0
 220 487 280 512 347 512 c 0
EndSplineSet
Validated: 33
EndChar

StartChar: Ccaron
Encoding: 268 268 201
GlifName: C_caron
Width: 644
Flags: W
HStem: -12 60<274.09 481.511> 652 60<352.899 560.716>
LayerCount: 2
Fore
SplineSet
338 870 m 5
 415 870 l 5
 480 792 l 5
 566 870 l 5
 644 870 l 5
 514 744 l 5
 432 744 l 5
 338 870 l 5
469 712 m 0
 517 712 560 702 598 682 c 0
 636 662 666 635 690 600 c 1
 643 556 l 1
 601 620 541 652 461 652 c 0
 384 652 317 623 259 564 c 0
 201 505 166 434 154 350 c 0
 142 266 158 195 199 136 c 0
 240 77 299 48 376 48 c 0
 456 48 525 80 585 144 c 1
 620 100 l 1
 586 65 547 38 504 18 c 0
 461 -2 415 -12 367 -12 c 0
 273 -12 201 23 151 93 c 0
 101 163 83 249 97 350 c 0
 111 451 154 537 224 607 c 0
 294 677 375 712 469 712 c 0
EndSplineSet
Validated: 33
EndChar

StartChar: ccaron
Encoding: 269 269 202
GlifName: ccaron
Width: 474
Flags: W
HStem: -12 60<201.813 367.361> 452 60<252.709 417.803> 680 20G<219 312.667 424.949 525>
LayerCount: 2
Fore
SplineSet
219 700 m 5
 296 700 l 5
 361 622 l 5
 447 700 l 5
 525 700 l 5
 395 574 l 5
 313 574 l 5
 219 700 l 5
347 512 m 0
 414 512 465 487 502 437 c 1
 457 393 l 1
 429 432 390 452 338 452 c 0
 286 452 242 432 204 393 c 0
 166 354 143 307 135 250 c 0
 127 193 136 146 163 107 c 0
 190 68 230 48 282 48 c 0
 334 48 379 68 417 107 c 1
 450 63 l 1
 399 13 340 -12 273 -12 c 0
 206 -12 154 13 117 64 c 0
 80 115 68 177 78 250 c 0
 88 323 118 385 169 436 c 0
 220 487 280 512 347 512 c 0
EndSplineSet
Validated: 33
EndChar

StartChar: Dcaron
Encoding: 270 270 203
GlifName: D_caron
Width: 648
Flags: W
HStem: 0 60<160 384.259> 640 60<242 461.75>
LayerCount: 2
Fore
SplineSet
261 870 m 5
 338 870 l 5
 403 792 l 5
 489 870 l 5
 567 870 l 5
 437 744 l 5
 355 744 l 5
 261 870 l 5
359 640 m 2
 242 640 l 1
 160 60 l 1
 277 60 l 2
 353 60 422 88 484 145 c 0
 546 202 583 270 594 350 c 0
 605 430 588 498 542 555 c 0
 496 612 435 640 359 640 c 2
367 700 m 2
 459 700 533 666 588 598 c 0
 643 530 665 447 651 350 c 0
 637 253 593 170 518 102 c 0
 443 34 361 0 269 0 c 2
 95 0 l 1
 193 700 l 1
 367 700 l 2
EndSplineSet
Validated: 33
EndChar

StartChar: dcaron
Encoding: 271 271 204
GlifName: dcaron
Width: 572
Flags: W
HStem: -12 60<201.456 366.765> 452 60<252.521 417.09> 679 20G<643.279 719>
VStem: 445 57<0 57> 543 57<643 700>
LayerCount: 2
Fore
SplineSet
577 527 m 1
 652 699 l 5
 719 699 l 5
 630 527 l 1
 577 527 l 1
338 452 m 0
 389 452 429 432 454 394 c 0
 479 356 488 307 480 250 c 0
 472 193 449 144 413 106 c 0
 377 68 333 48 282 48 c 0
 230 48 190 68 163 107 c 0
 136 146 127 193 135 250 c 0
 143 307 166 354 204 393 c 0
 242 432 286 452 338 452 c 0
347 512 m 0
 279 512 220 487 169 436 c 0
 118 385 88 324 78 250 c 0
 68 176 81 115 117 64 c 0
 153 13 205 -12 273 -12 c 0
 339 -12 394 13 438 62 c 0
 444 69 451 77 457 85 c 1
 445 0 l 1
 502 0 l 1
 600 700 l 1
 543 700 l 1
 503 415 l 1
 499 423 495 431 491 438 c 0
 461 487 413 512 347 512 c 0
EndSplineSet
Validated: 41
EndChar

StartChar: Dcroat
Encoding: 272 272 205
GlifName: D_croat
Width: 648
Flags: W
HStem: 0 60<160 384.259> 319 60<101 328> 640 60<242 461.75>
LayerCount: 2
Fore
SplineSet
359 640 m 2
 242 640 l 1
 160 60 l 1
 277 60 l 2
 353 60 422 88 484 145 c 0
 546 202 583 270 594 350 c 0
 605 430 588 498 542 555 c 0
 496 612 435 640 359 640 c 2
367 700 m 2
 459 700 533 666 588 598 c 0
 643 530 665 447 651 350 c 0
 637 253 593 170 518 102 c 0
 443 34 361 0 269 0 c 2
 95 0 l 1
 193 700 l 1
 367 700 l 2
92 319 m 1
 101 379 l 1
 336 379 l 1
 328 319 l 1
 92 319 l 1
EndSplineSet
Validated: 37
EndChar

StartChar: dcroat
Encoding: 273 273 206
GlifName: dcroat
Width: 572
Flags: W
HStem: -12 60<201.456 366.765> 452 60<252.521 417.09>
VStem: 445 57<0 57> 543 57<643 700>
LayerCount: 2
Fore
SplineSet
338 452 m 0
 389 452 429 432 454 394 c 0
 479 356 488 307 480 250 c 0
 472 193 449 144 413 106 c 0
 377 68 333 48 282 48 c 0
 230 48 190 68 163 107 c 0
 136 146 127 193 135 250 c 0
 143 307 166 354 204 393 c 0
 242 432 286 452 338 452 c 0
347 512 m 0
 279 512 220 487 169 436 c 0
 118 385 88 324 78 250 c 0
 68 176 81 115 117 64 c 0
 153 13 205 -12 273 -12 c 0
 339 -12 394 13 438 62 c 0
 444 69 451 77 457 85 c 1
 445 0 l 1
 502 0 l 1
 600 700 l 1
 543 700 l 1
 503 415 l 1
 499 423 495 431 491 438 c 0
 461 487 413 512 347 512 c 0
650 566 m 5
 658 626 l 1
 401 626 l 1
 393 566 l 1
 650 566 l 5
EndSplineSet
Validated: 37
EndChar

StartChar: Emacron
Encoding: 274 274 207
GlifName: E_macron
Width: 563
Flags: W
HStem: 0 60<160 478> 329 60<207 463> 640 60<242 568> 750 60<264 541>
LayerCount: 2
Fore
SplineSet
256 750 m 1
 264 810 l 1
 549 810 l 1
 541 750 l 1
 256 750 l 1
95 0 m 1
 193 700 l 1
 576 700 l 1
 568 640 l 1
 242 640 l 1
 207 389 l 1
 472 389 l 1
 463 329 l 1
 198 329 l 1
 160 60 l 1
 486 60 l 1
 478 0 l 1
 95 0 l 1
EndSplineSet
Validated: 1
EndChar

StartChar: emacron
Encoding: 275 275 208
GlifName: emacron
Width: 521
Flags: W
HStem: -12 60<203.171 388.141> 220 60<141 469.497> 452 60<252.719 414.247> 580 60<219 496>
LayerCount: 2
Fore
SplineSet
211 580 m 1
 219 640 l 1
 504 640 l 1
 496 580 l 1
 211 580 l 1
519 220 m 1
 132 220 l 1
 131 170 144 129 171 97 c 0
 198 65 235 48 282 48 c 0
 348 48 402 68 445 107 c 1
 478 63 l 1
 424 13 355 -12 273 -12 c 0
 206 -12 154 13 117 64 c 0
 80 115 68 177 78 250 c 0
 88 323 119 385 170 436 c 0
 221 487 280 512 347 512 c 0
 413 512 462 488 493 438 c 0
 524 388 534 325 523 250 c 2
 519 220 l 1
338 452 m 0
 291 452 250 435 214 403 c 0
 178 371 154 330 141 280 c 1
 469 280 l 1
 472 331 462 372 440 404 c 0
 418 436 384 452 338 452 c 0
EndSplineSet
Validated: 33
EndChar

StartChar: Ebreve
Encoding: 276 276 209
GlifName: E_breve
Width: 563
Flags: W
HStem: 0 60<160 478> 329 60<207 463> 640 60<242 568> 739 60<349.786 470.332>
VStem: 276 57<819.612 870> 498 57<826.058 870>
LayerCount: 2
Fore
SplineSet
95 0 m 1
 193 700 l 1
 576 700 l 1
 568 640 l 1
 242 640 l 1
 207 389 l 1
 472 389 l 1
 463 329 l 1
 198 329 l 1
 160 60 l 1
 486 60 l 1
 478 0 l 1
 95 0 l 1
276 870 m 1
 333 870 l 1
 330 849 336 832 350 819 c 0
 364 806 383 799 406 799 c 0
 429 799 450 806 468 819 c 0
 486 832 495 849 498 870 c 1
 555 870 l 1
 550 834 533 804 502 778 c 0
 471 752 436 739 397 739 c 0
 358 739 327 752 304 778 c 0
 281 804 271 834 276 870 c 1
EndSplineSet
Validated: 33
EndChar

StartChar: ebreve
Encoding: 277 277 210
GlifName: ebreve
Width: 521
Flags: W
HStem: -12 60<203.171 388.141> 220 60<141 469.497> 452 60<252.719 414.247> 569 60<304.318 425.462> 680 20G<228.5 288 452.5 511>
VStem: 231 57<649.612 700> 454 57<657.491 700>
LayerCount: 2
Fore
SplineSet
519 220 m 1
 132 220 l 1
 131 170 144 129 171 97 c 0
 198 65 235 48 282 48 c 0
 348 48 402 68 445 107 c 1
 478 63 l 1
 424 13 355 -12 273 -12 c 0
 206 -12 154 13 117 64 c 0
 80 115 68 177 78 250 c 0
 88 323 119 385 170 436 c 0
 221 487 280 512 347 512 c 0
 413 512 462 488 493 438 c 0
 524 388 534 325 523 250 c 2
 519 220 l 1
338 452 m 0
 291 452 250 435 214 403 c 0
 178 371 154 330 141 280 c 1
 469 280 l 1
 472 331 462 372 440 404 c 0
 418 436 384 452 338 452 c 0
231 700 m 1
 288 700 l 1
 285 679 291 662 305 649 c 0
 319 636 338 629 361 629 c 0
 384 629 405 636 423 649 c 0
 441 662 451 679 454 700 c 1
 511 700 l 1
 506 664 488 634 457 608 c 0
 426 582 392 569 353 569 c 0
 314 569 282 582 259 608 c 0
 236 634 226 664 231 700 c 1
EndSplineSet
Validated: 33
EndChar

StartChar: Edotaccent
Encoding: 278 278 211
GlifName: E_dotaccent
Width: 563
Flags: W
HStem: 0 60<160 478> 329 60<207 463> 640 60<242 568> 800 80<380.283 441.717>
LayerCount: 2
Fore
SplineSet
449 840 m 0
 447 829 442 820 434 812 c 0
 426 804 416 800 405 800 c 0
 394 800 386 804 380 812 c 0
 374 820 371 829 373 840 c 0
 375 851 380 860 388 868 c 0
 396 876 405 880 416 880 c 0
 427 880 436 876 442 868 c 0
 448 860 451 851 449 840 c 0
95 0 m 1
 193 700 l 1
 576 700 l 1
 568 640 l 1
 242 640 l 1
 207 389 l 1
 472 389 l 1
 463 329 l 1
 198 329 l 1
 160 60 l 1
 486 60 l 1
 478 0 l 1
 95 0 l 1
EndSplineSet
Validated: 1
EndChar

StartChar: edotaccent
Encoding: 279 279 212
GlifName: edotaccent
Width: 521
Flags: W
HStem: -12 60<203.171 388.141> 220 60<141 469.497> 452 60<252.719 414.247> 630 80<335.283 396.717>
LayerCount: 2
Fore
SplineSet
404 670 m 0
 402 659 397 650 389 642 c 0
 381 634 371 630 360 630 c 0
 349 630 341 634 335 642 c 0
 329 650 326 659 328 670 c 0
 330 681 335 690 343 698 c 0
 351 706 360 710 371 710 c 0
 382 710 391 706 397 698 c 0
 403 690 406 681 404 670 c 0
519 220 m 1
 132 220 l 1
 131 170 144 129 171 97 c 0
 198 65 235 48 282 48 c 0
 348 48 402 68 445 107 c 1
 478 63 l 1
 424 13 355 -12 273 -12 c 0
 206 -12 154 13 117 64 c 0
 80 115 68 177 78 250 c 0
 88 323 119 385 170 436 c 0
 221 487 280 512 347 512 c 0
 413 512 462 488 493 438 c 0
 524 388 534 325 523 250 c 2
 519 220 l 1
338 452 m 0
 291 452 250 435 214 403 c 0
 178 371 154 330 141 280 c 1
 469 280 l 1
 472 331 462 372 440 404 c 0
 418 436 384 452 338 452 c 0
EndSplineSet
Validated: 33
EndChar

StartChar: Eogonek
Encoding: 280 280 213
GlifName: E_ogonek
Width: 563
Flags: W
HStem: -212 55<366.645 442.436> 0 60<160 478> 329 60<207 463> 640 60<242 568>
VStem: 308 53<-143.577 -77.5764>
LayerCount: 2
Fore
SplineSet
473 -170 m 5
 469 -175 465 -179 460 -183 c 0
 439 -202 415 -212 389 -212 c 0
 363 -212 342 -202 326 -182 c 0
 310 -163 304 -140 308 -114 c 0
 312 -85 327 -59 353 -35 c 0
 371 -19 395 -3 424 12 c 1
 479 12 l 1
 378 -81 l 2
 368 -90 363 -100 361 -112 c 0
 359 -124 362 -135 369 -144 c 0
 376 -153 385 -157 397 -157 c 0
 409 -157 419 -153 428 -144 c 0
 430 -142 432 -140 434 -138 c 9
 473 -170 l 5
95 0 m 1
 193 700 l 1
 576 700 l 1
 568 640 l 1
 242 640 l 1
 207 389 l 1
 472 389 l 1
 463 329 l 1
 198 329 l 1
 160 60 l 1
 486 60 l 1
 478 0 l 1
 95 0 l 1
EndSplineSet
Validated: 37
EndChar

StartChar: eogonek
Encoding: 281 281 214
GlifName: eogonek
Width: 521
Flags: W
HStem: -195 55<320.645 396.436> -12 60<203.171 342.835> 220 60<141 469.497> 452 60<252.719 414.247>
VStem: 262 53<-126.577 -60.5764>
LayerCount: 2
Fore
SplineSet
519 220 m 1
 132 220 l 1
 131 170 144 129 171 97 c 0
 198 65 235 48 282 48 c 0
 348 48 402 68 445 107 c 1
 478 63 l 1
 424 13 355 -12 273 -12 c 0
 206 -12 154 13 117 64 c 0
 80 115 68 177 78 250 c 0
 88 323 119 385 170 436 c 0
 221 487 280 512 347 512 c 0
 413 512 462 488 493 438 c 0
 524 388 534 325 523 250 c 2
 519 220 l 1
338 452 m 0
 291 452 250 435 214 403 c 0
 178 371 154 330 141 280 c 1
 469 280 l 1
 472 331 462 372 440 404 c 0
 418 436 384 452 338 452 c 0
426 -153 m 5
 422 -158 419 -162 414 -166 c 0
 393 -185 369 -195 343 -195 c 0
 317 -195 296 -185 280 -165 c 0
 264 -146 258 -123 262 -97 c 0
 266 -68 281 -42 307 -18 c 0
 325 -2 349 14 378 29 c 1
 433 29 l 1
 332 -64 l 2
 322 -73 317 -83 315 -95 c 0
 313 -107 316 -118 323 -127 c 0
 330 -136 339 -140 351 -140 c 0
 363 -140 373 -136 382 -127 c 0
 384 -125 386 -123 388 -121 c 9
 426 -153 l 5
EndSplineSet
Validated: 37
EndChar

StartChar: Ecaron
Encoding: 282 282 215
GlifName: E_caron
Width: 563
Flags: W
HStem: 0 60<160 478> 329 60<207 463> 640 60<242 568>
LayerCount: 2
Fore
SplineSet
261 870 m 5
 338 870 l 5
 403 792 l 5
 489 870 l 5
 567 870 l 5
 437 744 l 5
 355 744 l 5
 261 870 l 5
95 0 m 1
 193 700 l 1
 576 700 l 1
 568 640 l 1
 242 640 l 1
 207 389 l 1
 472 389 l 1
 463 329 l 1
 198 329 l 1
 160 60 l 1
 486 60 l 1
 478 0 l 1
 95 0 l 1
EndSplineSet
Validated: 1
EndChar

StartChar: ecaron
Encoding: 283 283 216
GlifName: ecaron
Width: 521
Flags: W
HStem: -12 60<203.171 388.141> 220 60<141 469.497> 452 60<252.719 414.247> 680 20G<216 310.41 422.692 522>
LayerCount: 2
Fore
SplineSet
216 700 m 5
 294 700 l 5
 358 622 l 5
 445 700 l 5
 522 700 l 5
 392 574 l 5
 310 574 l 5
 216 700 l 5
519 220 m 1
 132 220 l 1
 131 170 144 129 171 97 c 0
 198 65 235 48 282 48 c 0
 348 48 402 68 445 107 c 1
 478 63 l 1
 424 13 355 -12 273 -12 c 0
 206 -12 154 13 117 64 c 0
 80 115 68 177 78 250 c 0
 88 323 119 385 170 436 c 0
 221 487 280 512 347 512 c 0
 413 512 462 488 493 438 c 0
 524 388 534 325 523 250 c 2
 519 220 l 1
338 452 m 0
 291 452 250 435 214 403 c 0
 178 371 154 330 141 280 c 1
 469 280 l 1
 472 331 462 372 440 404 c 0
 418 436 384 452 338 452 c 0
EndSplineSet
Validated: 33
EndChar

StartChar: Gcircumflex
Encoding: 284 284 217
GlifName: G_circumflex
Width: 727
Flags: W
HStem: -12 60<273.59 481.77> 320 60<506 676> 652 60<352.195 560.059>
CounterMasks: 1 e0
LayerCount: 2
Fore
SplineSet
322 745 m 1
 454 871 l 1
 532 871 l 1
 628 745 l 1
 550 745 l 1
 486 825 l 5
 400 745 l 1
 322 745 l 1
469 712 m 0
 517 712 559 702 597 682 c 0
 635 662 666 635 690 600 c 1
 643 556 l 1
 601 620 540 652 460 652 c 0
 383 652 316 623 258 564 c 0
 200 505 166 434 154 350 c 0
 142 266 157 195 198 136 c 0
 239 77 298 48 375 48 c 0
 455 48 525 80 585 144 c 0
 631 193 661 252 676 320 c 1
 497 320 l 1
 506 380 l 1
 743 380 l 1
 739 350 l 2
 725 252 685 169 619 100 c 0
 585 65 546 38 503 18 c 0
 460 -2 414 -12 367 -12 c 0
 273 -12 201 23 151 93 c 0
 101 163 83 249 97 350 c 0
 111 451 153 537 223 607 c 0
 293 677 375 712 469 712 c 0
EndSplineSet
Validated: 33
EndChar

StartChar: gcircumflex
Encoding: 285 285 218
GlifName: gcircumflex
Width: 560
Flags: W
HStem: -212 55<131.652 326.724> 1 60<198.587 360.961> 452 60<248.645 409.75> 480 20G<499.962 560> 680 20G<329.206 443.238>
VStem: 503 57<443 500>
LayerCount: 2
Fore
SplineSet
219 574 m 1xcc
 350 700 l 1
 428 700 l 1
 524 574 l 1
 446 574 l 1
 383 654 l 5
 297 574 l 1
 219 574 l 1xcc
333 452 m 0xec
 283 452 240 433 203 395 c 0
 166 357 144 311 136 256 c 0
 128 201 138 155 164 117 c 0
 190 79 228 61 278 61 c 0
 327 61 369 79 404 117 c 0
 439 155 460 201 468 256 c 4
 476 311 467 358 443 396 c 0
 419 434 382 452 333 452 c 0xec
341 512 m 0
 406 512 453 488 482 440 c 0
 486 434 488 427 491 421 c 1
 503 500 l 1
 560 500 l 1xdc
 496 46 l 2
 486 -29 456 -92 406 -140 c 0
 356 -188 297 -212 230 -212 c 0
 168 -212 113 -195 64 -162 c 1
 95 -114 l 1
 133 -143 181 -157 238 -157 c 0
 294 -157 339 -137 374 -98 c 0
 409 -59 430 -11 439 46 c 2
 445 91 l 1
 440 85 435 79 430 73 c 0
 387 25 334 1 269 1 c 0
 203 1 153 26 117 75 c 0
 81 124 69 184 79 256 c 0
 89 328 119 389 168 438 c 0
 217 487 275 512 341 512 c 0
EndSplineSet
Validated: 33
EndChar

StartChar: Gbreve
Encoding: 286 286 219
GlifName: G_breve
Width: 727
Flags: W
HStem: -12 60<273.59 481.77> 320 60<506 676> 652 60<352.195 560.059> 769 60<426.318 547.462>
VStem: 354 57<849.612 900> 576 57<857.491 900>
LayerCount: 2
Fore
SplineSet
354 900 m 1
 411 900 l 1
 408 879 413 862 427 849 c 0
 441 836 460 829 483 829 c 0
 506 829 527 836 545 849 c 0
 563 862 573 879 576 900 c 1
 633 900 l 1
 628 864 610 834 579 808 c 0
 548 782 514 769 475 769 c 0
 436 769 404 782 381 808 c 0
 358 834 349 864 354 900 c 1
469 712 m 0
 517 712 559 702 597 682 c 0
 635 662 666 635 690 600 c 1
 643 556 l 1
 601 620 540 652 460 652 c 0
 383 652 316 623 258 564 c 0
 200 505 166 434 154 350 c 0
 142 266 157 195 198 136 c 0
 239 77 298 48 375 48 c 0
 455 48 525 80 585 144 c 0
 631 193 661 252 676 320 c 1
 497 320 l 1
 506 380 l 1
 743 380 l 1
 739 350 l 2
 725 252 685 169 619 100 c 0
 585 65 546 38 503 18 c 0
 460 -2 414 -12 367 -12 c 0
 273 -12 201 23 151 93 c 0
 101 163 83 249 97 350 c 0
 111 451 153 537 223 607 c 0
 293 677 375 712 469 712 c 0
EndSplineSet
Validated: 33
EndChar

StartChar: gbreve
Encoding: 287 287 220
GlifName: gbreve
Width: 560
Flags: W
HStem: -212 55<131.652 326.724> 1 60<198.587 360.961> 452 60<248.645 409.75> 480 20G<499.962 560> 569 60<332.319 453.046> 680 20G<257.5 317 480.5 539>
VStem: 260 57<649.612 700> 482 57<657.491 700> 503 57<443 500>
LayerCount: 2
Fore
SplineSet
260 700 m 1xcf
 317 700 l 1
 314 679 319 662 333 649 c 0
 347 636 367 629 390 629 c 0
 413 629 433 636 451 649 c 0
 469 662 479 679 482 700 c 1
 539 700 l 1
 534 664 517 634 486 608 c 0
 455 582 420 569 381 569 c 0
 342 569 310 582 287 608 c 0
 264 634 255 664 260 700 c 1xcf
333 452 m 0xee
 283 452 240 433 203 395 c 0
 166 357 144 311 136 256 c 0
 128 201 138 155 164 117 c 0
 190 79 228 61 278 61 c 0
 327 61 369 79 404 117 c 0
 439 155 460 201 468 256 c 4
 476 311 467 358 443 396 c 0
 419 434 382 452 333 452 c 0xee
341 512 m 0
 406 512 453 488 482 440 c 0xef
 486 434 488 427 491 421 c 1
 503 500 l 1
 560 500 l 1xde80
 496 46 l 2
 486 -29 456 -92 406 -140 c 0
 356 -188 297 -212 230 -212 c 0
 168 -212 113 -195 64 -162 c 1
 95 -114 l 1
 133 -143 181 -157 238 -157 c 0
 294 -157 339 -137 374 -98 c 0
 409 -59 430 -11 439 46 c 2
 445 91 l 1
 440 85 435 79 430 73 c 0
 387 25 334 1 269 1 c 0
 203 1 153 26 117 75 c 0
 81 124 69 184 79 256 c 0
 89 328 119 389 168 438 c 0
 217 487 275 512 341 512 c 0
EndSplineSet
Validated: 33
EndChar

StartChar: Gdotaccent
Encoding: 288 288 221
GlifName: G_dotaccent
Width: 727
Flags: W
HStem: -12 60<273.59 481.77> 320 60<506 676> 652 60<352.195 560.059> 830 80<458.283 519.717>
LayerCount: 2
Fore
SplineSet
527 870 m 0
 525 859 520 850 512 842 c 0
 504 834 494 830 483 830 c 0
 472 830 464 834 458 842 c 0
 452 850 449 859 451 870 c 0
 453 881 458 890 466 898 c 0
 474 906 484 910 495 910 c 0
 506 910 514 906 520 898 c 0
 526 890 529 881 527 870 c 0
469 712 m 0
 517 712 559 702 597 682 c 0
 635 662 666 635 690 600 c 1
 643 556 l 1
 601 620 540 652 460 652 c 0
 383 652 316 623 258 564 c 0
 200 505 166 434 154 350 c 0
 142 266 157 195 198 136 c 0
 239 77 298 48 375 48 c 0
 455 48 525 80 585 144 c 0
 631 193 661 252 676 320 c 1
 497 320 l 1
 506 380 l 1
 743 380 l 1
 739 350 l 2
 725 252 685 169 619 100 c 0
 585 65 546 38 503 18 c 0
 460 -2 414 -12 367 -12 c 0
 273 -12 201 23 151 93 c 0
 101 163 83 249 97 350 c 0
 111 451 153 537 223 607 c 0
 293 677 375 712 469 712 c 0
EndSplineSet
Validated: 33
EndChar

StartChar: gdotaccent
Encoding: 289 289 222
GlifName: gdotaccent
Width: 560
Flags: W
HStem: -212 55<131.652 326.724> 1 60<198.587 360.961> 452 60<248.645 409.75> 480 20G<499.962 560> 630 80<355.283 416.717>
VStem: 503 57<443 500>
LayerCount: 2
Fore
SplineSet
424 670 m 0xcc
 422 659 417 650 409 642 c 0
 401 634 391 630 380 630 c 0
 369 630 361 634 355 642 c 0
 349 650 346 659 348 670 c 0
 350 681 355 690 363 698 c 0
 371 706 380 710 391 710 c 0
 402 710 411 706 417 698 c 0
 423 690 426 681 424 670 c 0xcc
333 452 m 0xec
 283 452 240 433 203 395 c 0
 166 357 144 311 136 256 c 0
 128 201 138 155 164 117 c 0
 190 79 228 61 278 61 c 0
 327 61 369 79 404 117 c 0
 439 155 460 201 468 256 c 4
 476 311 467 358 443 396 c 0
 419 434 382 452 333 452 c 0xec
341 512 m 0
 406 512 453 488 482 440 c 0
 486 434 488 427 491 421 c 1
 503 500 l 1
 560 500 l 1xdc
 496 46 l 2
 486 -29 456 -92 406 -140 c 0
 356 -188 297 -212 230 -212 c 0
 168 -212 113 -195 64 -162 c 1
 95 -114 l 1
 133 -143 181 -157 238 -157 c 0
 294 -157 339 -137 374 -98 c 0
 409 -59 430 -11 439 46 c 2
 445 91 l 1
 440 85 435 79 430 73 c 0
 387 25 334 1 269 1 c 0
 203 1 153 26 117 75 c 0
 81 124 69 184 79 256 c 0
 89 328 119 389 168 438 c 0
 217 487 275 512 341 512 c 0
EndSplineSet
Validated: 33
EndChar

StartChar: uni0122
Encoding: 290 290 223
GlifName: uni0122
Width: 727
Flags: W
HStem: -200 21G<299 362.441> -12 60<273.59 481.77> 320 60<506 676> 652 60<352.195 560.059>
LayerCount: 2
Fore
SplineSet
299 -200 m 5
 356 -64 l 1
 423 -64 l 1
 352 -200 l 5
 299 -200 l 5
469 712 m 0
 517 712 559 702 597 682 c 0
 635 662 666 635 690 600 c 1
 643 556 l 1
 601 620 540 652 460 652 c 0
 383 652 316 623 258 564 c 0
 200 505 166 434 154 350 c 0
 142 266 157 195 198 136 c 0
 239 77 298 48 375 48 c 0
 455 48 525 80 585 144 c 0
 631 193 661 252 676 320 c 1
 497 320 l 1
 506 380 l 1
 743 380 l 1
 739 350 l 2
 725 252 685 169 619 100 c 0
 585 65 546 38 503 18 c 0
 460 -2 414 -12 367 -12 c 0
 273 -12 201 23 151 93 c 0
 101 163 83 249 97 350 c 0
 111 451 153 537 223 607 c 0
 293 677 375 712 469 712 c 0
EndSplineSet
Validated: 33
EndChar

StartChar: uni0123
Encoding: 291 291 224
GlifName: uni0123
Width: 560
Flags: W
HStem: -212 55<131.652 326.724> 1 60<198.587 360.961> 452 60<248.645 409.75> 480 20G<499.962 560> 693 20G<387.597 454>
VStem: 503 57<443 500>
LayerCount: 2
Fore
SplineSet
333 452 m 0xec
 283 452 240 433 203 395 c 0
 166 357 144 311 136 256 c 0
 128 201 138 155 164 117 c 0
 190 79 228 61 278 61 c 0
 327 61 369 79 404 117 c 0
 439 155 460 201 468 256 c 4
 476 311 467 358 443 396 c 0
 419 434 382 452 333 452 c 0xec
341 512 m 0
 406 512 453 488 482 440 c 0
 486 434 488 427 491 421 c 1
 503 500 l 1
 560 500 l 1xdc
 496 46 l 2
 486 -29 456 -92 406 -140 c 0
 356 -188 297 -212 230 -212 c 0
 168 -212 113 -195 64 -162 c 1
 95 -114 l 1
 133 -143 181 -157 238 -157 c 0
 294 -157 339 -137 374 -98 c 0
 409 -59 430 -11 439 46 c 2
 445 91 l 1
 440 85 435 79 430 73 c 0
 387 25 334 1 269 1 c 0
 203 1 153 26 117 75 c 0
 81 124 69 184 79 256 c 0
 89 328 119 389 168 438 c 0
 217 487 275 512 341 512 c 0
454 713 m 5
 387 584 l 5
 320 584 l 5
 400 713 l 5
 454 713 l 5
EndSplineSet
Validated: 33
EndChar

StartChar: Hcircumflex
Encoding: 292 292 225
GlifName: H_circumflex
Width: 690
Flags: W
HStem: 0 21G<95 154.84 539 598.8> 331 60<207 585> 680 20G<190.2 250 634.217 694>
VStem: 95 57<0 57> 193 57<643 700> 539 57<0 57> 637 57<643 700>
LayerCount: 2
Fore
SplineSet
298 744 m 1
 429 870 l 1
 507 870 l 1
 603 744 l 1
 525 744 l 1
 462 824 l 5
 376 744 l 1
 298 744 l 1
95 0 m 1
 193 700 l 1
 250 700 l 1
 207 391 l 1
 594 391 l 1
 637 700 l 1
 694 700 l 1
 596 0 l 1
 539 0 l 1
 585 331 l 1
 199 331 l 1
 152 0 l 1
 95 0 l 1
EndSplineSet
Validated: 1
EndChar

StartChar: hcircumflex
Encoding: 293 293 226
GlifName: hcircumflex
Width: 526
Flags: W
HStem: 0 21G<71 130.836 412 471.836> 452 60<260.014 401.387> 680 20G<167.171 227>
VStem: 71 57<0 57> 170 57<643 700> 412 57<0 57>
LayerCount: 2
Fore
SplineSet
55 774 m 1
 186 900 l 1
 264 900 l 1
 360 774 l 1
 282 774 l 1
 219 854 l 5
 133 774 l 1
 55 774 l 1
469 0 m 1
 412 0 l 1
 450 268 l 2
 458 325 450 369 428 402 c 0
 406 435 375 452 334 452 c 0
 293 452 257 435 225 402 c 0
 193 369 174 325 166 268 c 2
 128 0 l 5
 71 0 l 5
 170 700 l 1
 227 700 l 1
 189 432 l 1
 193 437 196 442 200 446 c 0
 239 490 287 512 342 512 c 0
 399 512 443 490 475 445 c 0
 507 400 517 341 507 268 c 2
 469 0 l 1
EndSplineSet
Validated: 33
EndChar

StartChar: Hbar
Encoding: 294 294 227
GlifName: H_bar
Width: 690
Flags: W
HStem: 0 21G<95 154.84 539 598.8> 331 60<207 585> 500 60<83 755> 680 20G<190.2 250 634.217 694>
VStem: 95 57<0 57> 193 57<643 700> 539 57<0 57> 637 57<643 700>
LayerCount: 2
Fore
SplineSet
95 0 m 1
 193 700 l 1
 250 700 l 1
 207 391 l 1
 594 391 l 1
 637 700 l 1
 694 700 l 1
 596 0 l 1
 539 0 l 1
 585 331 l 1
 199 331 l 1
 152 0 l 1
 95 0 l 1
75 500 m 1
 83 560 l 1
 764 560 l 1
 755 500 l 1
 75 500 l 1
EndSplineSet
Validated: 5
EndChar

StartChar: hbar
Encoding: 295 295 228
GlifName: hbar
Width: 526
Flags: W
HStem: 0 21G<71 130.836 412 471.836> 452 60<260.014 401.387> 569 60<88 373> 680 20G<167.171 227>
VStem: 71 57<0 57> 170 57<643 700> 412 57<0 57>
LayerCount: 2
Fore
SplineSet
469 0 m 1
 412 0 l 1
 450 268 l 2
 458 325 450 369 428 402 c 0
 406 435 375 452 334 452 c 0
 293 452 257 435 225 402 c 0
 193 369 174 325 166 268 c 2
 128 0 l 5
 71 0 l 5
 170 700 l 1
 227 700 l 1
 189 432 l 1
 193 437 196 442 200 446 c 0
 239 490 287 512 342 512 c 0
 399 512 443 490 475 445 c 0
 507 400 517 341 507 268 c 2
 469 0 l 1
80 569 m 1
 88 629 l 1
 381 629 l 1
 373 569 l 1
 80 569 l 1
EndSplineSet
Validated: 37
EndChar

StartChar: Itilde
Encoding: 296 296 229
GlifName: I_tilde
Width: 247
Flags: W
HStem: 0 21G<95 154.8> 680 20G<190.2 250> 742 56<261.619 327.433> 814 56<148.476 210.433>
VStem: 95 57<0 57> 193 57<643 700>
LayerCount: 2
Fore
SplineSet
95 0 m 1
 193 700 l 1
 250 700 l 1
 152 0 l 1
 95 0 l 1
285 742 m 0
 257 742 235 754 220 778 c 0
 214 787 208 796 203 803 c 0
 198 810 192 814 184 814 c 0
 165 814 150 802 141 777 c 1
 84 777 l 1
 91 803 105 824 125 842 c 0
 145 860 168 869 192 870 c 0
 216 870 236 858 252 834 c 0
 258 825 264 816 270 809 c 0
 276 802 284 798 293 798 c 0
 313 798 327 811 334 836 c 1
 390 836 l 1
 382 809 369 786 350 768 c 0
 331 750 309 742 285 742 c 0
EndSplineSet
Validated: 1
EndChar

StartChar: itilde
Encoding: 297 297 230
GlifName: itilde
Width: 208
Flags: W
HStem: 0 21G<75 134.8> 480 20G<142.2 202> 572 56<217.465 282.433> 644 56<103.476 165.433>
VStem: 75 57<0 57> 145 57<443 500>
LayerCount: 2
Fore
SplineSet
75 0 m 1
 145 500 l 1
 202 500 l 1
 132 0 l 1
 75 0 l 1
240 572 m 0
 212 572 190 584 175 608 c 0
 169 617 163 626 158 633 c 0
 153 640 147 644 139 644 c 0
 120 644 105 632 96 607 c 1
 40 607 l 1
 47 633 60 654 80 672 c 0
 100 690 123 699 147 700 c 0
 171 700 191 688 207 664 c 0
 213 655 220 646 226 639 c 0
 232 632 239 628 248 628 c 0
 268 628 282 641 289 666 c 1
 345 666 l 1
 337 639 324 616 305 598 c 0
 286 580 264 572 240 572 c 0
EndSplineSet
Validated: 1
EndChar

StartChar: Imacron
Encoding: 298 298 231
GlifName: I_macron
Width: 247
Flags: W
HStem: 0 21G<95 154.8> 680 20G<190.2 250> 750 60<95 371>
VStem: 95 57<0 57> 193 57<643 700>
LayerCount: 2
Fore
SplineSet
86 750 m 1
 95 810 l 1
 380 810 l 1
 371 750 l 1
 86 750 l 1
95 0 m 1
 193 700 l 1
 250 700 l 1
 152 0 l 1
 95 0 l 1
EndSplineSet
Validated: 1
EndChar

StartChar: imacron
Encoding: 299 299 232
GlifName: imacron
Width: 209
Flags: W
HStem: 0 21G<75 134.8> 480 20G<142.2 202> 580 57<75 305>
VStem: 75 57<0 57> 145 57<443 500>
LayerCount: 2
Fore
SplineSet
67 580 m 1
 75 637 l 1
 313 637 l 1
 305 580 l 1
 67 580 l 1
75 0 m 1
 145 500 l 1
 202 500 l 1
 132 0 l 1
 75 0 l 1
EndSplineSet
Validated: 1
EndChar

StartChar: Ibreve
Encoding: 300 300 233
GlifName: I_breve
Width: 246
Flags: W
HStem: 0 21G<95 154.8> 680 20G<190.2 250> 739 60<178.786 299.332>
VStem: 95 57<0 57> 105 57<819.612 870> 193 57<643 700> 327 57<826.058 870>
LayerCount: 2
Fore
SplineSet
95 0 m 1xf6
 193 700 l 1
 250 700 l 1
 152 0 l 1
 95 0 l 1xf6
105 870 m 1xee
 162 870 l 1
 159 849 165 832 179 819 c 0
 193 806 212 799 235 799 c 0
 258 799 279 806 297 819 c 0
 315 832 324 849 327 870 c 1
 384 870 l 1
 379 834 362 804 331 778 c 0
 300 752 265 739 226 739 c 0
 187 739 156 752 133 778 c 0
 110 804 100 834 105 870 c 1xee
EndSplineSet
Validated: 33
EndChar

StartChar: ibreve
Encoding: 301 301 234
GlifName: ibreve
Width: 209
Flags: W
HStem: 0 21G<75 134.8> 480 20G<142.2 202> 569 60<136.786 257.336> 680 20G<60.5 120 284.5 343>
VStem: 63 57<649.612 700> 75 57<0 57> 145 57<443 500> 286 57<657.491 700>
LayerCount: 2
Fore
SplineSet
75 0 m 1xf7
 145 500 l 1
 202 500 l 1
 132 0 l 1
 75 0 l 1xf7
63 700 m 1xfb
 120 700 l 1
 117 679 123 662 137 649 c 0
 151 636 170 629 193 629 c 0
 216 629 237 636 255 649 c 0
 273 662 283 679 286 700 c 1
 343 700 l 1
 338 664 320 634 289 608 c 0
 258 582 223 569 184 569 c 0
 145 569 114 582 91 608 c 0
 68 634 58 664 63 700 c 1xfb
EndSplineSet
Validated: 33
EndChar

StartChar: Iogonek
Encoding: 302 302 235
GlifName: I_ogonek
Width: 247
Flags: W
HStem: -212 55<40.6448 116.436> 0 12<95.2959 98> 680 20G<190.2 250>
VStem: -18 53<-143.577 -77.5764> 193 57<643 700>
LayerCount: 2
Fore
SplineSet
147 -170 m 5
 143 -175 139 -179 134 -183 c 0
 113 -202 89 -212 63 -212 c 0
 37 -212 16 -202 0 -182 c 0
 -16 -163 -22 -140 -18 -114 c 0
 -14 -85 1 -59 27 -35 c 0
 45 -19 69 -3 98 12 c 1
 153 12 l 1
 52 -81 l 2
 42 -90 37 -100 35 -112 c 0
 33 -124 36 -135 43 -144 c 0
 50 -153 59 -157 71 -157 c 0
 83 -157 94 -153 103 -144 c 0
 105 -142 106 -140 108 -138 c 9
 147 -170 l 5
95 0 m 1
 193 700 l 1
 250 700 l 1
 152 0 l 1
 95 0 l 1
EndSplineSet
Validated: 37
EndChar

StartChar: iogonek
Encoding: 303 303 236
GlifName: iogonek
Width: 209
Flags: W
HStem: -212 55<21.0082 96.4631> 0 12<75.2988 78> 480 20G<142.2 202> 630 80<168.283 229.717>
VStem: -38 53<-143.577 -77.5764> 145 57<443 500>
LayerCount: 2
Fore
SplineSet
127 -170 m 5
 123 -175 119 -179 114 -183 c 0
 93 -202 70 -212 44 -212 c 0
 18 -212 -4 -202 -20 -182 c 0
 -36 -163 -42 -140 -38 -114 c 0
 -34 -85 -18 -59 8 -35 c 0
 26 -19 49 -3 78 12 c 1
 133 12 l 1
 32 -81 l 2
 22 -90 17 -100 15 -112 c 0
 13 -124 16 -135 23 -144 c 0
 30 -153 39 -157 51 -157 c 0
 63 -157 74 -153 83 -144 c 0
 85 -142 86 -140 88 -138 c 9
 127 -170 l 5
237 670 m 0
 235 659 230 650 222 642 c 0
 214 634 204 630 193 630 c 0
 182 630 174 634 168 642 c 0
 162 650 159 659 161 670 c 0
 163 681 168 690 176 698 c 0
 184 706 193 710 204 710 c 0
 215 710 224 706 230 698 c 0
 236 690 239 681 237 670 c 0
75 0 m 1
 145 500 l 1
 202 500 l 1
 132 0 l 1
 75 0 l 1
EndSplineSet
Validated: 37
EndChar

StartChar: Idotaccent
Encoding: 304 304 237
GlifName: I_dotaccent
Width: 247
Flags: W
HStem: 0 21G<95 154.8> 680 20G<190.2 250> 800 80<210.337 272.717>
VStem: 95 57<0 57> 193 57<643 700>
LayerCount: 2
Fore
SplineSet
280 840 m 0
 278 829 273 820 265 812 c 0
 257 804 247 800 236 800 c 0
 225 800 216 804 210 812 c 0
 204 820 202 829 204 840 c 0
 206 851 210 860 218 868 c 0
 226 876 236 880 247 880 c 0
 258 880 267 876 273 868 c 0
 279 860 282 851 280 840 c 0
95 0 m 1
 193 700 l 1
 250 700 l 1
 152 0 l 1
 95 0 l 1
EndSplineSet
Validated: 1
EndChar

StartChar: dotlessi
Encoding: 305 305 238
GlifName: dotlessi
Width: 209
Flags: W
HStem: 0 21G<75 134.8> 480 20G<142.2 202>
VStem: 75 57<0 57> 145 57<443 500>
LayerCount: 2
Fore
SplineSet
75 0 m 1
 145 500 l 1
 202 500 l 1
 132 0 l 1
 75 0 l 1
EndSplineSet
Validated: 1
EndChar

StartChar: IJ
Encoding: 306 306 239
GlifName: I_J_
Width: 725
Flags: W
HStem: -11 60<322.605 451.433> 0 21G<95 154.8> 680 20G<190.2 250 587.175 647>
VStem: 95 57<0 57> 193 57<643 700> 590 57<643 700>
LayerCount: 2
Fore
SplineSet
590 700 m 1xbc
 647 700 l 1
 572 169 l 2
 565 119 542 77 504 42 c 0
 466 7 423 -11 376 -11 c 0
 329 -11 290 7 262 42 c 1
 309 84 l 1
 328 61 353 49 384 49 c 0
 414 49 443 61 469 85 c 0
 495 109 510 137 515 169 c 2
 590 700 l 1xbc
95 0 m 1x7c
 193 700 l 1
 250 700 l 1
 152 0 l 1
 95 0 l 1x7c
EndSplineSet
Validated: 1
EndChar

StartChar: ij
Encoding: 307 307 240
GlifName: ij
Width: 455
Flags: W
HStem: -215 60<140 215.893> 0 21G<75 134.8> 480 20G<142.2 202 369.199 429> 632 80<169.443 229.717 394.283 455.717>
VStem: 75 57<0 57> 145 57<443 500> 372 57<443 500>
LayerCount: 2
Fore
SplineSet
372 500 m 5
 429 500 l 5
 358 -7 l 6
 350 -64 324 -113 280 -154 c 4
 236 -195 185 -215 131 -215 c 5
 140 -155 l 5
 179 -155 213 -141 245 -112 c 4
 277 -83 295 -48 301 -7 c 6
 372 500 l 5
463 672 m 4
 461 661 456 652 448 644 c 4
 440 636 430 632 419 632 c 4
 408 632 400 636 394 644 c 4
 388 652 385 661 387 672 c 4
 389 683 394 692 402 700 c 4
 410 708 420 712 431 712 c 4
 442 712 450 708 456 700 c 4
 462 692 465 683 463 672 c 4
237 670 m 0
 235 659 230 650 222 642 c 0
 214 634 204 630 193 630 c 0
 182 630 174 634 168 642 c 0
 162 650 159 659 161 670 c 0
 163 681 168 690 176 698 c 0
 184 706 193 710 204 710 c 0
 215 710 224 706 230 698 c 0
 236 690 239 681 237 670 c 0
75 0 m 1
 145 500 l 1
 202 500 l 1
 132 0 l 1
 75 0 l 1
EndSplineSet
Validated: 1
EndChar

StartChar: Jcircumflex
Encoding: 308 308 241
GlifName: J_circumflex
Width: 382
Flags: W
HStem: -11 60<71.786 200.433> 680 20G<336.175 396>
VStem: 339 57<643 700>
LayerCount: 2
Fore
SplineSet
217 744 m 1
 348 870 l 1
 426 870 l 1
 522 744 l 1
 444 744 l 1
 381 824 l 5
 295 744 l 1
 217 744 l 1
339 700 m 1
 396 700 l 1
 321 169 l 2
 314 119 291 77 253 42 c 0
 215 7 172 -11 125 -11 c 0
 78 -11 40 7 12 42 c 1
 58 84 l 1
 77 61 102 49 133 49 c 0
 163 49 192 61 218 85 c 0
 244 109 259 137 264 169 c 2
 339 700 l 1
EndSplineSet
Validated: 1
EndChar

StartChar: jcircumflex
Encoding: 309 309 242
GlifName: jcircumflex
Width: 226
Flags: W
HStem: -215 60<-69 6.8927> 480 20G<160.199 220> 680 20G<151.206 266.238>
VStem: 163 57<443 500>
LayerCount: 2
Fore
SplineSet
41 574 m 1
 172 700 l 1
 251 700 l 1
 347 574 l 1
 269 574 l 1
 205 654 l 5
 119 574 l 1
 41 574 l 1
163 500 m 1
 220 500 l 1
 149 -7 l 2
 141 -64 115 -113 71 -154 c 0
 27 -195 -24 -215 -78 -215 c 1
 -69 -155 l 1
 -30 -155 4 -141 36 -112 c 0
 68 -83 86 -48 92 -7 c 2
 163 500 l 1
EndSplineSet
Validated: 1
EndChar

StartChar: uni0136
Encoding: 310 310 243
GlifName: uni0136
Width: 558
Flags: W
HStem: -200 21G<184 247.441> 0 21G<95 154.794 467.139 554> 680 20G<190.2 250 543.71 643>
VStem: 95 57<0 57> 193 57<643 700>
LayerCount: 2
Fore
SplineSet
184 -200 m 5
 241 -64 l 1
 308 -64 l 1
 237 -200 l 5
 184 -200 l 5
95 0 m 1
 193 700 l 1
 250 700 l 1
 202 359 l 1
 565 700 l 1
 643 700 l 1
 308 383 l 1
 554 0 l 1
 480 0 l 1
 262 339 l 1
 190 272 l 1
 152 0 l 1
 95 0 l 1
EndSplineSet
Validated: 1
EndChar

StartChar: uni0137
Encoding: 311 311 244
GlifName: uni0137
Width: 441
Flags: W
HStem: -200 21G<131 195.441> 0 21G<71 130.857 361.884 442> 480 20G<395.912 495> 680 20G<167.171 227>
VStem: 71 57<0 57> 170 57<643 700>
LayerCount: 2
Fore
SplineSet
131 -200 m 5
 189 -64 l 1
 256 -64 l 1
 185 -200 l 5
 131 -200 l 5
71 0 m 1
 170 700 l 1
 227 700 l 1
 165 261 l 1
 417 500 l 1
 495 500 l 1
 288 303 l 1
 442 0 l 1
 372 0 l 1
 241 259 l 1
 153 175 l 1
 128 0 l 1
 71 0 l 1
EndSplineSet
Validated: 1
EndChar

StartChar: Lacute
Encoding: 313 313 245
GlifName: L_acute
Width: 487
Flags: W
HStem: 0 60<160 478> 680 20G<190.2 250>
VStem: 193 57<643 700>
LayerCount: 2
Fore
SplineSet
194 744 m 1
 315 870 l 1
 400 870 l 1
 266 744 l 1
 194 744 l 1
95 0 m 1
 193 700 l 1
 250 700 l 1
 160 60 l 1
 486 60 l 1
 478 0 l 1
 95 0 l 1
EndSplineSet
Validated: 1
EndChar

StartChar: lacute
Encoding: 314 314 246
GlifName: lacute
Width: 199
Flags: W
HStem: 0 21G<71 130.829> 680 20G<167.171 227>
VStem: 71 57<0 57> 170 57<643 700>
LayerCount: 2
Fore
SplineSet
168 744 m 1
 289 870 l 1
 374 870 l 1
 240 744 l 1
 168 744 l 1
170 700 m 5
 227 700 l 1
 128 0 l 1
 71 0 l 1
 170 700 l 5
EndSplineSet
Validated: 1
EndChar

StartChar: uni013B
Encoding: 315 315 247
GlifName: uni013B_
Width: 487
Flags: W
HStem: -200 21G<174 237.588> 0 60<160 478> 680 20G<190.2 250>
VStem: 193 57<643 700>
LayerCount: 2
Fore
SplineSet
174 -200 m 5
 231 -64 l 1
 299 -64 l 1
 227 -200 l 5
 174 -200 l 5
95 0 m 1
 193 700 l 1
 250 700 l 1
 160 60 l 1
 486 60 l 1
 478 0 l 1
 95 0 l 1
EndSplineSet
Validated: 1
EndChar

StartChar: uni013C
Encoding: 316 316 248
GlifName: uni013C_
Width: 199
Flags: W
HStem: -200 21G<4 67.5882> 0 21G<71 130.829> 680 20G<167.171 227>
VStem: 71 57<0 57> 170 57<643 700>
LayerCount: 2
Fore
SplineSet
4 -200 m 5
 61 -64 l 1
 129 -64 l 1
 57 -200 l 5
 4 -200 l 5
170 700 m 5
 227 700 l 1
 128 0 l 1
 71 0 l 1
 170 700 l 5
EndSplineSet
Validated: 1
EndChar

StartChar: Lcaron
Encoding: 317 317 249
GlifName: L_caron
Width: 487
Flags: W
HStem: 0 60<160 478> 680 20G<190.2 250>
VStem: 193 57<643 700>
LayerCount: 2
Fore
SplineSet
298 586 m 1
 373 758 l 5
 440 758 l 5
 351 586 l 1
 298 586 l 1
95 0 m 1
 193 700 l 1
 250 700 l 1
 160 60 l 1
 486 60 l 1
 478 0 l 1
 95 0 l 1
EndSplineSet
Validated: 1
EndChar

StartChar: lcaron
Encoding: 318 318 250
GlifName: lcaron
Width: 199
Flags: W
HStem: 0 21G<71 130.829> 679 20G<167.171 227 282.395 359>
VStem: 71 57<0 57> 170 57<643 700>
LayerCount: 2
Fore
SplineSet
217 527 m 1
 291 699 l 5
 359 699 l 5
 270 527 l 1
 217 527 l 1
170 700 m 5
 227 700 l 1
 128 0 l 1
 71 0 l 1
 170 700 l 5
EndSplineSet
Validated: 1
EndChar

StartChar: Ldot
Encoding: 319 319 251
GlifName: L_dot
Width: 487
Flags: W
HStem: 0 60<160 478> 330 80<352.283 413.717> 680 20G<190.2 250>
VStem: 193 57<643 700>
LayerCount: 2
Fore
SplineSet
95 0 m 1
 193 700 l 1
 250 700 l 1
 160 60 l 1
 486 60 l 1
 478 0 l 1
 95 0 l 1
421 370 m 0
 419 359 414 350 406 342 c 0
 398 334 389 330 378 330 c 0
 367 330 358 334 352 342 c 0
 346 350 343 359 345 370 c 0
 347 381 352 390 360 398 c 0
 368 406 378 410 389 410 c 0
 400 410 408 406 414 398 c 0
 420 390 423 381 421 370 c 0
EndSplineSet
Validated: 1
EndChar

StartChar: ldot
Encoding: 320 320 252
GlifName: ldot
Width: 271
Flags: W
HStem: 0 21G<71 130.829> 330 80<219.283 280.717> 680 20G<167.171 227>
VStem: 71 57<0 57> 170 57<643 700>
LayerCount: 2
Fore
SplineSet
170 700 m 5
 227 700 l 1
 128 0 l 1
 71 0 l 1
 170 700 l 5
288 370 m 0
 286 359 281 350 273 342 c 0
 265 334 256 330 245 330 c 0
 234 330 225 334 219 342 c 0
 213 350 210 359 212 370 c 0
 214 381 219 390 227 398 c 0
 235 406 245 410 256 410 c 0
 267 410 275 406 281 398 c 0
 287 390 290 381 288 370 c 0
EndSplineSet
Validated: 1
EndChar

StartChar: Lslash
Encoding: 321 321 253
GlifName: L_slash
Width: 487
Flags: W
HStem: 0 60<160 478> 680 20G<190.2 250>
VStem: 193 57<643 700>
LayerCount: 2
Fore
SplineSet
95 0 m 1
 193 700 l 1
 250 700 l 1
 160 60 l 1
 486 60 l 1
 478 0 l 1
 95 0 l 1
41 265 m 1
 50 331 l 1
 332 455 l 1
 323 389 l 1
 41 265 l 1
EndSplineSet
Validated: 5
EndChar

StartChar: lslash
Encoding: 322 322 254
GlifName: lslash
Width: 266
Flags: W
HStem: 0 21G<104 163.8> 680 20G<199.2 259>
VStem: 104 57<0 57> 202 57<643 700>
LayerCount: 2
Fore
SplineSet
57 272 m 1
 67 339 l 1
 311 454 l 1
 301 388 l 1
 57 272 l 1
104 0 m 1
 202 700 l 1
 259 700 l 1
 161 0 l 1
 104 0 l 1
EndSplineSet
Validated: 5
EndChar

StartChar: Nacute
Encoding: 323 323 255
GlifName: N_acute
Width: 697
Flags: W
HStem: 0 21G<95 154.795 534.562 604.829> 680 20G<190.2 260.438 641.172 701>
VStem: 95 57<0 57> 644 57<643 700>
LayerCount: 2
Fore
SplineSet
416 744 m 1
 537 870 l 1
 622 870 l 1
 488 744 l 1
 416 744 l 1
193 700 m 1
 250 700 l 1
 560 106 l 1
 644 700 l 1
 701 700 l 1
 602 0 l 1
 545 0 l 1
 235 594 l 1
 152 0 l 1
 95 0 l 1
 193 700 l 1
EndSplineSet
Validated: 1
EndChar

StartChar: nacute
Encoding: 324 324 256
GlifName: nacute
Width: 526
Flags: W
HStem: 0 21G<71 130.836 412 471.836> 452 60<260.014 401.387> 480 20G<139.16 199> 680 20G<400.794 505>
VStem: 71 57<0 57> 142 57<443 500> 412 57<0 57>
LayerCount: 2
Fore
SplineSet
299 574 m 1x9e
 420 700 l 1
 505 700 l 1
 371 574 l 1
 299 574 l 1x9e
469 0 m 1
 412 0 l 1
 450 268 l 2
 458 325 450 369 428 402 c 0
 406 435 375 452 334 452 c 0xde
 293 452 257 435 225 402 c 0
 193 369 174 325 166 268 c 2
 128 0 l 5
 71 0 l 5
 142 500 l 1
 199 500 l 1xbe
 189 432 l 1
 193 437 196 442 200 446 c 0
 239 490 287 512 342 512 c 0xde
 399 512 443 490 475 445 c 0
 507 400 517 341 507 268 c 2
 469 0 l 1
EndSplineSet
Validated: 33
EndChar

StartChar: uni0145
Encoding: 325 325 257
GlifName: uni0145
Width: 697
Flags: W
HStem: -200 21G<271 334.588> 0 21G<95 154.795 534.562 604.829> 680 20G<190.2 260.438 641.172 701>
VStem: 95 57<0 57> 644 57<643 700>
LayerCount: 2
Fore
SplineSet
271 -200 m 5
 328 -64 l 1
 396 -64 l 1
 324 -200 l 5
 271 -200 l 5
193 700 m 1
 250 700 l 1
 560 106 l 1
 644 700 l 1
 701 700 l 1
 602 0 l 1
 545 0 l 1
 235 594 l 1
 152 0 l 1
 95 0 l 1
 193 700 l 1
EndSplineSet
Validated: 1
EndChar

StartChar: uni0146
Encoding: 326 326 258
GlifName: uni0146
Width: 526
Flags: W
HStem: -200 21G<168 231.441> 0 21G<71 130.836 412 471.836> 452 60<260.014 401.387> 480 20G<139.16 199>
VStem: 71 57<0 57> 142 57<443 500> 412 57<0 57>
LayerCount: 2
Fore
SplineSet
168 -200 m 5xce
 225 -64 l 1
 292 -64 l 1
 221 -200 l 5
 168 -200 l 5xce
469 0 m 1
 412 0 l 1
 450 268 l 2
 458 325 450 369 428 402 c 0
 406 435 375 452 334 452 c 0xee
 293 452 257 435 225 402 c 0
 193 369 174 325 166 268 c 2
 128 0 l 5
 71 0 l 5
 142 500 l 1
 199 500 l 1xde
 189 432 l 1
 193 437 196 442 200 446 c 0
 239 490 287 512 342 512 c 0xee
 399 512 443 490 475 445 c 0
 507 400 517 341 507 268 c 2
 469 0 l 1
EndSplineSet
Validated: 33
EndChar

StartChar: Ncaron
Encoding: 327 327 259
GlifName: N_caron
Width: 697
Flags: W
HStem: 0 21G<95 154.795 534.562 604.829> 680 20G<190.2 260.438 641.172 701>
VStem: 95 57<0 57> 644 57<643 700>
LayerCount: 2
Fore
SplineSet
330 870 m 5
 407 870 l 5
 471 792 l 5
 558 870 l 5
 635 870 l 5
 506 744 l 5
 424 744 l 5
 330 870 l 5
193 700 m 1
 250 700 l 1
 560 106 l 1
 644 700 l 1
 701 700 l 1
 602 0 l 1
 545 0 l 1
 235 594 l 1
 152 0 l 1
 95 0 l 1
 193 700 l 1
EndSplineSet
Validated: 1
EndChar

StartChar: ncaron
Encoding: 328 328 260
GlifName: ncaron
Width: 526
Flags: W
HStem: 0 21G<71 130.836 412 471.836> 452 60<260.014 401.387> 480 20G<139.16 199> 680 20G<208 301.667 413.949 513>
VStem: 71 57<0 57> 142 57<443 500> 412 57<0 57>
LayerCount: 2
Fore
SplineSet
208 700 m 5x9e
 285 700 l 5
 350 622 l 5
 436 700 l 5
 513 700 l 5
 384 574 l 5
 302 574 l 5
 208 700 l 5x9e
469 0 m 1
 412 0 l 1
 450 268 l 2
 458 325 450 369 428 402 c 0
 406 435 375 452 334 452 c 0xde
 293 452 257 435 225 402 c 0
 193 369 174 325 166 268 c 2
 128 0 l 5
 71 0 l 5
 142 500 l 1
 199 500 l 1xbe
 189 432 l 1
 193 437 196 442 200 446 c 0
 239 490 287 512 342 512 c 0xde
 399 512 443 490 475 445 c 0
 507 400 517 341 507 268 c 2
 469 0 l 1
EndSplineSet
Validated: 33
EndChar

StartChar: Eng
Encoding: 330 330 261
GlifName: E_ng
Width: 697
Flags: W
HStem: -212 60<380 474.508> -20 20G<542.6 602> 0 21G<95 154.795 534.562 604.829> 680 20G<190.2 260.438 641.172 701>
VStem: 95 57<0 57> 644 57<643 700>
LayerCount: 2
Fore
SplineSet
193 700 m 1xbc
 250 700 l 1
 560 106 l 1
 644 700 l 1
 701 700 l 1
 602 0 l 1
 545 0 l 1xdc
 235 594 l 1
 152 0 l 1
 95 0 l 1
 193 700 l 1xbc
545 0 m 5
 602 0 l 5
 599 -25 l 6
 592 -76 568 -120 528 -157 c 4
 488 -194 444 -212 395 -212 c 6
 371 -212 l 5
 380 -152 l 5
 403 -152 l 6
 437 -152 467 -140 494 -115 c 4
 521 -90 537 -60 542 -25 c 6
 545 0 l 5
EndSplineSet
Validated: 5
EndChar

StartChar: eng
Encoding: 331 331 262
GlifName: eng
Width: 526
Flags: W
HStem: -212 60<247 341.508> -20 20G<409.6 469> 0 21G<71 130.836 412 471.836> 452 60<260.014 401.387> 480 20G<139.16 199>
VStem: 71 57<0 57> 142 57<443 500> 412 57<0 57>
LayerCount: 2
Fore
SplineSet
469 0 m 1xd7
 412 0 l 1
 450 268 l 2
 458 325 450 369 428 402 c 0
 406 435 375 452 334 452 c 0xd7
 293 452 257 435 225 402 c 0
 193 369 174 325 166 268 c 2
 128 0 l 5
 71 0 l 5
 142 500 l 1
 199 500 l 1xaf
 189 432 l 1
 193 437 196 442 200 446 c 0
 239 490 287 512 342 512 c 0
 399 512 443 490 475 445 c 0
 507 400 517 341 507 268 c 2
 469 0 l 1xd7
412 0 m 5
 469 0 l 5
 466 -25 l 6
 459 -76 435 -120 395 -157 c 4
 355 -194 311 -212 262 -212 c 6
 238 -212 l 5
 247 -152 l 5
 270 -152 l 6
 304 -152 334 -140 361 -115 c 4
 388 -90 404 -60 409 -25 c 6
 412 0 l 5
EndSplineSet
Validated: 37
EndChar

StartChar: Omacron
Encoding: 332 332 263
GlifName: O_macron
Width: 737
Flags: W
HStem: -12 60<273.59 481.343> 652 60<352.195 561.91> 750 60<340 617>
LayerCount: 2
Fore
SplineSet
460 652 m 0
 383 652 316 623 258 564 c 0
 200 505 166 434 154 350 c 0
 142 266 157 195 198 136 c 0
 239 77 298 48 375 48 c 0
 452 48 519 77 577 136 c 0
 635 195 670 266 682 350 c 0
 694 434 678 505 637 564 c 0
 596 623 537 652 460 652 c 0
469 712 m 0
 563 712 635 677 685 607 c 0
 735 537 753 451 739 350 c 0
 725 249 683 163 613 93 c 0
 543 23 461 -12 367 -12 c 0
 273 -12 201 23 151 93 c 0
 101 163 83 249 97 350 c 0
 111 451 153 537 223 607 c 0
 293 677 375 712 469 712 c 0
332 750 m 1
 340 810 l 1
 625 810 l 1
 617 750 l 1
 332 750 l 1
EndSplineSet
Validated: 33
EndChar

StartChar: omacron
Encoding: 333 333 264
GlifName: omacron
Width: 550
Flags: W
HStem: -12 60<201.813 367.611> 452 60<252.959 418.187> 580 60<228 504>
LayerCount: 2
Fore
SplineSet
219 580 m 1
 228 640 l 1
 513 640 l 1
 504 580 l 1
 219 580 l 1
338 452 m 0
 286 452 242 432 204 393 c 0
 166 354 143 307 135 250 c 0
 127 193 136 146 163 107 c 0
 190 68 230 48 282 48 c 0
 334 48 379 68 417 107 c 0
 455 146 477 193 485 250 c 0
 493 307 484 354 457 393 c 0
 430 432 390 452 338 452 c 0
347 512 m 0
 414 512 466 487 503 436 c 0
 540 385 552 323 542 250 c 0
 532 177 502 115 451 64 c 0
 400 13 340 -12 273 -12 c 0
 206 -12 154 13 117 64 c 0
 80 115 68 177 78 250 c 0
 88 323 119 385 170 436 c 0
 221 487 280 512 347 512 c 0
EndSplineSet
Validated: 33
EndChar

StartChar: Obreve
Encoding: 334 334 265
GlifName: O_breve
Width: 737
Flags: W
HStem: -12 60<273.59 481.343> 652 60<352.195 561.91> 739 60<427.571 547.046>
VStem: 354 57<819.612 870> 576 57<827.491 870>
LayerCount: 2
Fore
SplineSet
460 652 m 0
 383 652 316 623 258 564 c 0
 200 505 166 434 154 350 c 0
 142 266 157 195 198 136 c 0
 239 77 298 48 375 48 c 0
 452 48 519 77 577 136 c 0
 635 195 670 266 682 350 c 0
 694 434 678 505 637 564 c 0
 596 623 537 652 460 652 c 0
469 712 m 0
 563 712 635 677 685 607 c 0
 735 537 753 451 739 350 c 0
 725 249 683 163 613 93 c 0
 543 23 461 -12 367 -12 c 0
 273 -12 201 23 151 93 c 0
 101 163 83 249 97 350 c 0
 111 451 153 537 223 607 c 0
 293 677 375 712 469 712 c 0
354 870 m 1
 411 870 l 1
 408 849 414 832 428 819 c 0
 442 806 461 799 484 799 c 0
 507 799 527 806 545 819 c 0
 563 832 573 849 576 870 c 1
 633 870 l 1
 628 834 611 804 580 778 c 0
 549 752 514 739 475 739 c 0
 436 739 404 752 381 778 c 0
 358 804 349 834 354 870 c 1
EndSplineSet
Validated: 33
EndChar

StartChar: obreve
Encoding: 335 335 266
GlifName: obreve
Width: 550
Flags: W
HStem: -12 60<201.813 367.611> 452 60<252.959 418.187> 569 60<310.571 430.046> 680 20G<234.5 294 457.5 516>
VStem: 237 57<649.612 700> 459 57<657.491 700>
LayerCount: 2
Fore
SplineSet
338 452 m 0
 286 452 242 432 204 393 c 0
 166 354 143 307 135 250 c 0
 127 193 136 146 163 107 c 0
 190 68 230 48 282 48 c 0
 334 48 379 68 417 107 c 0
 455 146 477 193 485 250 c 0
 493 307 484 354 457 393 c 0
 430 432 390 452 338 452 c 0
347 512 m 0
 414 512 466 487 503 436 c 0
 540 385 552 323 542 250 c 0
 532 177 502 115 451 64 c 0
 400 13 340 -12 273 -12 c 0
 206 -12 154 13 117 64 c 0
 80 115 68 177 78 250 c 0
 88 323 119 385 170 436 c 0
 221 487 280 512 347 512 c 0
237 700 m 1
 294 700 l 1
 291 679 297 662 311 649 c 0
 325 636 344 629 367 629 c 0
 390 629 410 636 428 649 c 0
 446 662 456 679 459 700 c 1
 516 700 l 1
 511 664 494 634 463 608 c 0
 432 582 397 569 358 569 c 0
 319 569 287 582 264 608 c 0
 241 634 232 664 237 700 c 1
EndSplineSet
Validated: 33
EndChar

StartChar: Ohungarumlaut
Encoding: 336 336 267
GlifName: O_hungarumlaut
Width: 737
Flags: W
HStem: -12 60<273.59 481.343> 652 60<352.195 561.91>
LayerCount: 2
Fore
SplineSet
511 744 m 1
 617 870 l 1
 702 870 l 1
 587 744 l 1
 511 744 l 1
355 744 m 1
 461 870 l 1
 546 870 l 1
 431 744 l 1
 355 744 l 1
460 652 m 0
 383 652 316 623 258 564 c 0
 200 505 166 434 154 350 c 0
 142 266 157 195 198 136 c 0
 239 77 298 48 375 48 c 0
 452 48 519 77 577 136 c 0
 635 195 670 266 682 350 c 0
 694 434 678 505 637 564 c 0
 596 623 537 652 460 652 c 0
469 712 m 0
 563 712 635 677 685 607 c 0
 735 537 753 451 739 350 c 0
 725 249 683 163 613 93 c 0
 543 23 461 -12 367 -12 c 0
 273 -12 201 23 151 93 c 0
 101 163 83 249 97 350 c 0
 111 451 153 537 223 607 c 0
 293 677 375 712 469 712 c 0
EndSplineSet
Validated: 33
EndChar

StartChar: ohungarumlaut
Encoding: 337 337 268
GlifName: ohungarumlaut
Width: 550
Flags: W
HStem: -12 60<201.813 367.611> 452 60<252.959 418.187> 680 20G<330.175 432 486.175 588>
LayerCount: 2
Fore
SplineSet
397 574 m 1
 503 700 l 1
 588 700 l 1
 473 574 l 1
 397 574 l 1
241 574 m 1
 347 700 l 1
 432 700 l 1
 317 574 l 1
 241 574 l 1
338 452 m 0
 286 452 242 432 204 393 c 0
 166 354 143 307 135 250 c 0
 127 193 136 146 163 107 c 0
 190 68 230 48 282 48 c 0
 334 48 379 68 417 107 c 0
 455 146 477 193 485 250 c 0
 493 307 484 354 457 393 c 0
 430 432 390 452 338 452 c 0
347 512 m 0
 414 512 466 487 503 436 c 0
 540 385 552 323 542 250 c 0
 532 177 502 115 451 64 c 0
 400 13 340 -12 273 -12 c 0
 206 -12 154 13 117 64 c 0
 80 115 68 177 78 250 c 0
 88 323 119 385 170 436 c 0
 221 487 280 512 347 512 c 0
EndSplineSet
Validated: 33
EndChar

StartChar: OE
Encoding: 338 338 269
GlifName: O_E_
Width: 1101
Flags: W
HStem: -12 60<273.59 481.343> 0 60<698 1016> 329 60<744 1001> 640 60<780 1105> 652 60<352.195 561.91>
LayerCount: 2
Fore
SplineSet
460 652 m 0xa8
 383 652 316 623 258 564 c 0
 200 505 166 434 154 350 c 0
 142 266 157 195 198 136 c 0
 239 77 298 48 375 48 c 0
 452 48 519 77 577 136 c 0
 635 195 670 266 682 350 c 0
 694 434 678 505 637 564 c 0
 596 623 537 652 460 652 c 0xa8
469 712 m 0
 563 712 635 677 685 607 c 0
 735 537 753 451 739 350 c 0
 725 249 683 163 613 93 c 0
 543 23 461 -12 367 -12 c 0
 273 -12 201 23 151 93 c 0
 101 163 83 249 97 350 c 0
 111 451 153 537 223 607 c 0
 293 677 375 712 469 712 c 0
633 0 m 1x70
 731 700 l 1
 1114 700 l 1
 1105 640 l 1
 780 640 l 1
 744 389 l 1
 1009 389 l 1
 1001 329 l 1
 736 329 l 1
 698 60 l 1
 1024 60 l 1
 1016 0 l 1
 633 0 l 1x70
EndSplineSet
Validated: 37
EndChar

StartChar: oe
Encoding: 339 339 270
GlifName: oe
Width: 929
Flags: W
HStem: -12 60<201.813 367.611 609.733 794.36> 220 60<548 877.497> 452 60<252.959 418.187 660.469 822.088>
CounterMasks: 1 e0
LayerCount: 2
Fore
SplineSet
927 220 m 1
 540 220 l 1
 539 170 552 129 579 97 c 0
 606 65 642 48 689 48 c 0
 755 48 810 68 853 107 c 1
 886 63 l 1
 832 13 763 -12 681 -12 c 0
 614 -12 562 13 525 64 c 0
 488 115 475 177 485 250 c 0
 495 323 526 385 577 436 c 0
 628 487 688 512 755 512 c 0
 821 512 869 488 900 438 c 0
 931 388 942 325 931 250 c 2
 927 220 l 1
746 452 m 0
 699 452 658 435 622 403 c 0
 586 371 561 330 548 280 c 1
 877 280 l 1
 880 331 870 372 848 404 c 0
 826 436 792 452 746 452 c 0
338 452 m 0
 286 452 242 432 204 393 c 0
 166 354 143 307 135 250 c 0
 127 193 136 146 163 107 c 0
 190 68 230 48 282 48 c 0
 334 48 379 68 417 107 c 0
 455 146 477 193 485 250 c 0
 493 307 484 354 457 393 c 0
 430 432 390 452 338 452 c 0
347 512 m 0
 414 512 466 487 503 436 c 0
 540 385 552 323 542 250 c 0
 532 177 502 115 451 64 c 0
 400 13 340 -12 273 -12 c 0
 206 -12 154 13 117 64 c 0
 80 115 68 177 78 250 c 0
 88 323 119 385 170 436 c 0
 221 487 280 512 347 512 c 0
EndSplineSet
Validated: 37
EndChar

StartChar: Racute
Encoding: 340 340 271
GlifName: R_acute
Width: 558
Flags: W
HStem: 0 21G<95 154.8 441.933 511> 300 60<203 357> 640 60<242 478.215>
VStem: 95 57<0 57> 448 63<0 63>
LayerCount: 2
Fore
SplineSet
336 744 m 1
 458 870 l 1
 542 870 l 1
 409 744 l 1
 336 744 l 1
242 640 m 1
 203 360 l 1
 372 360 l 2
 408 360 441 374 471 402 c 0
 501 430 519 462 524 500 c 0
 529 538 521 570 499 598 c 0
 477 626 447 640 411 640 c 2
 242 640 l 1
193 700 m 1
 419 700 l 2
 472 700 514 681 546 642 c 0
 578 603 589 555 581 500 c 0
 575 456 556 415 526 380 c 0
 496 345 460 321 418 309 c 1
 511 0 l 1
 448 0 l 1
 357 300 l 1
 194 300 l 1
 152 0 l 1
 95 0 l 1
 193 700 l 1
EndSplineSet
Validated: 33
EndChar

StartChar: racute
Encoding: 341 341 272
GlifName: racute
Width: 305
Flags: W
HStem: 0 21G<71 130.836> 452 60<276.519 360> 480 20G<139.16 199> 680 20G<289.794 394>
VStem: 71 57<0 57> 142 57<443 500>
LayerCount: 2
Fore
SplineSet
188 574 m 1x9c
 309 700 l 1
 394 700 l 1
 260 574 l 1
 188 574 l 1x9c
142 500 m 1xbc
 199 500 l 1xbc
 188 424 l 1
 194 431 200 437 206 443 c 0
 226 462 246 477 268 488 c 0
 299 504 332 512 368 512 c 1
 360 452 l 1xdc
 314 452 272 435 234 400 c 0
 196 365 174 324 167 275 c 2
 128 0 l 1
 71 0 l 1
 142 500 l 1xbc
EndSplineSet
Validated: 1
EndChar

StartChar: uni0156
Encoding: 342 342 273
GlifName: uni0156
Width: 558
Flags: W
HStem: -200 21G<196 259.588> 0 21G<95 154.8 441.933 511> 300 60<203 357> 640 60<242 478.215>
VStem: 95 57<0 57> 448 63<0 63>
LayerCount: 2
Fore
SplineSet
196 -200 m 5
 253 -64 l 1
 321 -64 l 1
 249 -200 l 5
 196 -200 l 5
242 640 m 1
 203 360 l 1
 372 360 l 2
 408 360 441 374 471 402 c 0
 501 430 519 462 524 500 c 0
 529 538 521 570 499 598 c 0
 477 626 447 640 411 640 c 2
 242 640 l 1
193 700 m 1
 419 700 l 2
 472 700 514 681 546 642 c 0
 578 603 589 555 581 500 c 0
 575 456 556 415 526 380 c 0
 496 345 460 321 418 309 c 1
 511 0 l 1
 448 0 l 1
 357 300 l 1
 194 300 l 1
 152 0 l 1
 95 0 l 1
 193 700 l 1
EndSplineSet
Validated: 33
EndChar

StartChar: uni0157
Encoding: 343 343 274
GlifName: uni0157
Width: 305
Flags: W
HStem: -200 21G<4 67.5882> 0 21G<71 130.836> 452 60<276.519 360> 480 20G<139.16 199>
VStem: 71 57<0 57> 142 57<443 500>
LayerCount: 2
Fore
SplineSet
4 -200 m 5xcc
 61 -64 l 1
 129 -64 l 1
 57 -200 l 5
 4 -200 l 5xcc
142 500 m 1xdc
 199 500 l 1xdc
 188 424 l 1
 194 431 200 437 206 443 c 0
 226 462 246 477 268 488 c 0
 299 504 332 512 368 512 c 1
 360 452 l 1xec
 314 452 272 435 234 400 c 0
 196 365 174 324 167 275 c 2
 128 0 l 1
 71 0 l 1
 142 500 l 1xdc
EndSplineSet
Validated: 1
EndChar

StartChar: Rcaron
Encoding: 344 344 275
GlifName: R_caron
Width: 558
Flags: W
HStem: 0 21G<95 154.8 441.933 511> 300 60<203 357> 640 60<242 478.215>
VStem: 95 57<0 57> 448 63<0 63>
LayerCount: 2
Fore
SplineSet
240 870 m 5
 318 870 l 5
 382 792 l 5
 468 870 l 5
 546 870 l 5
 416 744 l 5
 334 744 l 5
 240 870 l 5
242 640 m 1
 203 360 l 1
 372 360 l 2
 408 360 441 374 471 402 c 0
 501 430 519 462 524 500 c 0
 529 538 521 570 499 598 c 0
 477 626 447 640 411 640 c 2
 242 640 l 1
193 700 m 1
 419 700 l 2
 472 700 514 681 546 642 c 0
 578 603 589 555 581 500 c 0
 575 456 556 415 526 380 c 0
 496 345 460 321 418 309 c 1
 511 0 l 1
 448 0 l 1
 357 300 l 1
 194 300 l 1
 152 0 l 1
 95 0 l 1
 193 700 l 1
EndSplineSet
Validated: 33
EndChar

StartChar: rcaron
Encoding: 345 345 276
GlifName: rcaron
Width: 305
Flags: W
HStem: 0 21G<71 130.836> 452 60<276.519 360> 480 20G<139.16 199> 680 20G<120 214.41 326.692 426>
VStem: 71 57<0 57> 142 57<443 500>
LayerCount: 2
Fore
SplineSet
120 700 m 5x9c
 198 700 l 5
 262 622 l 5
 349 700 l 5
 426 700 l 5
 296 574 l 5
 214 574 l 5
 120 700 l 5x9c
142 500 m 1xbc
 199 500 l 1xbc
 188 424 l 1
 194 431 200 437 206 443 c 0
 226 462 246 477 268 488 c 0
 299 504 332 512 368 512 c 1
 360 452 l 1xdc
 314 452 272 435 234 400 c 0
 196 365 174 324 167 275 c 2
 128 0 l 1
 71 0 l 1
 142 500 l 1xbc
EndSplineSet
Validated: 1
EndChar

StartChar: Sacute
Encoding: 346 346 277
GlifName: S_acute
Width: 512
Flags: W
HStem: -12 60<178.786 340.424> 652 60<256.509 419.445>
VStem: 70 57<98.8 129.579> 457 57<590.421 616.971>
LayerCount: 2
Fore
SplineSet
316 744 m 1
 438 870 l 1
 522 870 l 1
 389 744 l 1
 316 744 l 1
350 712 m 0
 395 712 432 701 460 680 c 0
 488 659 506 630 514 593 c 1
 457 572 l 1
 452 597 440 617 420 631 c 0
 400 645 374 652 341 652 c 0
 300 652 267 641 239 618 c 0
 211 595 196 566 191 531 c 0
 187 502 192 479 207 460 c 0
 226 436 259 419 307 410 c 0
 367 399 414 375 448 338 c 0
 482 301 496 255 488 199 c 0
 480 140 452 91 406 50 c 0
 360 9 308 -12 248 -12 c 0
 202 -12 163 1 131 26 c 0
 99 51 79 85 70 127 c 1
 127 148 l 1
 133 118 148 93 171 75 c 0
 194 57 223 48 257 48 c 0
 301 48 339 63 372 92 c 0
 405 121 425 157 431 199 c 0
 437 239 427 272 402 298 c 0
 377 324 342 342 299 350 c 0
 243 361 200 381 169 410 c 0
 138 439 127 480 134 531 c 0
 141 582 164 625 205 660 c 0
 246 695 294 712 350 712 c 0
EndSplineSet
Validated: 33
EndChar

StartChar: sacute
Encoding: 347 347 278
GlifName: sacute
Width: 408
Flags: W
HStem: -12 60<137.175 279.07> 452 60<202.758 329.914> 680 20G<338.635 442>
LayerCount: 2
Fore
SplineSet
236 574 m 1
 358 700 l 1
 442 700 l 1
 309 574 l 1
 236 574 l 1
402 423 m 1
 345 402 l 1
 342 417 334 429 320 438 c 0
 306 447 289 452 268 452 c 0
 242 452 220 445 202 430 c 0
 184 415 175 397 172 376 c 0
 169 352 181 332 209 316 c 0
 222 309 238 303 257 297 c 0
 306 283 342 262 363 236 c 0
 384 211 391 180 386 144 c 0
 380 101 358 64 322 34 c 0
 286 4 245 -12 197 -12 c 0
 161 -12 130 -3 106 16 c 0
 82 35 64 60 55 91 c 1
 111 111 l 1
 124 69 155 48 205 48 c 0
 237 48 264 57 288 76 c 0
 312 95 325 117 329 144 c 0
 333 172 320 196 292 214 c 0
 277 224 258 232 234 239 c 0
 196 250 165 267 142 289 c 0
 119 311 110 341 115 376 c 0
 120 414 138 446 168 472 c 0
 198 498 234 512 276 512 c 0
 309 512 338 504 360 488 c 0
 382 472 396 450 402 423 c 1
EndSplineSet
Validated: 33
EndChar

StartChar: Scircumflex
Encoding: 348 348 279
GlifName: S_circumflex
Width: 512
Flags: W
HStem: -12 60<178.786 340.424> 652 60<256.509 419.445>
VStem: 70 57<98.8 129.579> 457 57<590.421 616.971>
LayerCount: 2
Fore
SplineSet
201 744 m 1
 332 870 l 1
 410 870 l 1
 506 744 l 1
 428 744 l 1
 365 824 l 5
 279 744 l 1
 201 744 l 1
350 712 m 0
 395 712 432 701 460 680 c 0
 488 659 506 630 514 593 c 1
 457 572 l 1
 452 597 440 617 420 631 c 0
 400 645 374 652 341 652 c 0
 300 652 267 641 239 618 c 0
 211 595 196 566 191 531 c 0
 187 502 192 479 207 460 c 0
 226 436 259 419 307 410 c 0
 367 399 414 375 448 338 c 0
 482 301 496 255 488 199 c 0
 480 140 452 91 406 50 c 0
 360 9 308 -12 248 -12 c 0
 202 -12 163 1 131 26 c 0
 99 51 79 85 70 127 c 1
 127 148 l 1
 133 118 148 93 171 75 c 0
 194 57 223 48 257 48 c 0
 301 48 339 63 372 92 c 0
 405 121 425 157 431 199 c 0
 437 239 427 272 402 298 c 0
 377 324 342 342 299 350 c 0
 243 361 200 381 169 410 c 0
 138 439 127 480 134 531 c 0
 141 582 164 625 205 660 c 0
 246 695 294 712 350 712 c 0
EndSplineSet
Validated: 33
EndChar

StartChar: scircumflex
Encoding: 349 349 280
GlifName: scircumflex
Width: 408
Flags: W
HStem: -12 60<137.175 279.07> 452 60<202.758 329.914> 680 20G<243.048 357.238>
LayerCount: 2
Fore
SplineSet
132 574 m 1
 264 700 l 1
 342 700 l 1
 438 574 l 1
 360 574 l 1
 296 654 l 5
 210 574 l 1
 132 574 l 1
402 423 m 1
 345 402 l 1
 342 417 334 429 320 438 c 0
 306 447 289 452 268 452 c 0
 242 452 220 445 202 430 c 0
 184 415 175 397 172 376 c 0
 169 352 181 332 209 316 c 0
 222 309 238 303 257 297 c 0
 306 283 342 262 363 236 c 0
 384 211 391 180 386 144 c 0
 380 101 358 64 322 34 c 0
 286 4 245 -12 197 -12 c 0
 161 -12 130 -3 106 16 c 0
 82 35 64 60 55 91 c 1
 111 111 l 1
 124 69 155 48 205 48 c 0
 237 48 264 57 288 76 c 0
 312 95 325 117 329 144 c 0
 333 172 320 196 292 214 c 0
 277 224 258 232 234 239 c 0
 196 250 165 267 142 289 c 0
 119 311 110 341 115 376 c 0
 120 414 138 446 168 472 c 0
 198 498 234 512 276 512 c 0
 309 512 338 504 360 488 c 0
 382 472 396 450 402 423 c 1
EndSplineSet
Validated: 33
EndChar

StartChar: Scedilla
Encoding: 350 350 281
GlifName: S_cedilla
Width: 512
Flags: W
HStem: -210 57<155.359 270.086> -12 60<178.786 283.334> 652 60<256.509 419.445>
VStem: 70 57<98.8 129.579> 457 57<590.421 616.971>
LayerCount: 2
Fore
SplineSet
331 33 m 1
 356 5 366 -29 360 -70 c 0
 355 -109 337 -142 307 -169 c 0
 277 -196 244 -210 207 -210 c 0
 177 -210 151 -200 130 -181 c 1
 157 -152 171 -137 171 -137 c 5
 183 -147 198 -153 215 -153 c 0
 237 -153 256 -144 274 -128 c 0
 292 -112 302 -93 305 -70 c 0
 307 -54 306 -39 300 -26 c 0
 294 -13 285 -3 273 4 c 1
 331 33 l 1
350 712 m 0
 395 712 432 701 460 680 c 0
 488 659 506 630 514 593 c 1
 457 572 l 1
 452 597 440 617 420 631 c 0
 400 645 374 652 341 652 c 0
 300 652 267 641 239 618 c 0
 211 595 196 566 191 531 c 0
 187 502 192 479 207 460 c 0
 226 436 259 419 307 410 c 0
 367 399 414 375 448 338 c 0
 482 301 496 255 488 199 c 0
 480 140 452 91 406 50 c 0
 360 9 308 -12 248 -12 c 0
 202 -12 163 1 131 26 c 0
 99 51 79 85 70 127 c 1
 127 148 l 1
 133 118 148 93 171 75 c 0
 194 57 223 48 257 48 c 0
 301 48 339 63 372 92 c 0
 405 121 425 157 431 199 c 0
 437 239 427 272 402 298 c 0
 377 324 342 342 299 350 c 0
 243 361 200 381 169 410 c 0
 138 439 127 480 134 531 c 0
 141 582 164 625 205 660 c 0
 246 695 294 712 350 712 c 0
EndSplineSet
Validated: 37
EndChar

StartChar: scedilla
Encoding: 351 351 282
GlifName: scedilla
Width: 408
Flags: W
HStem: -210 57<99.359 214.086> -12 60<137.175 227.805> 452 60<202.758 329.914>
LayerCount: 2
Fore
SplineSet
275 33 m 1
 300 5 310 -29 304 -70 c 0
 299 -109 281 -142 251 -169 c 0
 221 -196 188 -210 151 -210 c 0
 121 -210 95 -200 74 -181 c 1
 101 -152 115 -137 115 -137 c 5
 127 -147 142 -153 159 -153 c 0
 181 -153 200 -144 218 -128 c 0
 236 -112 247 -93 250 -70 c 0
 252 -54 250 -39 244 -26 c 0
 238 -13 229 -3 217 4 c 1
 275 33 l 1
402 423 m 1
 345 402 l 1
 342 417 334 429 320 438 c 0
 306 447 289 452 268 452 c 0
 242 452 220 445 202 430 c 0
 184 415 175 397 172 376 c 0
 169 352 181 332 209 316 c 0
 222 309 238 303 257 297 c 0
 306 283 342 262 363 236 c 0
 384 211 391 180 386 144 c 0
 380 101 358 64 322 34 c 0
 286 4 245 -12 197 -12 c 0
 161 -12 130 -3 106 16 c 0
 82 35 64 60 55 91 c 1
 111 111 l 1
 124 69 155 48 205 48 c 0
 237 48 264 57 288 76 c 0
 312 95 325 117 329 144 c 0
 333 172 320 196 292 214 c 0
 277 224 258 232 234 239 c 0
 196 250 165 267 142 289 c 0
 119 311 110 341 115 376 c 0
 120 414 138 446 168 472 c 0
 198 498 234 512 276 512 c 0
 309 512 338 504 360 488 c 0
 382 472 396 450 402 423 c 1
EndSplineSet
Validated: 37
EndChar

StartChar: Scaron
Encoding: 352 352 283
GlifName: S_caron
Width: 512
Flags: W
HStem: -12 60<178.786 340.424> 652 60<256.509 419.445>
VStem: 70 57<98.8 129.579> 457 57<590.421 616.971>
LayerCount: 2
Fore
SplineSet
224 870 m 5
 301 870 l 5
 366 792 l 5
 452 870 l 5
 530 870 l 5
 400 744 l 5
 318 744 l 5
 224 870 l 5
350 712 m 0
 395 712 432 701 460 680 c 0
 488 659 506 630 514 593 c 1
 457 572 l 1
 452 597 440 617 420 631 c 0
 400 645 374 652 341 652 c 0
 300 652 267 641 239 618 c 0
 211 595 196 566 191 531 c 0
 187 502 192 479 207 460 c 0
 226 436 259 419 307 410 c 0
 367 399 414 375 448 338 c 0
 482 301 496 255 488 199 c 0
 480 140 452 91 406 50 c 0
 360 9 308 -12 248 -12 c 0
 202 -12 163 1 131 26 c 0
 99 51 79 85 70 127 c 1
 127 148 l 1
 133 118 148 93 171 75 c 0
 194 57 223 48 257 48 c 0
 301 48 339 63 372 92 c 0
 405 121 425 157 431 199 c 0
 437 239 427 272 402 298 c 0
 377 324 342 342 299 350 c 0
 243 361 200 381 169 410 c 0
 138 439 127 480 134 531 c 0
 141 582 164 625 205 660 c 0
 246 695 294 712 350 712 c 0
EndSplineSet
Validated: 33
EndChar

StartChar: scaron
Encoding: 353 353 284
GlifName: scaron
Width: 408
Flags: W
HStem: -12 60<137.175 279.07> 452 60<202.758 329.914> 680 20G<150 243.667 355.949 455>
LayerCount: 2
Fore
SplineSet
150 700 m 5
 227 700 l 5
 292 622 l 5
 378 700 l 5
 455 700 l 5
 326 574 l 5
 244 574 l 5
 150 700 l 5
402 423 m 1
 345 402 l 1
 342 417 334 429 320 438 c 0
 306 447 289 452 268 452 c 0
 242 452 220 445 202 430 c 0
 184 415 175 397 172 376 c 0
 169 352 181 332 209 316 c 0
 222 309 238 303 257 297 c 0
 306 283 342 262 363 236 c 0
 384 211 391 180 386 144 c 0
 380 101 358 64 322 34 c 0
 286 4 245 -12 197 -12 c 0
 161 -12 130 -3 106 16 c 0
 82 35 64 60 55 91 c 1
 111 111 l 1
 124 69 155 48 205 48 c 0
 237 48 264 57 288 76 c 0
 312 95 325 117 329 144 c 0
 333 172 320 196 292 214 c 0
 277 224 258 232 234 239 c 0
 196 250 165 267 142 289 c 0
 119 311 110 341 115 376 c 0
 120 414 138 446 168 472 c 0
 198 498 234 512 276 512 c 0
 309 512 338 504 360 488 c 0
 382 472 396 450 402 423 c 1
EndSplineSet
Validated: 33
EndChar

StartChar: uni0162
Encoding: 354 354 285
GlifName: uni0162
Width: 513
Flags: W
HStem: -202 57<115.332 229.086> 0 21G<228 287.812> 640 60<108 318 375 593>
VStem: 318 57<590.222 640>
LayerCount: 2
Fore
SplineSet
108 700 m 1
 602 700 l 1
 593 640 l 1
 375 640 l 1
 285 0 l 1
 228 0 l 1
 318 640 l 1
 99 640 l 1
 108 700 l 1
291 41 m 1
 316 13 325 -21 319 -62 c 0
 314 -101 296 -134 266 -161 c 0
 236 -188 203 -202 166 -202 c 0
 136 -202 111 -192 90 -173 c 1
 117 -144 131 -129 131 -129 c 5
 143 -139 157 -145 174 -145 c 0
 196 -145 215 -136 233 -120 c 0
 251 -104 262 -85 265 -62 c 0
 267 -46 265 -31 259 -18 c 0
 253 -5 244 5 232 12 c 1
 291 41 l 1
EndSplineSet
Validated: 37
EndChar

StartChar: uni0163
Encoding: 355 355 286
GlifName: uni0163
Width: 341
Flags: W
HStem: -200 57<142.332 256.086> 0 21G<267 314.667> 441 59<89 166 231 375>
VStem: 196 57<599 656>
LayerCount: 2
Fore
SplineSet
196 656 m 1
 253 656 l 1
 231 500 l 1
 383 500 l 1
 375 441 l 1
 223 441 l 1
 189 199 l 2
 184 160 191 127 213 100 c 0
 235 73 264 60 301 60 c 2
 320 60 l 1
 312 0 l 1
 293 0 l 2
 241 0 199 19 167 58 c 0
 135 97 124 144 132 199 c 2
 166 441 l 1
 81 441 l 1
 89 500 l 1
 174 500 l 1
 196 656 l 1
317 43 m 1
 342 15 352 -19 346 -60 c 0
 341 -99 323 -132 293 -159 c 0
 263 -186 230 -200 193 -200 c 0
 163 -200 138 -190 117 -171 c 1
 144 -142 158 -127 158 -127 c 5
 170 -137 184 -143 201 -143 c 0
 223 -143 242 -134 260 -118 c 0
 278 -102 289 -83 292 -60 c 0
 294 -44 292 -29 286 -16 c 0
 280 -3 271 7 259 14 c 1
 317 43 l 1
EndSplineSet
Validated: 37
EndChar

StartChar: Tcaron
Encoding: 356 356 287
GlifName: T_caron
Width: 513
Flags: W
HStem: 0 21G<228 287.812> 640 60<108 318 375 593>
VStem: 228 57<0 57>
LayerCount: 2
Fore
SplineSet
225 870 m 5
 302 870 l 5
 367 792 l 5
 453 870 l 5
 531 870 l 5
 401 744 l 5
 319 744 l 5
 225 870 l 5
108 700 m 1
 602 700 l 1
 593 640 l 1
 375 640 l 1
 285 0 l 1
 228 0 l 1
 318 640 l 1
 99 640 l 1
 108 700 l 1
EndSplineSet
Validated: 1
EndChar

StartChar: tcaron
Encoding: 357 357 288
GlifName: tcaron
Width: 358
Flags: W
HStem: 0 60<232.527 312> 441 59<89 166 231 375>
VStem: 196 57<599 656>
LayerCount: 2
Fore
SplineSet
196 656 m 1
 253 656 l 1
 231 500 l 1
 383 500 l 1
 375 441 l 1
 223 441 l 1
 189 199 l 2
 184 160 191 127 213 100 c 0
 235 73 264 60 301 60 c 2
 320 60 l 1
 312 0 l 1
 293 0 l 2
 241 0 199 19 167 58 c 0
 135 97 124 144 132 199 c 2
 166 441 l 1
 81 441 l 1
 89 500 l 1
 174 500 l 1
 196 656 l 1
289 553 m 1
 363 725 l 5
 431 725 l 5
 342 553 l 1
 289 553 l 1
EndSplineSet
Validated: 33
EndChar

StartChar: Tbar
Encoding: 358 358 289
GlifName: T_bar
Width: 513
Flags: W
HStem: 0 21G<228 287.812> 309 60<164 448> 640 60<108 318 375 593>
VStem: 228 57<0 57>
LayerCount: 2
Fore
SplineSet
108 700 m 1
 602 700 l 1
 593 640 l 1
 375 640 l 1
 285 0 l 1
 228 0 l 1
 318 640 l 1
 99 640 l 1
 108 700 l 1
156 309 m 5
 164 369 l 5
 457 369 l 5
 448 309 l 5
 156 309 l 5
EndSplineSet
Validated: 5
EndChar

StartChar: tbar
Encoding: 359 359 290
GlifName: tbar
Width: 341
Flags: W
HStem: 0 60<232.527 312> 271 59<69 346> 441 59<89 166 231 375>
VStem: 196 57<599 656>
LayerCount: 2
Fore
SplineSet
196 656 m 1
 253 656 l 1
 231 500 l 1
 383 500 l 1
 375 441 l 1
 223 441 l 1
 189 199 l 2
 184 160 191 127 213 100 c 0
 235 73 264 60 301 60 c 2
 320 60 l 1
 312 0 l 1
 293 0 l 2
 241 0 199 19 167 58 c 0
 135 97 124 144 132 199 c 2
 166 441 l 1
 81 441 l 1
 89 500 l 1
 174 500 l 1
 196 656 l 1
61 271 m 5
 69 330 l 5
 354 330 l 5
 346 271 l 5
 61 271 l 5
EndSplineSet
Validated: 37
EndChar

StartChar: Utilde
Encoding: 360 360 291
GlifName: U_tilde
Width: 673
Flags: W
HStem: -12 60<260.388 432.124> 680 20G<181.177 241 626.225 686> 742 56<469.465 534.433> 814 56<355.476 417.433>
VStem: 184 57<643 700> 629 57<643 700>
LayerCount: 2
Fore
SplineSet
184 700 m 1
 241 700 l 1
 182 282 l 2
 172 212 183 156 214 113 c 0
 245 70 289 48 344 48 c 0
 399 48 448 70 491 113 c 0
 534 156 561 212 571 282 c 2
 629 700 l 1
 686 700 l 1
 628 282 l 2
 616 194 581 124 526 70 c 0
 471 16 407 -12 335 -12 c 0
 263 -12 207 16 167 70 c 0
 127 124 113 194 125 282 c 2
 184 700 l 1
492 742 m 0
 464 742 442 754 427 778 c 0
 421 787 415 796 410 803 c 0
 405 810 399 814 391 814 c 0
 372 814 357 802 348 777 c 1
 292 777 l 1
 299 803 312 824 332 842 c 0
 352 860 375 869 399 870 c 0
 423 870 443 858 459 834 c 0
 465 825 472 816 478 809 c 0
 484 802 491 798 500 798 c 0
 520 798 534 811 541 836 c 1
 597 836 l 1
 589 809 576 786 557 768 c 0
 538 750 516 742 492 742 c 0
EndSplineSet
Validated: 33
EndChar

